<svg width="24" height="24" viewBox="0 0 24 24" fill="none" xmlns="http://www.w3.org/2000/svg">
<mask id="mask0_860_1453" style="mask-type:alpha" maskUnits="userSpaceOnUse" x="0" y="0" width="24" height="24">
<rect width="24" height="24" fill="#D9D9D9"/>
</mask>
<g mask="url(#mask0_860_1453)">
<path d="M12 11.25C12.5667 11.25 13.0543 11.0457 13.463 10.637C13.871 10.229 14.075 9.74167 14.075 9.175C14.075 8.60833 13.871 8.12067 13.463 7.712C13.0543 7.304 12.5667 7.1 12 7.1C11.4333 7.1 10.946 7.304 10.538 7.712C10.1293 8.12067 9.925 8.60833 9.925 9.175C9.925 9.74167 10.1293 10.229 10.538 10.637C10.946 11.0457 11.4333 11.25 12 11.25ZM12 12.75C11.0167 12.75 10.175 12.4 9.475 11.7C8.775 11 8.425 10.1583 8.425 9.175C8.425 8.19167 8.775 7.35 9.475 6.65C10.175 5.95 11.0167 5.6 12 5.6C12.9833 5.6 13.825 5.95 14.525 6.65C15.225 7.35 15.575 8.19167 15.575 9.175C15.575 10.1583 15.225 11 14.525 11.7C13.825 12.4 12.9833 12.75 12 12.75ZM12 23.125C10.4667 23.125 9.025 22.8333 7.675 22.25C6.325 21.6667 5.146 20.871 4.138 19.863C3.12933 18.8543 2.33333 17.675 1.75 16.325C1.16667 14.975 0.875 13.5333 0.875 12C0.875 10.4667 1.16667 9.025 1.75 7.675C2.33333 6.325 3.12933 5.14567 4.138 4.137C5.146 3.129 6.325 2.33333 7.675 1.75C9.025 1.16667 10.4667 0.875 12 0.875C13.5333 0.875 14.975 1.16667 16.325 1.75C17.675 2.33333 18.8543 3.129 19.863 4.137C20.871 5.14567 21.6667 6.325 22.25 7.675C22.8333 9.025 23.125 10.4667 23.125 12C23.125 13.5333 22.8333 14.975 22.25 16.325C21.6667 17.675 20.871 18.8543 19.863 19.863C18.8543 20.871 17.675 21.6667 16.325 22.25C14.975 22.8333 13.5333 23.125 12 23.125ZM12 21.625C13.15 21.625 14.246 21.4293 15.288 21.038C16.3293 20.646 17.2917 20.0917 18.175 19.375C17.6083 18.7417 16.796 18.1873 15.738 17.712C14.6793 17.2373 13.4333 17 12 17C10.5667 17 9.321 17.2373 8.263 17.712C7.20433 18.1873 6.39167 18.7417 5.825 19.375C6.70833 20.0917 7.671 20.646 8.713 21.038C9.75433 21.4293 10.85 21.625 12 21.625ZM4.75 18.325C5.53333 17.475 6.55833 16.7917 7.825 16.275C9.09167 15.7583 10.4833 15.5 12 15.5C13.5167 15.5 14.9083 15.7583 16.175 16.275C17.4417 16.7917 18.4667 17.475 19.25 18.325C19.9833 17.425 20.5627 16.4377 20.988 15.363C21.4127 14.2877 21.625 13.1667 21.625 12C21.625 10.6667 21.371 9.42067 20.863 8.262C20.3543 7.104 19.6627 6.08733 18.788 5.212C17.9127 4.33733 16.896 3.64567 15.738 3.137C14.5793 2.629 13.3333 2.375 12 2.375C10.6833 2.375 9.44167 2.629 8.275 3.137C7.10833 3.64567 6.08767 4.33733 5.213 5.212C4.33767 6.08733 3.646 7.104 3.138 8.262C2.62933 9.42067 2.375 10.6667 2.375 12C2.375 13.2333 2.579 14.371 2.987 15.413C3.39567 16.4543 3.98333 17.425 4.75 18.325Z" fill="white"/>
</g>
</svg>
