<svg width="25" height="24" viewBox="0 0 25 24" fill="none" xmlns="http://www.w3.org/2000/svg">
<mask id="mask0_478_10282" style="mask-type:alpha" maskUnits="userSpaceOnUse" x="0" y="0" width="25" height="24">
<rect x="0.332031" width="24" height="24" fill="#D9D9D9"/>
</mask>
<g mask="url(#mask0_478_10282)">
<path d="M6.08111 21.3076C5.576 21.3076 5.14844 21.1326 4.79844 20.7826C4.44844 20.4326 4.27344 20.0051 4.27344 19.5V6.80774H5.77341V19.5C5.77341 19.5769 5.80546 19.6474 5.86956 19.7115C5.93366 19.7756 6.00418 19.8077 6.08111 19.8077H15.7733V21.3076H6.08111ZM9.58109 17.8077C9.07595 17.8077 8.64839 17.6327 8.29839 17.2827C7.9484 16.9327 7.77341 16.5051 7.77341 16V4.61541C7.77341 4.1103 7.9484 3.68274 8.29839 3.33274C8.64839 2.98274 9.07595 2.80774 9.58109 2.80774H17.9657C18.4708 2.80774 18.8983 2.98274 19.2483 3.33274C19.5983 3.68274 19.7733 4.1103 19.7733 4.61541V16C19.7733 16.5051 19.5983 16.9327 19.2483 17.2827C18.8983 17.6327 18.4708 17.8077 17.9657 17.8077H9.58109ZM9.58109 16.3077H17.9657C18.0426 16.3077 18.1131 16.2757 18.1772 16.2115C18.2413 16.1474 18.2734 16.0769 18.2734 16V4.61541C18.2734 4.53848 18.2413 4.46797 18.1772 4.40387C18.1131 4.33977 18.0426 4.30771 17.9657 4.30771H9.58109C9.50415 4.30771 9.43364 4.33977 9.36954 4.40387C9.30542 4.46797 9.27336 4.53848 9.27336 4.61541V16C9.27336 16.0769 9.30542 16.1474 9.36954 16.2115C9.43364 16.2757 9.50415 16.3077 9.58109 16.3077Z" fill="#171736"/>
</g>
</svg>
