<svg width="132" height="132" viewBox="0 0 132 132" fill="none" xmlns="http://www.w3.org/2000/svg">
<circle cx="66" cy="66" r="66" fill="#EBEBEB"/>
<path fill-rule="evenodd" clip-rule="evenodd" d="M65.9991 40C54.9534 40 45.9991 48.9543 45.9991 60V72C45.9991 83.0457 54.9534 92 65.9991 92C77.0448 92 85.9991 83.0457 85.9991 72V60C85.9991 48.9543 77.0448 40 65.9991 40ZM65.9991 132C79.1202 132 91.347 128.171 101.623 121.57C99.5203 109.321 88.8482 100 75.9991 100H55.9991C43.15 100 32.4778 109.321 30.375 121.57C40.6512 128.171 52.878 132 65.9991 132Z" fill="#14141F" fill-opacity="0.56"/>
</svg>
