<svg width="20" height="21" viewBox="0 0 20 21" fill="none" xmlns="http://www.w3.org/2000/svg">
<path d="M0 21V18.0001H20V21H0ZM2.50003 15.5V12.4424L11.4346 3.52701L14.4731 6.56541L5.55768 15.5H2.50003ZM4 14.0001H4.9L12.3654 6.56541L11.4346 5.63463L4 13.1001V14.0001ZM15.4827 5.52311L12.4443 2.50393L13.9173 1.03088C14.1006 0.837285 14.3308 0.743051 14.6077 0.748185C14.8846 0.753318 15.1147 0.847551 15.2981 1.03088L16.9365 2.66929C17.1198 2.85262 17.2147 3.08018 17.2211 3.35198C17.2275 3.62378 17.1391 3.85648 16.9557 4.05006L15.4827 5.52311Z" fill="#1C1B1F"/>
</svg>
