<svg width="24" height="24" viewBox="0 0 24 24" fill="none" xmlns="http://www.w3.org/2000/svg">
<mask id="mask0_190_2815" style="mask-type:alpha" maskUnits="userSpaceOnUse" x="0" y="0" width="24" height="24">
<rect width="24" height="24" fill="#D9D9D9"/>
</mask>
<g mask="url(#mask0_190_2815)">
<path d="M9.3 20.5L12.325 17.5H21.5V20.5H9.3ZM4 19H5.225L15.45 8.80001L14.85 8.15001L14.2 7.55001L4 17.775V19ZM2.5 20.5V17.125L15.65 4.00001C15.9333 3.71668 16.2833 3.57501 16.7 3.57501C17.1167 3.57501 17.475 3.71668 17.775 4.00001L19 5.25001C19.2833 5.53335 19.425 5.88335 19.425 6.30001C19.425 6.71668 19.2833 7.06668 19 7.35001L5.875 20.5H2.5ZM15.45 8.80001L14.85 8.15001L14.2 7.55001L15.45 8.80001Z" fill="#642CE8"/>
</g>
</svg>
