<svg width="24" height="24" viewBox="0 0 24 24" fill="none" xmlns="http://www.w3.org/2000/svg">
<rect x="0.5" y="0.5" width="23" height="23" rx="11.5" fill="#FFDA3C"/>
<mask id="mask0_1_4203" style="mask-type:alpha" maskUnits="userSpaceOnUse" x="4" y="4" width="16" height="16">
<rect x="4" y="4" width="16" height="16" fill="#D9D9D9"/>
</mask>
<g mask="url(#mask0_1_4203)">
<path d="M12.0001 14.3833C12.7557 14.3833 13.3972 14.1193 13.9248 13.5913C14.4528 13.0638 14.7168 12.4222 14.7168 11.6667C14.7168 10.9111 14.4528 10.2696 13.9248 9.742C13.3972 9.214 12.7557 8.95 12.0001 8.95C11.2446 8.95 10.603 9.214 10.0754 9.742C9.54745 10.2696 9.28345 10.9111 9.28345 11.6667C9.28345 12.4222 9.54745 13.0638 10.0754 13.5913C10.603 14.1193 11.2446 14.3833 12.0001 14.3833ZM12.0001 13.4667C11.5001 13.4667 11.0752 13.2916 10.7254 12.9413C10.3752 12.5916 10.2001 12.1667 10.2001 11.6667C10.2001 11.1667 10.3752 10.7416 10.7254 10.3913C11.0752 10.0416 11.5001 9.86667 12.0001 9.86667C12.5001 9.86667 12.9252 10.0416 13.2754 10.3913C13.6252 10.7416 13.8001 11.1667 13.8001 11.6667C13.8001 12.1667 13.6252 12.5916 13.2754 12.9413C12.9252 13.2916 12.5001 13.4667 12.0001 13.4667ZM12.0001 16.3333C10.4668 16.3333 9.06967 15.9111 7.80878 15.0667C6.54745 14.2222 5.62234 13.0889 5.03345 11.6667C5.62234 10.2444 6.54745 9.11111 7.80878 8.26667C9.06967 7.42222 10.4668 7 12.0001 7C13.5334 7 14.9308 7.42222 16.1921 8.26667C17.453 9.11111 18.3779 10.2444 18.9668 11.6667C18.3779 13.0889 17.453 14.2222 16.1921 15.0667C14.9308 15.9111 13.5334 16.3333 12.0001 16.3333ZM12.0001 15.3333C13.2557 15.3333 14.4086 15.0027 15.4588 14.3413C16.5086 13.6804 17.3112 12.7889 17.8668 11.6667C17.3112 10.5444 16.5086 9.65267 15.4588 8.99133C14.4086 8.33044 13.2557 8 12.0001 8C10.7446 8 9.59167 8.33044 8.54145 8.99133C7.49167 9.65267 6.689 10.5444 6.13345 11.6667C6.689 12.7889 7.49167 13.6804 8.54145 14.3413C9.59167 15.0027 10.7446 15.3333 12.0001 15.3333Z" fill="#171736"/>
</g>
<rect x="0.5" y="0.5" width="23" height="23" rx="11.5" stroke="black"/>
</svg>
