<svg width="58" height="59" viewBox="0 0 58 59" fill="none" xmlns="http://www.w3.org/2000/svg">
<path d="M14.943 14.3934C14.943 14.2128 14.8894 14.0363 14.7891 13.8862C14.6888 13.7361 14.5462 13.6191 14.3794 13.55C14.2126 13.4809 14.0291 13.4628 13.852 13.498C13.6749 13.5332 13.5122 13.6202 13.3846 13.7479C13.2569 13.8755 13.17 14.0382 13.1347 14.2153C13.0995 14.3924 13.1176 14.5759 13.1867 14.7427C13.2558 14.9095 13.3728 15.0521 13.5229 15.1524C13.673 15.2527 13.8495 15.3063 14.0301 15.3063C14.151 15.3102 14.2715 15.2893 14.3841 15.2449C14.4966 15.2004 14.5989 15.1333 14.6844 15.0477C14.77 14.9621 14.8371 14.8599 14.8816 14.7474C14.9261 14.6348 14.9469 14.5143 14.943 14.3934Z" fill="#FFDA3C"/>
<path d="M20.1922 11.3409C20.0129 11.2508 19.8682 11.1043 19.7806 10.9238C19.6929 10.7433 19.6671 10.539 19.7073 10.3424C19.7485 10.1135 19.8624 9.90392 20.0319 9.74467C20.2014 9.58542 20.4177 9.48491 20.6487 9.458C21.4189 9.28683 22.6456 9.74328 22.503 10.6847L23.3303 10.5991C23.3588 10.3138 23.5015 9.82887 23.8438 9.82887C24.1862 9.82887 24.4714 10.1427 24.557 10.428C24.6426 10.7132 25.2987 10.5135 25.3843 10.2568C25.4699 10 25.9834 10.0856 26.2402 10.1997C26.6173 10.3922 27.0212 10.5268 27.4383 10.5991C28.0374 10.6277 28.9503 10.2853 28.9503 9.57211L28.2942 9.85739C28.7505 10.066 29.1585 10.3672 29.4924 10.7418C29.6635 10.9415 30.2626 10.8273 30.2911 10.5421C30.3197 10.2568 31.204 10.5706 31.4323 10.6276C31.6859 10.6842 31.9489 10.6842 32.2025 10.6276C32.3466 10.6006 32.483 10.5422 32.6019 10.4565L32.9157 10.1997C32.7446 10.2187 32.716 10.2758 32.8301 10.3709C32.8515 10.4297 32.8916 10.4798 32.9443 10.5135C33.0213 10.5964 33.1202 10.6557 33.2295 10.6847C33.4348 10.7419 33.6518 10.7419 33.8571 10.6847C34.3611 10.5335 34.7892 10.1972 35.0553 9.74328L34.2851 9.88592C35.0268 10.8844 36.5673 10.4565 37.5373 10.0571C37.6799 10 37.8511 9.82887 37.737 9.68623C37.6228 9.54359 37.3376 9.60064 37.1949 9.6577C36.5103 9.94298 35.5688 10.2283 35.0553 9.54359C34.8842 9.31536 34.3992 9.48653 34.2851 9.68623C34.171 9.88592 33.9142 10.2568 33.743 10.2283C33.5719 10.1997 33.5719 10 33.5148 9.97151C33.4423 9.88964 33.3553 9.82193 33.2581 9.77181C33.0344 9.69497 32.7899 9.70515 32.5734 9.80034L32.2311 10.0286C32.0599 10.1427 32.0314 10.1427 31.8031 10.0856C31.5749 10.0286 30.9188 9.74328 30.3767 9.85739C29.8347 9.97151 29.4924 10.1712 29.4638 10.6276L30.2626 10.3994C29.8564 9.94446 29.348 9.59246 28.7792 9.37242C28.608 9.31536 28.123 9.42947 28.123 9.6577C28.123 9.88592 27.7807 10.1141 27.4669 10C27.1531 9.88592 26.6681 9.62917 26.2402 9.54359C25.8123 9.458 24.7852 9.68623 24.557 10.3709L25.3843 10.1997C24.8994 8.77333 22.5315 9.20125 22.503 10.6847C22.503 11.0556 23.3018 10.9129 23.3303 10.5991C23.53 9.05861 21.4189 8.71627 20.3349 9.03008C19.6787 9.22978 18.9941 9.68623 18.8799 10.428C18.8171 10.7223 18.8673 11.0295 19.0206 11.2885C19.1739 11.5475 19.419 11.7393 19.7073 11.8258C19.9925 11.9114 20.6772 11.4835 20.1922 11.3409Z" fill="#FFDA3C"/>
<path d="M15.7439 26.7174L15.5442 26.7745H17.6268C17.7123 26.7459 17.7694 26.6889 17.4271 26.6318C16.9835 26.5645 16.5339 26.5454 16.0862 26.5748C15.6298 26.6033 15.316 26.7459 15.5727 26.86H17.5982L17.4841 26.803C17.0562 26.6889 17.0277 26.6604 17.0277 26.6033C17.0277 26.5462 16.9991 26.5748 16.5998 26.5748C16.3399 26.5535 16.0783 26.5825 15.8295 26.6604L15.7439 26.7174Z" fill="#171736"/>
<path d="M21.3048 29.4561L21.048 29.5132H20.7057C20.5453 29.5378 20.3829 29.5474 20.2207 29.5417L19.6216 29.5132L19.2793 29.4276L18.9655 29.3135C18.8523 29.2737 18.7463 29.2159 18.6516 29.1423L18.3378 28.9141C18.2852 28.8803 18.2451 28.8302 18.2237 28.7714L18.1381 28.7144H18.1096V28.6003L18.0526 28.4576C17.9944 28.3784 17.9465 28.2921 17.9099 28.2009C17.8336 28.1144 17.7928 28.0023 17.7958 27.8871L17.6246 26.9171H17.3394L17.1111 26.8601H16.7973C16.6547 26.803 16.5976 26.7459 16.5976 26.6889C16.5976 26.6318 16.5976 26.6889 16.512 26.7459L16.2553 26.8315H15.9985L15.5706 26.8886C15.5797 26.9565 15.5699 27.0256 15.5421 27.0883V27.288L15.485 27.6874V27.8871C15.485 27.9441 15.485 28.0297 15.4565 28.0582L15.3424 28.2865L15.2283 28.5432L15.1712 28.6573L15.0856 28.7714L14.9715 28.9426L14.8289 29.0567L14.7148 29.1423L14.5721 29.2564L14.401 29.3135C14.2923 29.3731 14.1775 29.4209 14.0586 29.4561L13.6307 29.5132C13.4884 29.5275 13.3451 29.5275 13.2028 29.5132H12.6893C12.1273 29.4248 11.6186 29.1298 11.2629 28.6858C11.0716 28.4439 10.9178 28.1747 10.8064 27.8871L10.7494 27.6303L10.6923 27.3736L10.6353 27.1168C10.6337 27.0587 10.6241 27.0011 10.6068 26.9456L15.3139 17.8167H43.2713L43.3284 17.8737L43.5851 18.4158L44.1271 19.5284C44.4695 20.2701 44.8118 20.9833 45.1542 21.6394L47.0085 25.3481L47.2652 25.8616C47.2938 25.8901 47.2938 25.8901 47.2938 25.9186V26.0898C47.2732 26.4149 47.2351 26.7387 47.1796 27.0598C47.0703 27.595 46.8675 28.1068 46.5806 28.5717C46.2292 29.133 45.6953 29.5561 45.0686 29.7699C44.6407 29.9411 44.4124 29.9696 44.441 30.0552C44.4695 30.1408 44.7262 30.1978 45.2112 30.1693C45.518 30.1513 45.8184 30.0738 46.0956 29.9411C46.4971 29.7734 46.8573 29.5203 47.1511 29.1994C47.52 28.79 47.8101 28.3161 48.007 27.8015C48.1359 27.5187 48.2316 27.2219 48.2922 26.9171C48.3437 26.7589 48.3818 26.5967 48.4063 26.4321C48.4063 26.3466 48.4349 26.261 48.4349 26.1754V25.8901C48.4534 25.7754 48.4436 25.6579 48.4063 25.5478L48.2922 25.2625C48.2352 25.0913 48.1496 24.9202 48.0925 24.7775L47.6646 23.7505L46.7517 21.4968L45.6962 19.0434L45.1542 17.7596C45.047 17.5366 44.9517 17.3081 44.8689 17.075C44.6977 16.7326 44.5265 16.3618 44.3554 15.9624L37.4801 15.8197L30.3481 15.7056L22.6741 15.62H13.9731C13.2028 17.075 12.4611 18.5869 11.6908 20.0704L9.72238 23.9787C9.40857 24.6634 9.06624 25.3481 8.7239 26.0327L8.60979 26.261C8.58126 26.318 8.55273 26.3466 8.55273 26.3751V26.5177C8.55273 26.6889 8.58126 26.8601 8.58126 27.0312C8.58126 27.2024 8.66685 27.4877 8.69537 27.6874C8.80481 28.1201 8.95774 28.5407 9.15182 28.9426C9.55067 29.8136 10.2493 30.5122 11.1203 30.911L11.8049 31.1678C12.0215 31.2173 12.2405 31.2553 12.4611 31.2819L13.1172 31.339H13.8019C14.5508 31.2425 15.2601 30.9469 15.8559 30.4831L16.2268 30.1122L16.3694 29.9411L16.4265 29.884L16.512 29.7129C16.5704 29.5879 16.5996 29.4514 16.5976 29.3135C16.5976 29.2279 16.6262 29.1708 16.6262 29.0852V29.0282C16.6262 29.0567 16.5976 29.0567 16.6262 29.0852C16.6255 29.2573 16.6751 29.4259 16.7688 29.5702L16.8829 29.7414L17.0255 29.884C17.1038 29.9766 17.1897 30.0625 17.2823 30.1408C17.624 30.4428 18.0213 30.6754 18.452 30.8254L19.0796 31.0251L19.7072 31.1107H20.9054C21.6886 31.0272 22.4313 30.7202 23.045 30.2264L23.4729 29.8555L23.8152 29.4561C23.8563 29.3762 23.904 29.2998 23.9579 29.2279L24.0434 29.0282C24.1077 28.8426 24.1554 28.6516 24.1861 28.4576C24.2097 28.3645 24.2193 28.2683 24.2146 28.1723V27.9726V28.0297C24.2622 28.3378 24.3585 28.6363 24.4999 28.9141L24.6711 29.2279L24.8422 29.4276L25.099 29.7129C25.2683 29.8975 25.46 30.0604 25.6695 30.1978C25.879 30.3288 26.0984 30.4432 26.3257 30.5402L26.9818 30.7684L27.6665 30.8825H28.2941C28.5037 30.8879 28.7135 30.8784 28.9217 30.854C29.715 30.7624 30.4765 30.489 31.1469 30.0552L31.5748 29.6843C31.6971 29.5584 31.8114 29.425 31.9172 29.2849L32.0598 29.1138C32.0775 29.1005 32.0919 29.0833 32.1018 29.0634C32.1117 29.0436 32.1169 29.0218 32.1169 28.9997C32.1707 28.9277 32.2185 28.8514 32.2595 28.7714C32.4089 28.4182 32.4958 28.0418 32.5163 27.6588V27.8015C32.5393 27.8453 32.5492 27.8948 32.5448 27.9441L32.6304 28.2294L32.8015 28.7429L33.0298 29.1138C33.0298 29.1423 33.0298 29.1423 33.0583 29.1423L33.1153 29.2279L33.2295 29.3705L33.4862 29.6558C33.8291 29.9984 34.2363 30.2698 34.6844 30.4546C34.8836 30.5557 35.0943 30.6323 35.312 30.6828L35.9396 30.7969H37.1378C37.3204 30.7824 37.5016 30.7537 37.6798 30.7113L38.2219 30.5687L38.7354 30.3405C38.9031 30.2729 39.0576 30.1763 39.1918 30.0552C39.48 29.8526 39.7309 29.6017 39.9335 29.3135L40.0191 29.2279V29.1708L40.1047 29.0282C40.1548 28.9384 40.1932 28.8425 40.2188 28.7429C40.401 28.2206 40.488 27.6698 40.4756 27.1168V27.0598V27.1453C40.4711 27.1946 40.481 27.2442 40.5041 27.288C40.5091 27.404 40.5283 27.5189 40.5611 27.6303C40.6465 27.8853 40.7514 28.1332 40.875 28.372L41.1317 28.7714L41.3029 28.9997C41.3621 29.0732 41.429 29.1402 41.5026 29.1994C41.6406 29.3563 41.7935 29.4996 41.959 29.6273C42.1328 29.7593 42.325 29.865 42.5296 29.9411L42.8434 30.0552L43.1001 30.1408L43.5851 30.1978H44.1842C44.4695 30.1693 44.441 30.1122 44.1842 30.0552C43.7491 29.9976 43.3256 29.8724 42.929 29.6843L42.8149 29.6273L42.7293 29.5702L42.5296 29.4276C42.444 29.399 42.3869 29.3135 42.3299 29.2564L42.1302 29.0852L41.9305 28.857L41.8164 28.6858C41.7879 28.6003 41.7308 28.5432 41.7023 28.4576C41.6484 28.3857 41.6007 28.3094 41.5596 28.2294C41.5297 28.122 41.4916 28.0171 41.4455 27.9156C41.3608 27.6736 41.2941 27.4257 41.2458 27.1739L41.0176 27.0598L40.875 26.9456L40.6182 26.6889C40.5601 26.6096 40.5121 26.5234 40.4756 26.4321C40.4756 26.4036 40.447 26.3466 40.447 26.318V26.2324C40.4185 26.2324 40.447 26.2324 40.4185 26.1754V26.2324C40.4216 26.383 40.382 26.5313 40.3044 26.6604C40.2815 26.711 40.241 26.7516 40.1903 26.7745L40.0762 26.8886L39.8765 27.0027L39.7624 27.0598L39.6197 27.1168C39.5912 27.288 39.5341 27.4877 39.5056 27.6874C39.4771 27.8871 39.4771 27.8871 39.4486 27.9441L39.3344 28.1438L39.1633 28.5432L39.1062 28.6288H39.0777L38.9921 28.7144L38.8495 28.8855L38.7068 29.0282L38.5357 29.1423L38.3645 29.2564C37.8171 29.5368 37.2108 29.683 36.5958 29.683C35.9807 29.683 35.3745 29.5368 34.827 29.2564L34.4562 28.9997L34.1423 28.6573L33.9997 28.4862L33.9427 28.4291L33.8571 28.2865L33.743 28.0582C33.6787 27.8913 33.6024 27.7292 33.5147 27.5733L33.3436 26.8886H33.1153L32.9156 26.8315L32.8301 26.7745H32.7445L32.6304 26.7174C32.5357 26.6455 32.4659 26.5457 32.4307 26.4321C32.4021 26.6318 32.3166 26.803 31.5178 27.0027V27.2024C31.5178 27.288 31.4892 27.345 31.4892 27.4021L31.3751 27.6874L31.261 27.9726C31.2405 28.0738 31.2018 28.1705 31.1469 28.2579C31.1099 28.3401 31.0619 28.4169 31.0043 28.4862L30.9187 28.6003L30.7475 28.7714C30.538 28.9988 30.286 29.1829 30.0058 29.3135C29.4181 29.5878 28.7696 29.7057 28.1229 29.6558C27.5293 29.6464 26.9524 29.4575 26.4683 29.1138L26.1545 28.857C26.0524 28.7692 25.957 28.6739 25.8692 28.5717L25.8122 28.4862L25.6695 28.2865L25.5554 28.0868L25.4698 27.83C25.4128 27.6874 25.3272 27.5162 25.2701 27.345V27.2024C25.2416 27.2024 25.2416 27.1739 25.2416 27.1453V27.0598L25.1846 26.6889L24.8422 26.6318L24.6425 26.5748C24.5811 26.5729 24.5216 26.5531 24.4714 26.5177L24.3572 26.4607L24.2431 26.318V26.261V25.5478C24.2431 25.776 24.2717 26.0327 24.2717 26.261C24.2583 26.3154 24.2335 26.3664 24.1991 26.4106C24.1647 26.4548 24.1214 26.4913 24.072 26.5177H23.9579L23.8152 26.5748H23.587L23.3302 26.6318V26.8886L23.2732 27.1168L23.045 27.6874C23.045 27.7444 23.0164 27.83 23.0164 27.8871C23.0164 27.9441 22.9594 27.9726 22.9594 28.0297L22.8167 28.2865L22.7026 28.5147L22.617 28.6573L22.4744 28.8L22.1606 29.0567L21.9038 29.2279L21.4759 29.4276H21.3048V29.4561Z" fill="#171736"/>
<path d="M9.52086 26.8886L13.258 26.8315L22.1588 26.6318L32.9138 26.4321L42.271 26.2324C43.783 26.2039 45.295 26.2324 46.8069 26.1468H46.864C47.3205 26.1468 47.4916 25.5192 46.9211 25.5478L43.1839 25.6048L34.2832 25.8045L23.5281 26.0042L14.1709 26.2039C12.6875 26.2324 11.1755 26.2039 9.6635 26.2895H9.60645C9.12147 26.2895 8.97883 26.9171 9.52086 26.8886Z" fill="#171736"/>
<path d="M12.0044 30.5687L12.2041 35.6182L12.5464 43.6631L12.632 45.4888C12.632 45.6315 12.9173 45.66 13.0029 45.66H40.1615C41.4168 45.66 42.672 45.6885 43.9272 45.66H43.9843C44.2696 45.66 44.8401 45.5174 44.8686 45.1465L44.9257 40.0971L45.0398 32.0522V30.2264C45.0398 29.884 43.8131 30.0837 43.7846 30.5402L43.7561 35.6182L43.6419 43.6631V45.4888L44.5263 44.9753H14.7716C14.3722 44.9753 13.9443 44.9468 13.5449 44.9753H13.4878L13.8587 45.1465L13.659 40.0971L13.3167 32.0522L13.2311 30.2264C13.2311 29.8555 11.9759 30.1123 12.0044 30.5687Z" fill="#171736"/>
<path d="M16.398 38.1571C16.398 38.1571 16.398 37.1586 16.4266 35.504C16.4266 35.1046 16.4266 34.6482 16.4551 34.1632C16.4333 33.9347 16.4429 33.7044 16.4836 33.4785C16.5058 33.2966 16.5858 33.1266 16.7118 32.9935C16.8326 32.8426 16.9896 32.7248 17.1683 32.6512L17.4536 32.5941H23.7297C23.9655 32.5934 24.1948 32.6717 24.3809 32.8165C24.5671 32.9613 24.6994 33.1642 24.7567 33.3929C24.7526 33.4514 24.7624 33.5101 24.7853 33.5641V35.3328C24.8138 38.1 24.8423 40.7817 24.8994 43.0354C24.9228 43.0992 24.9325 43.1672 24.9279 43.2351V43.3777C24.8994 43.4918 24.8994 43.5774 24.8709 43.663C24.8183 43.817 24.7412 43.9615 24.6426 44.0909C24.484 44.2714 24.2898 44.4171 24.0721 44.5188L23.7583 44.6329C23.7297 44.6615 23.7297 44.69 23.8153 44.7185C23.9705 44.7764 24.1394 44.7863 24.3003 44.7471C24.5863 44.6694 24.8438 44.5109 25.042 44.2906C25.1941 44.1594 25.3117 43.9929 25.3844 43.8056C25.4756 43.5887 25.524 43.3563 25.527 43.121C25.5555 42.6645 25.5841 42.151 25.6126 41.609C25.6696 40.4964 25.7267 39.2126 25.7837 37.7862C25.8123 37.073 25.8123 36.3313 25.8408 35.561C25.8693 34.7908 25.8408 34.7623 25.8693 34.3629V33.7638C25.8721 33.6395 25.8625 33.5153 25.8408 33.3929C25.8401 33.2553 25.811 33.1193 25.7552 32.9935C25.5711 32.4588 25.1949 32.0115 24.6997 31.7383C24.4476 31.6194 24.1778 31.5423 23.9009 31.5101H20.5917L17.91 31.5671H17.5677L17.1112 31.6242C16.8232 31.6941 16.5517 31.8201 16.3125 31.995C16.082 32.1718 15.8917 32.3954 15.754 32.6511C15.6163 32.9068 15.5344 33.1888 15.5137 33.4785C15.5707 35.3043 15.5993 36.8733 15.6278 38.2427C15.6563 39.612 15.6848 40.7817 15.7134 41.7802V43.1495C15.7153 43.5947 15.8659 44.0264 16.1413 44.3762C16.3843 44.6629 16.6994 44.8796 17.0542 45.0038L17.5677 45.0609H17.9671C19.6629 45.0962 21.3592 45.02 23.0451 44.8326C25.2132 44.633 21.961 44.5188 18.1382 44.4618H17.4536C17.2674 44.4432 17.0899 44.3742 16.9401 44.2621C16.7839 44.1678 16.6514 44.0392 16.5525 43.8859C16.4536 43.7326 16.391 43.5588 16.3695 43.3777V40.8102C16.3695 39.2412 16.398 38.1571 16.398 38.1571Z" fill="#171736"/>
<path d="M18.5651 19.6139C18.5651 19.6139 17.1673 23.1228 16.7964 25.2053C16.4255 27.2879 18.4796 24.2639 19.0787 20.8976C19.3639 19.2145 19.5922 18.5013 19.7919 18.0448C19.9605 17.693 20.0758 17.318 20.1342 16.9322C20.1912 16.6469 20.0771 16.6469 19.8774 16.8181C19.6264 17.1124 19.4154 17.4385 19.2498 17.7881C19.0658 18.1878 18.9039 18.5973 18.7648 19.0148C18.6507 19.3856 18.5651 19.6139 18.5651 19.6139Z" fill="#171736"/>
<path d="M24.728 22.5237C24.728 22.5237 24.8136 21.725 24.8706 20.698C24.9411 19.6309 24.8933 18.5593 24.728 17.5028C24.5568 16.5899 24.243 16.9037 24.0433 17.7881C23.7579 19.0322 23.7 20.3176 23.8722 21.5823C24.0007 22.4223 24.058 23.2717 24.0433 24.1213C23.9905 24.4639 24.0506 24.8144 24.2145 25.1198C24.3857 25.5762 24.5283 24.9201 24.6139 24.1784C24.6995 23.4366 24.728 22.5237 24.728 22.5237Z" fill="#171736"/>
<path d="M32.3721 22.7235C32.3721 22.7235 31.9727 19.1575 31.2881 17.2746C30.6034 15.3918 30.261 18.8151 31.3166 21.8961C32.3721 24.9772 31.9157 24.806 32.5433 25.6618C33.1709 26.5177 32.3721 22.7235 32.3721 22.7235Z" fill="#171736"/>
<path d="M39.903 22.4667C39.903 22.4667 39.1328 19.129 38.2769 17.3888C37.4211 15.6485 37.4211 18.9863 38.7619 21.7821C40.1027 24.5778 39.6463 24.4922 40.3309 25.234C41.0156 25.9757 39.903 22.4667 39.903 22.4667Z" fill="#171736"/>
<path d="M33.6874 42.2365L33.5733 42.1795C33.5162 42.1224 33.3736 42.0654 33.2595 41.9513C32.8778 41.6712 32.5411 41.3345 32.261 40.9528C31.8255 40.3834 31.5321 39.7184 31.4052 39.0129C31.3488 38.8182 31.32 38.6165 31.3196 38.4138C31.3053 38.1953 31.3053 37.9761 31.3196 37.7576C31.3359 37.3095 31.4225 36.8666 31.5763 36.4454C31.8893 35.5218 32.4764 34.7157 33.2595 34.1346C34.0728 33.5414 35.0488 33.2128 36.0552 33.1932C36.5466 33.1995 37.0353 33.2666 37.5102 33.3929C37.9707 33.5498 38.4112 33.7604 38.8225 34.0205C39.2027 34.2792 39.5479 34.5861 39.8495 34.9334C40.123 35.2698 40.362 35.633 40.5627 36.0174C40.806 36.5365 40.988 37.0822 41.1047 37.6435C41.1617 37.9859 41.2188 38.0429 41.2759 37.9003C41.3174 37.78 41.3461 37.6557 41.3614 37.5294C41.3901 37.2926 41.3901 37.0531 41.3614 36.8162C41.2791 36.065 41.0253 35.3428 40.6197 34.7052C39.9556 33.6586 38.9578 32.8668 37.7877 32.4578C36.6177 32.0488 35.3439 32.0466 34.1724 32.4514C33.4477 32.6929 32.7788 33.0773 32.2055 33.5821C31.6321 34.0868 31.1659 34.7016 30.8346 35.3898C30.4947 36.1091 30.3066 36.8906 30.2821 37.6857C30.2575 38.4809 30.3971 39.2725 30.692 40.0114C31.2323 41.2722 32.189 42.3094 33.4021 42.9497C33.879 43.1924 34.3881 43.3653 34.9141 43.4632C36.0721 43.6773 37.2679 43.5278 38.3375 43.0353C38.8103 42.832 39.252 42.5631 39.6498 42.2365C40.1892 41.7814 40.6267 41.2176 40.9335 40.5819C41.2327 39.9394 41.3792 39.2364 41.3614 38.5279C41.3329 38.1 41.3044 37.9288 41.2473 37.9859C41.1903 38.0429 41.2188 38.0715 41.1903 38.2141C41.1617 38.3567 41.1617 38.4708 41.1047 38.6705C40.9924 39.1743 40.82 39.6628 40.5912 40.1255C40.2795 40.7177 39.864 41.2491 39.3645 41.6945C38.8192 42.1636 38.1759 42.5048 37.4816 42.693C36.8517 42.8726 36.1934 42.9307 35.5417 42.8642C35.0718 42.7971 34.6119 42.6726 34.1724 42.4933L33.8301 42.3221L33.6874 42.2365Z" fill="#171736"/>
<path d="M23.9305 40.0114C23.9305 39.9828 23.8164 40.0114 23.6737 39.8972L23.5881 39.7831C23.5596 39.7546 23.5596 39.6975 23.5311 39.669C23.5026 39.6405 23.5596 39.4693 23.5311 39.4693C23.5026 39.4693 23.5026 39.4693 23.5596 39.4408L23.6737 39.3837C23.7491 39.3691 23.8266 39.3691 23.902 39.3837C23.9528 39.3777 24.0002 39.3547 24.0364 39.3185C24.0726 39.2823 24.0956 39.2349 24.1016 39.184C24.1174 39.142 24.1231 39.0969 24.1181 39.0522C24.1132 39.0076 24.0977 38.9648 24.0731 38.9273C24.012 38.8127 23.9239 38.7148 23.8164 38.642C23.6654 38.5678 23.4996 38.5288 23.3314 38.5279C23.1091 38.5462 22.8988 38.6363 22.7323 38.7846C22.5907 38.9458 22.4927 39.1405 22.4478 39.3503C22.4028 39.56 22.4124 39.7778 22.4756 39.9828C22.5557 40.1828 22.6717 40.3665 22.8179 40.5249C22.9861 40.6587 23.1804 40.7559 23.3884 40.8101C23.6069 40.8438 23.8299 40.8341 24.0446 40.7816C24.2116 40.7151 24.3589 40.6071 24.4725 40.4678C24.627 40.2848 24.7083 40.051 24.7007 39.8117C24.6715 39.6948 24.6333 39.5804 24.5866 39.4693C24.545 39.3987 24.4861 39.3398 24.4155 39.2982C24.3597 39.2444 24.2911 39.2057 24.2163 39.1857C24.1414 39.1658 24.0627 39.1652 23.9875 39.184C23.7878 39.184 23.8164 39.2982 23.902 39.4408C23.9324 39.5263 23.9811 39.6041 24.0446 39.669C24.0637 39.724 24.0734 39.7819 24.0731 39.8402C24.0446 39.9543 23.9019 40.0114 23.9305 40.0114Z" fill="#171736"/>
<path d="M37.7355 37.558C37.7355 37.558 36.737 37.5009 35.4533 37.5009C34.1203 37.4735 32.7869 37.5211 31.4593 37.6436C29.1771 37.9288 32.9713 38.9844 36.5944 38.4709C40.2174 37.9574 39.9607 38.3282 41.0447 37.8432C41.5868 37.615 40.7595 37.558 39.7895 37.5294L37.7355 37.558Z" fill="#171736"/>
<path d="M36.8243 39.8973C36.8243 39.8973 36.8243 38.8418 36.7387 37.5295C36.6404 36.1643 36.4305 34.8094 36.1111 33.4785C35.7973 32.3659 35.5405 32.7938 35.4549 33.9635C35.4011 35.5806 35.5351 37.1985 35.8543 38.7847C36.0973 39.8358 36.2594 40.904 36.3393 41.9798C36.3276 42.4247 36.4255 42.8656 36.6246 43.2636C36.8528 43.8056 36.9099 42.9498 36.9099 41.9798C36.9099 41.0099 36.8243 39.8973 36.8243 39.8973Z" fill="#171736"/>
<path d="M21.7344 13.138C21.7564 13.0543 21.766 12.9678 21.7629 12.8813C21.7774 12.7772 21.7774 12.6716 21.7629 12.5675C21.7488 12.4282 21.6886 12.2977 21.5917 12.1966C21.4946 12.1156 21.3753 12.0659 21.2494 12.054H18.5963L18.1684 12.111C18.0557 12.1602 17.9559 12.2346 17.8768 12.3286C17.7976 12.4227 17.7412 12.5337 17.7119 12.653C17.6976 12.8049 17.6976 12.9577 17.7119 13.1095V13.3662C17.7405 13.6515 17.7405 13.9653 17.769 14.2506C17.7932 14.7861 17.8504 15.3197 17.9402 15.8482C18.1399 17.0464 18.4537 16.647 18.6248 15.4488C18.7485 14.6945 18.8058 13.9308 18.796 13.1665C18.8245 13.138 18.8245 13.1665 18.8245 13.1665H18.8816L19.2239 13.1095L20.6788 12.9098H20.9356C20.9641 12.9098 20.9641 12.9669 20.9641 12.9954C20.9745 13.007 20.9823 13.0205 20.9872 13.0352C20.9921 13.0499 20.994 13.0655 20.9927 13.081C21.0155 13.2416 21.0251 13.4038 21.0212 13.5659C21.0497 13.8797 21.0497 14.1365 21.0497 14.3647V15.3632C21.0239 15.7981 21.082 16.234 21.2209 16.647C21.6203 17.8451 21.7344 13.138 21.7344 13.138Z" fill="#171736"/>
<path d="M10.3223 27.345C10.2101 27.3731 10.1056 27.4262 10.0167 27.5003C9.92784 27.5744 9.85678 27.6676 9.80883 27.7729C9.66619 28.1723 10.2653 28.1152 10.465 28.0011L11.5205 27.345H10.8644C10.9785 27.4306 10.7503 27.6017 10.6932 27.6873C10.5783 27.852 10.4735 28.0235 10.3794 28.2008C10.2434 28.555 10.204 28.939 10.2653 29.3134C10.2938 29.4846 10.522 29.5131 10.6361 29.5131C11.2352 29.4846 11.549 28.9425 11.8914 28.5432L13.1181 27.1168L12.3478 27.0312C12.3763 27.6303 12.0055 28.0582 11.7773 28.5717C11.549 29.0852 11.2923 29.8269 11.8914 29.941C12.4905 30.0551 12.9754 29.2278 13.2607 28.7714C13.546 28.3149 13.9454 27.6873 14.4874 27.3165L13.7742 27.1738L13.2322 30.1407C13.1751 30.5401 13.8598 30.3975 14.0024 30.2263C14.7027 29.3372 15.3142 28.3817 15.8282 27.3735H15.0009C14.9745 28.1968 14.7701 29.0046 14.4018 29.7413C14.3882 29.771 14.3812 29.8033 14.3811 29.836C14.3811 29.8687 14.3881 29.901 14.4016 29.9308C14.4151 29.9605 14.4349 29.987 14.4595 30.0085C14.4842 30.0299 14.5131 30.0458 14.5445 30.0551C15.1721 30.1978 15.4574 29.7699 15.7427 29.2849L16.7126 27.7158C16.8267 27.5447 16.627 27.402 16.4559 27.3735C16.3509 27.3649 16.2456 27.3841 16.1504 27.4292C16.0552 27.4742 15.9736 27.5436 15.9138 27.6303L15.3147 28.6287L15.0295 29.0567L14.8012 29.5131H15.0295L15.1721 29.8269C15.5649 29.0439 15.7977 28.1905 15.8568 27.3165C15.8568 26.8885 15.1721 27.0597 15.0295 27.2879C14.5538 28.2479 13.9802 29.1561 13.3178 29.9981L14.0595 30.0837L14.6301 27.1168C14.6871 26.7459 14.088 26.86 13.9169 26.9741C13.492 27.2999 13.1254 27.6954 12.8328 28.1438L12.4049 28.7999C12.3357 28.9093 12.2594 29.0142 12.1767 29.1137L12.034 29.3134C11.977 29.3705 11.8914 29.4275 12.0055 29.399H12.3193C12.4334 29.456 12.3763 29.2564 12.3763 29.1708L12.4619 28.8855C12.5548 28.6614 12.6596 28.4423 12.7757 28.2293C13.0221 27.8558 13.1604 27.4214 13.1751 26.9741C13.1751 26.6032 12.6046 26.6888 12.4334 26.8885L11.5205 27.9726L11.0641 28.4861L10.8644 28.7143C10.8358 28.7714 10.6647 28.914 10.7217 28.914L11.0926 29.1137C11.055 28.8987 11.0635 28.6781 11.1176 28.4666C11.1717 28.2551 11.2702 28.0576 11.4064 27.887C11.6061 27.6588 11.9199 27.2594 11.6346 26.9741C11.5403 26.9024 11.4251 26.8636 11.3065 26.8636C11.188 26.8636 11.0728 26.9024 10.9785 26.9741L9.92294 27.6303L10.6076 27.8585H10.465C10.6076 27.83 10.8644 27.6873 10.8073 27.4876C10.7503 27.2879 10.465 27.2879 10.3223 27.3165V27.345Z" fill="#171736"/>
<path d="M18.5343 26.7459C18.2053 27.0963 17.95 27.5091 17.7834 27.9599C17.6168 28.4107 17.5423 28.8904 17.5643 29.3705C17.5643 29.4846 17.764 29.4846 17.8211 29.4846C18.6484 29.4275 19.0763 28.8855 19.5898 28.2864C20.1022 27.6313 20.7077 27.0546 21.3871 26.5747H20.6739C19.9026 27.5951 19.2784 28.7186 18.8195 29.9125C18.8195 29.9696 18.8766 29.9981 18.9051 30.0266C19.0746 30.0796 19.2555 30.0837 19.4272 30.0382C19.5988 29.9928 19.7541 29.8998 19.8751 29.7699C20.2015 29.4277 20.5064 29.0657 20.788 28.6858L22.6138 26.4891L21.815 26.5462C21.2444 27.7444 20.6739 28.9711 20.6739 30.3119C20.6453 30.5401 21.3871 30.2834 21.4441 30.1693L23.9261 26.4036L23.1273 26.4891C22.7458 27.4942 22.4313 28.5235 22.1858 29.5702C22.1288 29.8554 22.899 29.6557 22.9846 29.5131L24.3254 27.3165C24.5251 27.0312 23.6978 27.1453 23.5837 27.345L22.2144 29.5131L23.0132 29.4561C23.2401 28.3952 23.555 27.3551 23.9546 26.3465C24.0402 26.0897 23.2414 26.2609 23.1558 26.4036L20.7024 30.1693L21.5012 30.0551C21.5012 28.7429 22.0717 27.5447 22.6423 26.4036C22.6994 26.2609 22.3855 26.2609 22.3285 26.2609C22.1523 26.2844 21.9852 26.3532 21.8435 26.4606L20.4742 28.1438L19.818 28.914L19.4757 29.3419L19.3045 29.5702L19.2189 29.6557C19.1334 29.7413 19.1904 29.7413 19.3616 29.6557H19.5898L19.6469 29.7699C20.1044 28.6223 20.7085 27.5387 21.4441 26.5462C21.5297 26.4321 21.3871 26.375 21.273 26.375C21.0806 26.3499 20.886 26.4011 20.7309 26.5177C20.2094 26.8915 19.731 27.3221 19.3045 27.8014C19.0889 28.0152 18.8887 28.244 18.7054 28.4861C18.5913 28.6287 18.2775 29.0852 18.1634 29.1137L18.3916 29.1993C18.3603 28.2983 18.677 27.4197 19.276 26.7459C19.4186 26.6033 19.1619 26.5747 19.0763 26.5747C18.9772 26.5701 18.8781 26.5853 18.785 26.6196C18.6919 26.6539 18.6067 26.7066 18.5343 26.7744V26.7459Z" fill="#171736"/>
<path d="M25.5577 26.7744C25.6718 27.2024 26.4135 27.0312 26.6417 26.8315C26.8699 26.6318 26.5847 26.2039 26.2138 26.2609C25.8429 26.318 25.4435 26.8315 25.1868 27.3165C24.8438 27.9015 24.7034 28.5834 24.7874 29.2564C24.8445 29.5131 25.5006 29.2278 25.5862 29.1423L26.8414 27.6017C27.1838 27.1738 27.5546 26.6033 28.0681 26.375L27.5261 26.2324C26.7005 27.2025 26.1751 28.3921 26.0141 29.6558C25.9856 29.6843 26.0141 29.7128 26.0426 29.7413C26.7558 30.2263 27.412 29.0281 27.7543 28.6002L29.5516 26.2039H28.8099C28.0493 27.4182 27.4905 28.7477 27.1552 30.1407C27.0982 30.4545 27.8684 30.2263 27.954 30.0837L30.6642 26.318L29.8654 26.4036C29.1831 27.6902 28.7476 29.0932 28.5816 30.5401C28.5531 30.8254 29.2948 30.6257 29.3804 30.4545C30.1585 29.0712 31.0356 27.7459 32.005 26.4892L31.2062 26.5747L29.9224 29.8555C29.8654 30.0266 30.1507 30.0266 30.2363 29.9981C30.3267 30.0018 30.4169 29.9858 30.5006 29.9513C30.5843 29.9169 30.6596 29.8647 30.7212 29.7984C31.5485 28.914 32.4044 28.0582 33.3173 27.2594C33.4599 27.1453 33.4029 27.0597 33.2602 27.0027C33.1539 26.9879 33.0458 26.9955 32.9426 27.025C32.8394 27.0544 32.7436 27.1051 32.6611 27.1738C31.7197 28.0011 30.8068 28.8855 29.951 29.7984L30.7498 29.7413L32.0335 26.4606C32.1476 26.2039 31.3203 26.4036 31.2347 26.5462C30.2589 27.7983 29.3815 29.1241 28.6102 30.5116L29.4089 30.426C29.5654 28.9862 30.0015 27.5907 30.6927 26.318C30.7498 26.1753 30.4359 26.1468 30.3789 26.1468C30.3218 26.1468 29.9795 26.2324 29.8939 26.375L27.1838 30.1407L27.9825 30.0552C28.3064 28.699 28.8355 27.4003 29.5516 26.2039C29.7513 25.9186 28.924 26.0612 28.8099 26.2324L27.4976 27.9156L26.8985 28.7143L26.5561 29.1708L26.385 29.399C26.2138 29.5702 26.2709 29.5702 26.5276 29.4275H26.8699C26.7558 29.3705 26.9841 28.6858 27.0126 28.5717C27.0411 28.4576 27.1838 28.0297 27.2979 27.7729C27.5453 27.2002 27.8823 26.6706 28.2963 26.2039C28.5246 25.9471 27.8399 26.0042 27.7543 26.0612C27.2046 26.3629 26.7199 26.77 26.3279 27.2594C25.8429 27.887 25.3294 28.4861 24.8159 29.1137L25.6147 28.9996C25.5407 28.4904 25.6307 27.9709 25.8715 27.5162C25.9661 27.2554 26.0905 27.0065 26.2423 26.7744C26.2962 26.7025 26.3439 26.6262 26.385 26.5462C26.4706 26.4036 26.3279 26.4321 25.9856 26.6888C26.3279 26.7459 26.4706 26.6888 26.385 26.5177C26.2994 26.3465 25.5006 26.4606 25.5577 26.7459V26.7744Z" fill="#171736"/>
<path d="M33.5405 27.8584C33.9693 27.2679 34.4782 26.7398 35.0525 26.2894L34.2822 26.4035C33.7246 27.3111 33.4468 28.3629 33.4834 29.4275C33.4834 29.5986 34.1966 29.3419 34.2537 29.2848C35.1951 28.4575 35.4804 27.1167 36.4789 26.3464L35.7086 26.4605L34.3963 30.0551C34.3393 30.2262 34.9954 30.0265 35.0525 29.998C35.7086 29.7127 36.0224 28.9995 36.4218 28.429L37.8767 26.2323L37.078 26.4035C36.4427 27.6453 35.9545 28.9569 35.623 30.3118C35.566 30.5115 36.3362 30.2833 36.4218 30.1692C37.4362 28.8925 38.3337 27.5272 39.1034 26.0897L38.3047 26.2609C37.7606 27.4753 37.3585 28.7484 37.1065 30.0551C37.078 30.1692 37.8482 29.9695 37.9338 29.8554L40.3301 26.1467L39.5028 26.3179C39.3756 27.2888 39.024 28.2167 38.4758 29.0281C38.3902 29.1422 38.7896 29.0851 38.7896 29.0851C38.9758 29.0666 39.1534 28.9975 39.3031 28.8854C39.8525 28.0432 40.2037 27.0873 40.3301 26.0897C40.3587 25.9756 39.5884 26.1753 39.5314 26.2894L37.1065 29.998L37.9338 29.8268C38.1935 28.5441 38.5855 27.2917 39.1034 26.0897C39.1605 25.9756 38.3902 26.0612 38.3047 26.2609C37.5313 27.6872 36.6339 29.0427 35.623 30.3118L36.4218 30.1692C36.7612 28.8076 37.2491 27.4874 37.8767 26.2323C37.9623 26.1182 37.5915 26.1753 37.5629 26.1753C37.5344 26.1753 37.1635 26.2609 37.078 26.4035L35.8227 28.2578L35.2236 29.1422C35.0525 29.3704 34.8528 29.7983 34.5675 29.9124H35.2236L36.5074 26.3464C36.593 26.1467 35.7942 26.4035 35.7371 26.4605C34.7101 27.2308 34.4534 28.5716 33.512 29.3989L34.3107 29.2563C34.2729 28.2006 34.551 27.1576 35.1095 26.2609C35.1666 26.1467 34.8528 26.2038 34.8242 26.2038C34.6445 26.2307 34.4707 26.2886 34.3107 26.375C33.7216 26.8689 33.1862 27.4235 32.7132 28.0296C32.6276 28.1437 33.027 28.1152 33.0555 28.0866C33.235 28.0766 33.4059 28.0062 33.5405 27.8869V27.8584Z" fill="#171736"/>
<path d="M42.4724 27.7444C42.6777 27.2221 42.9997 26.7537 43.4138 26.375L42.615 26.4606C42.173 27.5962 41.8851 28.786 41.7592 29.9981C41.7592 30.1978 42.5294 29.941 42.5865 29.7984C43.2126 28.5503 43.9578 27.3657 44.8117 26.2609L44.0129 26.3465C43.5279 27.5732 43.0144 28.7999 42.8432 30.1122C42.8147 30.3975 43.585 30.1407 43.6706 29.9981C44.4123 28.6573 45.1825 27.3735 46.0384 26.0897L45.2111 26.2324C44.6976 27.5637 44.2126 28.9045 43.7561 30.2548C43.6706 30.483 44.4123 30.2548 44.4979 30.1978C45.1255 29.7984 45.4964 29.0567 45.8957 28.429L47.3507 26.1468L46.5234 26.2609C46.2604 27.3059 45.9365 28.3347 45.5534 29.3419C45.4964 29.456 45.7246 29.456 45.7816 29.456C46.7231 29.4275 47.0369 28.4861 47.4363 27.7729C47.8356 27.0597 48.3206 26.2324 49.0623 25.6903C49.205 25.6048 49.1479 25.5192 49.0053 25.4907C48.7922 25.4803 48.5816 25.5404 48.4062 25.6618C47.8254 26.0817 47.3474 26.6279 47.0083 27.2594L46.4378 28.2293L46.1525 28.7143C46.1159 28.8056 46.068 28.8918 46.0099 28.9711L45.9243 29.0852C45.8102 29.1993 45.8672 29.1993 46.124 29.0852L46.3807 29.1993C46.7516 28.2008 47.0654 27.1738 47.3507 26.1468C47.4077 25.89 46.6375 26.1183 46.5234 26.2609L45.2111 28.3435C44.8117 28.9425 44.4693 29.7413 43.8417 30.1407H44.5835C45.0399 28.8094 45.5249 27.4686 46.0384 26.1183C46.0954 25.9756 45.7531 26.0042 45.696 26.0042C45.5075 26.0246 45.334 26.1165 45.2111 26.2609C44.3838 27.5161 43.585 28.8284 42.8432 30.1407L43.6706 30.0266C43.8417 28.6858 44.3267 27.4591 44.8402 26.2324C44.9258 26.0327 44.1555 26.2039 44.0414 26.318C43.1773 27.4618 42.4227 28.6844 41.7877 29.9695L42.5865 29.7984C42.7264 28.6165 43.0139 27.4568 43.4423 26.3465C43.5279 26.0897 42.7291 26.3465 42.6721 26.4321C42.2233 26.8437 41.8724 27.3506 41.6451 27.9155C41.5595 28.0867 42.3583 28.0011 42.4724 27.7729V27.7444Z" fill="#171736"/>
<path d="M12.118 46.3732C11.3762 46.5444 11.3192 47.6284 11.3192 47.6284C11.2916 47.9158 11.3501 48.2048 11.4872 48.4588C11.6244 48.7128 11.834 48.9203 12.0894 49.0548C12.453 49.1989 12.8395 49.2762 13.2305 49.283L16.1689 49.4827C16.8813 49.5638 17.6015 49.5446 18.3085 49.4257C18.4801 49.3556 18.6657 49.3263 18.8506 49.3401C19.0298 49.4084 19.2019 49.4944 19.3641 49.5969C20.6193 50.3101 22.1313 49.5398 23.5577 49.4827C24.9841 49.4257 25.5832 49.7395 26.5816 49.6824C28.3504 49.5683 30.005 48.3416 31.7167 48.7695C32.1446 48.8837 32.544 49.0834 32.9719 49.1975C34.6836 49.6824 36.4523 48.6269 38.2211 48.4843C39.9898 48.3416 41.1309 48.7695 42.5573 48.5413C42.9496 48.4426 43.3512 48.3852 43.7555 48.3701L44.6399 48.4272C44.9863 48.4377 45.3285 48.3493 45.6265 48.1725C45.9246 47.9957 46.1661 47.7377 46.323 47.4287C47.0362 47.8566 47.9776 47.4573 48.5482 46.8582C48.6964 46.7304 48.8162 46.573 48.8997 46.3961C48.9832 46.2192 49.0287 46.0268 49.0332 45.8312C49.0332 45.4318 48.6908 45.0324 48.32 45.0894C48.4207 44.9444 48.4911 44.7806 48.5271 44.6077C48.563 44.4348 48.5637 44.2565 48.529 44.0834C48.4944 43.9102 48.4252 43.7459 48.3255 43.6001C48.2259 43.4544 48.0979 43.3302 47.9491 43.2351C47.7921 43.1582 47.6213 43.1133 47.4468 43.1033C47.2722 43.0933 47.0974 43.1182 46.9327 43.1767C46.7679 43.2352 46.6165 43.326 46.4873 43.4438C46.3581 43.5616 46.2538 43.704 46.1804 43.8627C46.1233 43.4063 45.4386 43.2922 45.0678 43.5774C44.6969 43.8627 44.6113 44.3477 44.5258 44.8041C44.4044 44.6938 44.2548 44.6193 44.0936 44.5891C43.9324 44.5588 43.7659 44.574 43.6129 44.633C43.5558 43.7486 42.6714 43.0069 41.7871 43.0069C41.3325 43.0218 40.8924 43.1704 40.5219 43.4343C40.1515 43.6982 39.8671 44.0656 39.7045 44.4903C39.5251 44.4096 39.3239 44.391 39.1327 44.4375C38.9415 44.4841 38.7713 44.593 38.649 44.7471C38.583 44.3766 38.3906 44.0404 38.1045 43.7959C37.8183 43.5513 37.4562 43.4137 37.0799 43.4063C36.7035 43.4236 36.3454 43.5733 36.0687 43.8291C35.792 44.0849 35.6147 44.4303 35.568 44.8041C35.4874 44.7395 35.3942 44.6924 35.2943 44.6658C35.1944 44.6393 35.0901 44.6339 34.9881 44.65C34.886 44.6661 34.7884 44.7034 34.7016 44.7594C34.6148 44.8154 34.5406 44.889 34.4839 44.9753C34.1682 44.515 33.7489 44.1353 33.2597 43.8666C32.7705 43.598 32.225 43.4479 31.6672 43.4284C31.1094 43.409 30.5549 43.5208 30.0482 43.7548C29.5414 43.9888 29.0967 44.3384 28.7498 44.7756C28.6739 44.721 28.5867 44.6839 28.4947 44.6673C28.4026 44.6506 28.308 44.6548 28.2178 44.6794C28.1276 44.704 28.044 44.7484 27.9731 44.8095C27.9023 44.8706 27.846 44.9467 27.8083 45.0324C27.466 43.9483 26.2393 43.3778 25.0982 43.4633C23.9571 43.5489 22.9871 44.1765 22.0742 44.8041C21.9968 44.5399 21.8657 44.2946 21.6889 44.0835C21.5122 43.8724 21.2937 43.7001 21.0472 43.5774C20.8028 43.4615 20.5239 43.4411 20.2653 43.5203C20.0067 43.5995 19.787 43.7725 19.6493 44.0054C19.5993 43.8905 19.523 43.7889 19.4265 43.709C19.33 43.629 19.2161 43.5729 19.0939 43.5451C18.9717 43.5174 18.8447 43.5187 18.7231 43.5491C18.6016 43.5795 18.4889 43.6381 18.3941 43.7201C18.0232 42.9213 17.2815 42.2366 16.3971 42.2081C15.5128 42.1796 14.6855 43.1781 15.0563 43.9768C14.9663 43.8638 14.8367 43.7891 14.6937 43.768C14.5507 43.7468 14.405 43.7807 14.2861 43.8627C14.2226 43.9005 14.1675 43.9509 14.1242 44.0108C14.0808 44.0707 14.0502 44.1388 14.0342 44.2109C14.0182 44.283 14.0171 44.3577 14.0309 44.4303C14.0448 44.5029 14.0734 44.5718 14.1149 44.633C13.8745 44.3964 13.5553 44.2568 13.2184 44.241C12.8815 44.2252 12.5506 44.3343 12.2891 44.5474C11.7756 44.9753 12.7741 46.202 12.118 46.3732Z" fill="#FFDA3C"/>
<path d="M12.0604 46.145C11.717 46.2549 11.418 46.4723 11.2074 46.7651C10.9968 47.0578 10.8858 47.4105 10.8908 47.7711C10.8894 48.0401 10.9536 48.3054 11.0779 48.544C11.2022 48.7826 11.3827 48.9873 11.604 49.1404C12.146 49.5113 12.8592 49.5113 13.4868 49.5683L15.8547 49.711C16.5848 49.8016 17.3238 49.792 18.0513 49.6824C18.2265 49.6263 18.4093 49.5975 18.5933 49.5969C18.736 49.5969 18.9071 49.7395 19.0498 49.7965C19.3225 49.9552 19.6224 50.0616 19.9342 50.1104C20.5937 50.1623 21.2574 50.1142 21.9026 49.9677C22.5916 49.7904 23.3027 49.7135 24.0137 49.7395C24.7269 49.768 25.4401 49.9392 26.1818 49.9392C27.5226 49.9392 28.7208 49.3116 30.0045 49.0263C30.6599 48.8725 31.3466 48.9223 31.973 49.1689C32.5767 49.4295 33.2268 49.5654 33.8843 49.5683C35.2822 49.5398 36.5374 48.9122 37.9068 48.741C39.2761 48.5698 41.159 49.0548 42.8136 48.7125C43.2354 48.6222 43.6693 48.603 44.0974 48.6554C44.45 48.6941 44.8065 48.6748 45.1529 48.5984C45.805 48.4378 46.3683 48.0282 46.7219 47.4573L46.0087 47.6284C46.9216 48.1419 48.1198 47.6855 48.833 47.0008C49.5462 46.3161 49.5462 46.145 49.4321 45.6315C49.3969 45.4046 49.2775 45.1994 49.0977 45.0567C48.918 44.9139 48.6911 44.8441 48.4622 44.8612L48.6904 45.118C48.8197 44.9438 48.9076 44.7425 48.9474 44.5293C48.9872 44.3162 48.9778 44.0967 48.9201 43.8877C48.8623 43.6786 48.7576 43.4855 48.614 43.323C48.4704 43.1605 48.2916 43.0329 48.0913 42.9498C47.6498 42.8045 47.1709 42.8224 46.7415 43.0004C46.3122 43.1784 45.9611 43.5047 45.752 43.9198L46.5793 43.7771C46.4652 43.1781 45.6949 43.121 45.2385 43.2351C44.782 43.3492 44.24 44.1765 44.0974 44.8612L44.8962 44.633C44.6948 44.4808 44.4567 44.3848 44.2061 44.3547C43.9555 44.3246 43.7014 44.3616 43.4698 44.4618L44.0403 44.5189C43.8977 43.4633 42.8707 42.7501 41.8437 42.7787C41.2992 42.799 40.7717 42.9733 40.3223 43.2813C39.8729 43.5893 39.5201 44.0184 39.3047 44.5189L40.0464 44.2621C39.7366 44.1418 39.3969 44.1211 39.0748 44.2029C38.7526 44.2847 38.464 44.465 38.2491 44.7186L39.0479 44.633C38.7056 42.5219 35.4249 42.8642 35.1396 44.8612L35.9384 44.633C35.6544 44.4331 35.3029 44.3539 34.9606 44.4127C34.6184 44.4715 34.3135 44.6636 34.1126 44.9468L34.8828 44.8041C33.3138 42.6075 30.0045 42.7501 28.3499 44.7756L29.0916 44.5759C28.8085 44.4235 28.4784 44.3828 28.1667 44.4621C27.855 44.5413 27.5845 44.7347 27.4085 45.0038L28.2073 44.9183C27.8364 43.8342 26.6953 43.2636 25.6112 43.2351C24.5272 43.2066 22.9296 43.9198 21.817 44.69H22.4731C22.2449 44.0339 21.7885 43.4063 21.0467 43.2636C20.305 43.121 19.5918 43.3777 19.2495 43.9768L20.0483 43.8913C19.7059 43.121 18.6219 43.1495 18.0798 43.663L18.8216 43.606C18.3366 42.636 17.3952 41.8372 16.2255 42.0084C15.0559 42.1796 14.2286 43.0639 14.6565 44.0909L15.4553 43.8057C14.8276 43.121 13.2016 43.7771 13.7151 44.7471L14.4853 44.4618C14.1332 44.1408 13.6724 43.9652 13.1959 43.9705C12.7195 43.9758 12.2627 44.1616 11.9178 44.4903C11.8122 44.6146 11.7429 44.7656 11.7178 44.9267C11.6926 45.0878 11.7125 45.2527 11.7752 45.4032L11.8893 45.8597C11.9178 45.9453 11.9178 46.0309 11.9463 46.1164C11.9748 46.202 11.7752 46.2305 12.0604 46.145C12.3457 46.0594 11.661 46.2876 11.7181 46.4873C11.7752 46.687 12.0604 46.6014 12.1745 46.5729C12.2887 46.5444 12.7166 46.3732 12.7736 46.0594C12.7676 45.8059 12.7194 45.5553 12.631 45.3177C12.5739 45.118 12.4598 44.7756 12.6025 44.6045C12.7451 44.4333 13.4868 44.5759 13.7436 44.8041C14.0003 45.0324 14.6565 44.7756 14.5424 44.5189C14.4999 44.4625 14.4703 44.3976 14.4555 44.3286C14.4407 44.2596 14.4411 44.1883 14.4568 44.1195C14.5138 43.9483 14.5709 44.0054 14.685 44.148C14.7991 44.2906 15.5979 44.148 15.4838 43.8627C15.3697 43.5774 15.6264 42.4649 16.3111 42.4649C16.9958 42.4649 17.6804 43.2066 17.9943 43.8342C18.3081 44.4618 18.5933 43.9483 18.736 43.8057C18.8786 43.663 19.1639 43.9768 19.221 44.1195C19.278 44.2621 19.9056 44.2051 20.0197 44.0054C20.1339 43.8057 20.5903 43.663 20.9041 43.8627C21.2554 44.1286 21.5148 44.4976 21.6458 44.9183C21.7314 45.1465 22.1879 45.0324 22.3305 44.9468C23.1863 44.3477 24.1848 43.663 25.2974 43.7201C26.41 43.7771 27.0947 44.2621 27.38 45.1465C27.4941 45.4032 28.0932 45.2321 28.2073 45.0324C28.3214 44.8327 28.2643 44.8897 28.4355 44.9753C28.6067 45.0609 29.0061 44.9468 29.1487 44.8041C29.4469 44.4158 29.8391 44.1099 30.2883 43.9152C30.7376 43.7206 31.229 43.6436 31.7162 43.6916C32.1967 43.7476 32.6595 43.9066 33.0731 44.1577C33.4866 44.4088 33.8411 44.746 34.1126 45.1465C34.2552 45.3462 34.7687 45.1465 34.8828 44.9753C34.9969 44.8041 35.054 44.8612 35.1966 44.9753C35.3393 45.0894 35.9384 45.0324 35.9669 44.7471C35.9954 44.4618 36.4519 43.5774 37.0795 43.6345C37.3729 43.6964 37.6401 43.8475 37.8443 44.0671C38.0486 44.2867 38.18 44.5641 38.2206 44.8612C38.2777 45.175 38.9338 44.8897 39.0194 44.7471C39.0668 44.6989 39.1285 44.6673 39.1954 44.657C39.2622 44.6467 39.3305 44.6583 39.3902 44.69C39.5247 44.7379 39.6714 44.7386 39.8062 44.6919C39.941 44.6452 40.0559 44.554 40.132 44.4333C40.4173 43.7771 41.0734 43.1495 41.8151 43.2636C42.1764 43.3284 42.5073 43.5075 42.7589 43.7746C43.0106 44.0417 43.1698 44.3826 43.213 44.7471C43.2415 44.9753 43.698 44.8612 43.7836 44.8041C43.8504 44.8017 43.9168 44.8161 43.9766 44.8461C44.0364 44.876 44.0877 44.9204 44.1259 44.9753C44.3256 45.118 44.8676 45.0324 44.9247 44.7471C44.9817 44.4618 45.0673 43.9483 45.3241 43.7201C45.5808 43.4919 45.4097 43.6345 45.5238 43.6916C45.5849 43.7127 45.6387 43.7507 45.6791 43.8012C45.7195 43.8517 45.7448 43.9126 45.752 43.9768C45.809 44.3192 46.4937 44.0054 46.5793 43.8342C46.6162 43.7113 46.6855 43.6006 46.78 43.5138C46.8745 43.427 46.9907 43.3674 47.1163 43.3411C47.2419 43.3148 47.3723 43.3229 47.4936 43.3645C47.615 43.4061 47.7229 43.4796 47.806 43.5774C47.9965 43.7777 48.1119 44.0375 48.1327 44.3131C48.1535 44.5886 48.0784 44.8629 47.9201 45.0894C47.806 45.2321 48.0342 45.3462 48.1483 45.3462C48.2625 45.3462 48.6333 45.717 48.6333 46.0023C48.5695 46.3329 48.3992 46.6335 48.1483 46.8582C47.749 47.2576 47.2069 47.5143 46.6649 47.229C46.5408 47.1775 46.4031 47.1692 46.2737 47.2055C46.1444 47.2417 46.031 47.3203 45.9517 47.4287C45.8259 47.6724 45.6325 47.8747 45.3947 48.0113C45.1569 48.1479 44.8848 48.2131 44.6109 48.199L43.6694 48.1134C43.2986 48.1419 42.9562 48.256 42.5854 48.3131C41.2731 48.5413 39.9323 48.1419 38.5915 48.2275C37.2506 48.3131 36.1381 48.7695 34.9114 48.9978C34.2864 49.1268 33.6391 49.0974 33.0285 48.9122C32.4844 48.674 31.9073 48.5201 31.3168 48.4557C30.1472 48.3701 29.0346 48.8551 27.9505 49.1975C27.3513 49.385 26.723 49.4624 26.0962 49.4257C25.4115 49.3972 24.7269 49.2545 24.0707 49.226C23.4563 49.244 22.8449 49.3205 22.2449 49.4542C21.6399 49.6099 21.0139 49.6677 20.3906 49.6254C19.7915 49.5398 19.3636 49.0548 18.736 49.1119L17.8231 49.2545C17.4535 49.2972 17.0801 49.2972 16.7105 49.2545L14.3712 49.1119C13.7151 49.0548 12.7736 49.1689 12.2316 48.7125C12.0495 48.5627 11.9092 48.3685 11.8243 48.1486C11.7393 47.9286 11.7126 47.6905 11.7466 47.4573C11.7752 47.2005 11.8893 46.6585 12.1745 46.5729C12.4598 46.4873 12.5739 46.4302 12.5454 46.2591C12.5169 46.0879 12.1745 46.1164 12.0604 46.145Z" fill="#FFDA3C"/>
<path d="M13.2889 45.4603L13.1747 45.5459C13.0951 45.6255 13.0363 45.7235 13.0036 45.8312C12.9789 45.9619 12.9841 46.0964 13.0187 46.2249C13.0533 46.3533 13.1164 46.4722 13.2033 46.5729C13.3744 46.7155 13.3744 46.6014 13.3174 46.4303C13.2647 46.2059 13.2551 45.9736 13.2889 45.7456C13.3408 45.6579 13.4085 45.5805 13.4886 45.5174H13.8594C13.9165 45.5174 13.9165 45.4888 13.8879 45.4603C13.8594 45.4318 13.7738 45.3747 13.6597 45.3747C13.6155 45.3629 13.5691 45.362 13.5244 45.3719C13.4797 45.3818 13.438 45.4024 13.403 45.4318L13.2889 45.4603Z" fill="#171736"/>
<path d="M19.4521 44.148L19.338 44.0909L18.9671 44.0339C18.7753 44.0272 18.5833 44.0464 18.3966 44.0909L18.0828 44.205L17.9116 44.2906H17.8831L17.826 44.205L17.5693 44.0339C17.457 44.0049 17.3392 44.0049 17.2269 44.0339H17.0843C17.0313 43.9303 16.9527 43.8419 16.8561 43.7771C16.6775 43.6397 16.452 43.5782 16.2285 43.606C16.0246 43.6611 15.8443 43.7813 15.715 43.9483C15.6082 44.0875 15.5218 44.2412 15.4582 44.4047C15.3898 44.5874 15.3799 44.7868 15.4297 44.9753C15.4582 44.9753 15.4582 44.8612 15.5153 44.633C15.6359 44.3551 15.8219 44.1104 16.0573 43.9198C16.1338 43.8729 16.2208 43.8457 16.3104 43.8407C16.4001 43.8357 16.4895 43.8531 16.5708 43.8912C16.6593 43.942 16.7369 44.0099 16.799 44.0909C16.799 44.1195 16.8275 44.1195 16.8275 44.148H16.8561V44.2336C16.8628 44.387 16.8819 44.5397 16.9131 44.69C16.9767 44.5501 17.0531 44.4164 17.1413 44.2906L17.2555 44.205H17.4266L17.5978 44.3192L17.6549 44.4047C17.7095 44.4819 17.7483 44.5692 17.769 44.6615L17.9116 44.5474L18.0542 44.4333L18.1969 44.3477L18.5392 44.2336C18.8209 44.157 19.1191 44.167 19.3951 44.2621C19.5964 44.3374 19.7738 44.4655 19.9086 44.633C20.1088 44.8223 20.2394 45.0735 20.2794 45.3462C20.3015 45.4973 20.3111 45.6499 20.308 45.8026C20.3026 45.9675 20.2737 46.1308 20.2224 46.2876C20.1653 46.4873 20.1938 46.4588 20.308 46.2876C20.444 45.9936 20.484 45.6642 20.4221 45.3462C20.4048 45.1586 20.3505 44.9763 20.2623 44.8098C20.1742 44.6433 20.054 44.496 19.9086 44.3762C19.8037 44.2871 19.6888 44.2105 19.5662 44.148H19.4521Z" fill="#171736"/>
<path d="M45.6643 44.633H45.7213L45.921 44.7186L46.2063 44.8897C46.1291 44.7459 46.0715 44.5924 46.0351 44.4333L46.0922 44.2907C46.1642 44.196 46.2639 44.1262 46.3775 44.091C46.6042 43.9965 46.8572 43.9864 47.0907 44.0624C47.1763 44.1195 47.2048 44.1765 47.2333 44.148C47.2618 44.1195 47.2618 43.9769 47.0622 43.8627C46.8396 43.7563 46.5856 43.7359 46.349 43.8057C46.1949 43.8533 46.0568 43.942 45.9496 44.0624C45.8861 44.1273 45.8374 44.2052 45.8069 44.2907C45.7784 44.4048 45.8069 44.3762 45.8069 44.4048H45.6358L45.3505 44.4904C45.2396 44.5442 45.1421 44.6222 45.0652 44.7186C45.0211 44.7741 44.9926 44.8403 44.9825 44.9105C44.9725 44.9807 44.9813 45.0523 45.0081 45.118C45.0937 45.2891 45.0367 45.0324 45.1793 44.8042C45.2653 44.712 45.3732 44.6433 45.4931 44.6045L45.6643 44.633Z" fill="#171736"/>
<path d="M39.3922 46.4587C39.4558 46.3791 39.5331 46.3115 39.6205 46.2591C39.8168 46.0857 40.0719 45.9938 40.3337 46.0023C40.6654 45.9916 40.9956 46.0499 41.3036 46.1735C41.4457 46.2196 41.577 46.294 41.6897 46.392C41.8025 46.49 41.8943 46.6097 41.9598 46.744C42.0454 46.9723 42.0168 47.0578 42.0739 47.0293C42.1145 46.9437 42.1332 46.8493 42.1282 46.7547C42.1232 46.6601 42.0947 46.5681 42.0454 46.4873C41.9648 46.3287 41.8474 46.1917 41.703 46.0879L41.1325 45.8311C40.6638 45.6742 40.1526 45.7048 39.7061 45.9167C39.5555 46.0088 39.4207 46.1244 39.3067 46.2591C39.2581 46.319 39.2195 46.3864 39.1925 46.4587H39.1355V46.5729V46.5158L39.0784 46.4587C39.0784 46.4302 39.0499 46.4302 39.0499 46.4017L38.9643 46.3446L38.8217 46.2876H38.5649C38.5043 46.3288 38.4545 46.384 38.4197 46.4486C38.385 46.5132 38.3663 46.5851 38.3652 46.6584C38.3652 46.744 38.3938 46.7726 38.3938 46.744L38.4508 46.5729C38.514 46.5004 38.5918 46.4421 38.679 46.4017H38.8502L38.9358 46.4587H38.9643V46.6014H39.1925C39.2185 46.5272 39.2376 46.4508 39.2496 46.3732L39.3067 46.2876L39.3922 46.4587Z" fill="#171736"/>
</svg>
