<svg width="32" height="32" viewBox="0 0 32 32" fill="none" xmlns="http://www.w3.org/2000/svg">
<g opacity="0.96">
<path fill-rule="evenodd" clip-rule="evenodd" d="M15.9985 24.5374C22.3608 24.5374 27.5185 20.6634 27.5185 15.8847C27.5185 11.1059 22.3608 7.23193 15.9985 7.23193C9.63619 7.23193 4.47852 11.1059 4.47852 15.8847C4.47852 17.975 5.46539 19.8922 7.10828 21.3878C7.15562 22.1208 6.94491 23.0827 6.04242 23.8693C5.77614 24.1013 5.85413 24.5832 6.20414 24.6307C7.93387 24.8655 10.3891 24.8965 11.7165 23.9199C13.0402 24.3182 14.4853 24.5374 15.9985 24.5374Z" fill="#642CE8"/>
<ellipse cx="12.0586" cy="16.4267" rx="1.12896" ry="1.12918" fill="white"/>
<ellipse cx="15.2836" cy="16.1041" rx="1.45152" ry="1.4518" fill="white"/>
<ellipse cx="19.4775" cy="15.4589" rx="2.09664" ry="2.09705" fill="white"/>
</g>
</svg>
