<svg version="1.2" xmlns="http://www.w3.org/2000/svg" viewBox="0 0 604 565" width="604" height="565">
	<title>noun-new-message-641795-svg</title>
	<style>
		.s0 { fill: #ffffff }
	</style>
	<g id="Layer">
		<path id="Layer" class="s0" d="m278.8 387.9h185.4c11.4 0 21.7-4.6 29.1-11.9 7.6-7.4 11.9-17.1 11.9-27.8v-132.6c0-8 3.9-15 10.1-19 3.6-2.4 8.2-3.9 12.8-3.9 12.8 0 22.9 10 22.9 22.9v132.6c0 47.3-39.1 85.5-86.8 85.5h-178.3l-139.6 94.4c-5.2 3.7-11.6 4.6-17.4 3.4-1 0-2.2-0.3-3.1-0.9-2.1-1-4.3-1.9-6.1-3.4-1.8-1.2-3.7-3.1-5.2-5.2-2.7-4-4-8.2-4-12.8v-78.8c-36.6-9.8-63.5-42.8-63.5-82.2v-239.9l0.3-3.3 0.3-0.3c4.6-43.4 41.2-76.7 85.8-76.7h230c12.9 0 23 10.1 23 22.9 0 12.5-10.1 22.9-23 22.9h-230c-21 0-37.8 15.6-40.3 35.2v0.6l-0.3 1.8v236.8c0 21.4 18 39.7 40.6 39.7 12.6 0 22.9 10.4 22.9 22.9v55.3l109.7-74.2c1.5-1 3.1-1.9 4.6-2.5q1.8-0.9 3.7-0.9c1.5-0.6 3-0.6 4.5-0.6z"/>
		<path id="Layer" class="s0" d="m384.5 98.6c4.3-4.3 10.1-6.7 16.2-6.7h40.6v-41c0-12.8 10.4-22.9 23-22.9 12.8 0 22.9 10.1 22.9 22.9v41h40.9c12.8 0 22.9 10 22.9 22.9 0 12.5-10.1 22.9-22.9 22.9h-40.9v40.6c0 6.1-2.5 11.9-6.8 16.2-3.9 4-9.7 6.7-16.1 6.7-12.6 0-23-10.4-23-22.9v-40.6h-40.6c-12.5 0-22.9-10.4-22.9-22.9 0-6.5 2.8-12.3 6.7-16.2z"/>
	</g>
</svg>