<svg width="35" height="14" viewBox="0 0 35 14" fill="none" xmlns="http://www.w3.org/2000/svg">
<path d="M0.820312 12.8958V0.677582H2.67049L8.79704 9.87613V0.677582H10.6472V12.8958H8.79704L2.67049 3.69722V12.8958H0.820312Z" fill="white"/>
<path d="M15.5359 13.1052C14.7097 13.1052 13.9649 12.919 13.3017 12.5467C12.65 12.1627 12.1322 11.6332 11.7482 10.9583C11.3642 10.2718 11.1722 9.47467 11.1722 8.56704C11.1722 7.6594 11.3642 6.86813 11.7482 6.19322C12.1439 5.50667 12.6733 4.97722 13.3366 4.60486C13.9999 4.22086 14.7388 4.02886 15.5533 4.02886C16.3795 4.02886 17.1184 4.22086 17.77 4.60486C18.4333 4.97722 18.9569 5.50667 19.3409 6.19322C19.7366 6.86813 19.9344 7.6594 19.9344 8.56704C19.9344 9.47467 19.7366 10.2718 19.3409 10.9583C18.9569 11.6332 18.4333 12.1627 17.77 12.5467C17.1068 12.919 16.362 13.1052 15.5359 13.1052ZM15.5359 11.5169C15.978 11.5169 16.3853 11.4063 16.7577 11.1852C17.1417 10.9641 17.45 10.6383 17.6828 10.2078C17.9155 9.76558 18.0319 9.21867 18.0319 8.56704C18.0319 7.9154 17.9155 7.37431 17.6828 6.94376C17.4617 6.50158 17.1591 6.16995 16.7751 5.94885C16.4028 5.72776 15.9955 5.61722 15.5533 5.61722C15.1111 5.61722 14.698 5.72776 14.314 5.94885C13.9417 6.16995 13.6391 6.50158 13.4064 6.94376C13.1737 7.37431 13.0573 7.9154 13.0573 8.56704C13.0573 9.21867 13.1737 9.76558 13.4064 10.2078C13.6391 10.6383 13.9417 10.9641 14.314 11.1852C14.6864 11.4063 15.0937 11.5169 15.5359 11.5169Z" fill="white"/>
<path d="M22.3474 12.8958L19.1008 4.23831H21.0383L23.447 11.1329L25.8557 4.23831H27.7757L24.5466 12.8958H22.3474Z" fill="white"/>
<path d="M30.1633 13.1052C29.4302 13.1052 28.8251 12.983 28.348 12.7387C27.8709 12.4943 27.516 12.1743 27.2833 11.7787C27.0506 11.3714 26.9342 10.9292 26.9342 10.4521C26.9342 9.61431 27.26 8.95104 27.9117 8.46231C28.5633 7.97358 29.4942 7.72922 30.7044 7.72922H32.9735V7.57213C32.9735 6.89722 32.7873 6.39104 32.4149 6.05358C32.0542 5.71613 31.5829 5.5474 31.0011 5.5474C30.4891 5.5474 30.0411 5.6754 29.6571 5.9314C29.2848 6.17576 29.0579 6.54231 28.9764 7.03104H27.1262C27.1844 6.40267 27.3939 5.8674 27.7546 5.42522C28.1269 4.9714 28.5924 4.62813 29.1509 4.3954C29.7211 4.15104 30.3437 4.02886 31.0186 4.02886C32.2288 4.02886 33.1655 4.34886 33.8288 4.98886C34.492 5.61722 34.8237 6.47831 34.8237 7.57213V12.8958H33.2179L33.0608 11.4121C32.8164 11.8892 32.4615 12.2907 31.996 12.6165C31.5306 12.9423 30.9197 13.1052 30.1633 13.1052ZM30.5299 11.6041C31.0302 11.6041 31.4491 11.4878 31.7866 11.255C32.1357 11.0107 32.4033 10.6907 32.5895 10.295C32.7873 9.8994 32.9095 9.46304 32.956 8.98595H30.8964C30.1633 8.98595 29.6397 9.11395 29.3255 9.36995C29.0229 9.62595 28.8717 9.94595 28.8717 10.3299C28.8717 10.7256 29.0171 11.0398 29.308 11.2725C29.6106 11.4936 30.0179 11.6041 30.5299 11.6041Z" fill="white"/>
</svg>
