<svg width="29" height="29" viewBox="0 0 29 29" fill="none" xmlns="http://www.w3.org/2000/svg">
<circle cx="14.6" cy="14.6" r="13.4" fill="#642CE8" stroke="#EBEBEB" stroke-width="2"/>
<mask id="mask0_108_635" style="mask-type:alpha" maskUnits="userSpaceOnUse" x="5" y="5" width="20" height="20">
<rect x="5" y="5" width="19.2" height="19.2" fill="#D9D9D9"/>
</mask>
<g mask="url(#mask0_108_635)">
<path d="M9.12306 20.2H10.1123L17.52 12.7923L16.5308 11.8031L9.12306 19.2108V20.2ZM20.0861 11.9246L17.3862 9.24927L18.4292 8.20621C18.6641 7.97135 18.9497 7.85391 19.2861 7.85391C19.6225 7.85391 19.9082 7.97135 20.143 8.20621L21.1169 9.18003C21.3517 9.4149 21.4733 9.69643 21.4815 10.0246C21.4897 10.3528 21.3763 10.6344 21.1415 10.8692L20.0861 11.9246ZM19.2184 12.8046L10.623 21.4H7.9231V18.7L16.5185 10.1046L19.2184 12.8046Z" fill="white"/>
</g>
</svg>
