<svg width="22" height="16" viewBox="0 0 22 16" fill="none" xmlns="http://www.w3.org/2000/svg">
<path d="M17.125 9.75001V6.75001H14.125V5.25001H17.125V2.25001H18.625V5.25001H21.625V6.75001H18.625V9.75001H17.125ZM7.875 7.70001C6.90833 7.70001 6.08333 7.35401 5.4 6.66201C4.71667 5.97068 4.375 5.15001 4.375 4.20001C4.375 3.23335 4.71667 2.40835 5.4 1.72501C6.08333 1.04168 6.90833 0.700012 7.875 0.700012C8.84167 0.700012 9.66667 1.04168 10.35 1.72501C11.0333 2.40835 11.375 3.23335 11.375 4.20001C11.375 5.15001 11.0333 5.97068 10.35 6.66201C9.66667 7.35401 8.84167 7.70001 7.875 7.70001ZM0.375 15.3V13.075C0.375 12.5917 0.508333 12.1417 0.775 11.725C1.04167 11.3083 1.4 10.9833 1.85 10.75C2.83333 10.2667 3.82933 9.90401 4.838 9.66201C5.846 9.42068 6.85833 9.30001 7.875 9.30001C8.89167 9.30001 9.90433 9.42068 10.913 9.66201C11.921 9.90401 12.9167 10.2667 13.9 10.75C14.35 10.9833 14.7083 11.3083 14.975 11.725C15.2417 12.1417 15.375 12.5917 15.375 13.075V15.3H0.375ZM1.875 13.8H13.875V13.075C13.875 12.875 13.8167 12.6917 13.7 12.525C13.5833 12.3583 13.425 12.2167 13.225 12.1C12.3583 11.6833 11.4793 11.3623 10.588 11.137C9.696 10.9123 8.79167 10.8 7.875 10.8C6.95833 10.8 6.054 10.9123 5.162 11.137C4.27067 11.3623 3.39167 11.6833 2.525 12.1C2.325 12.2167 2.16667 12.3583 2.05 12.525C1.93333 12.6917 1.875 12.875 1.875 13.075V13.8ZM7.875 6.20001C8.425 6.20001 8.896 6.00401 9.288 5.61201C9.67933 5.22068 9.875 4.75001 9.875 4.20001C9.875 3.65001 9.67933 3.17901 9.288 2.78701C8.896 2.39568 8.425 2.20001 7.875 2.20001C7.325 2.20001 6.85433 2.39568 6.463 2.78701C6.071 3.17901 5.875 3.65001 5.875 4.20001C5.875 4.75001 6.071 5.22068 6.463 5.61201C6.85433 6.00401 7.325 6.20001 7.875 6.20001Z" fill="#171736"/>
</svg>
