<svg width="21" height="16" viewBox="0 0 21 16" fill="none" xmlns="http://www.w3.org/2000/svg">
<path d="M15.0577 6.74998V5.25003H20.5576V6.74998H15.0577ZM7.99995 7.69228C7.03747 7.69228 6.21352 7.34958 5.5281 6.66418C4.84268 5.97876 4.49997 5.15481 4.49997 4.19233C4.49997 3.22983 4.84268 2.40588 5.5281 1.72048C6.21352 1.03506 7.03747 0.692352 7.99995 0.692352C8.96243 0.692352 9.78638 1.03506 10.4718 1.72048C11.1572 2.40588 11.4999 3.22983 11.4999 4.19233C11.4999 5.15481 11.1572 5.97876 10.4718 6.66418C9.78638 7.34958 8.96243 7.69228 7.99995 7.69228ZM0.5 15.3077V13.0846C0.5 12.5949 0.633 12.1414 0.899 11.7241C1.16503 11.3068 1.52048 10.9859 1.96535 10.7616C2.95382 10.2769 3.95093 9.91348 4.9567 9.67118C5.96247 9.42888 6.97688 9.30773 7.99995 9.30773C9.02302 9.30773 10.0374 9.42888 11.0432 9.67118C12.049 9.91348 13.0461 10.2769 14.0345 10.7616C14.4794 10.9859 14.8349 11.3068 15.1009 11.7241C15.3669 12.1414 15.4999 12.5949 15.4999 13.0846V15.3077H0.5ZM1.99995 13.8077H14V13.0846C14 12.882 13.9413 12.6945 13.824 12.5221C13.7067 12.3497 13.5474 12.209 13.3461 12.1C12.4846 11.6756 11.6061 11.3542 10.7107 11.1356C9.81522 10.917 8.91165 10.8077 7.99995 10.8077C7.08825 10.8077 6.18468 10.917 5.28925 11.1356C4.39382 11.3542 3.51533 11.6756 2.6538 12.1C2.45252 12.209 2.29323 12.3497 2.17593 12.5221C2.05861 12.6945 1.99995 12.882 1.99995 13.0846V13.8077ZM7.99995 6.19233C8.54995 6.19233 9.02078 5.99649 9.41245 5.60483C9.80412 5.21316 9.99995 4.74233 9.99995 4.19233C9.99995 3.64233 9.80412 3.17149 9.41245 2.77983C9.02078 2.38816 8.54995 2.19233 7.99995 2.19233C7.44995 2.19233 6.97912 2.38816 6.58745 2.77983C6.19578 3.17149 5.99995 3.64233 5.99995 4.19233C5.99995 4.74233 6.19578 5.21316 6.58745 5.60483C6.97912 5.99649 7.44995 6.19233 7.99995 6.19233Z" fill="#CD274B"/>
</svg>
