<svg width="30" height="30" viewBox="0 0 30 30" fill="none" xmlns="http://www.w3.org/2000/svg">
<mask id="mask0_320_3386" style="mask-type:alpha" maskUnits="userSpaceOnUse" x="0" y="0" width="30" height="30">
<rect x="0.454102" y="0.454544" width="29.0909" height="29.0909" fill="#D9D9D9"/>
</mask>
<g mask="url(#mask0_320_3386)">
<path d="M22.4241 17.1212V13.4849H18.7878V11.6667H22.4241V8.03031H24.2423V11.6667H27.8787V13.4849H24.2423V17.1212H22.4241ZM11.212 14.6364C10.0403 14.6364 9.04029 14.217 8.212 13.3782C7.38372 12.5402 6.96958 11.5455 6.96958 10.3939C6.96958 9.22223 7.38372 8.22223 8.212 7.39394C9.04029 6.56566 10.0403 6.15152 11.212 6.15152C12.3837 6.15152 13.3837 6.56566 14.212 7.39394C15.0403 8.22223 15.4544 9.22223 15.4544 10.3939C15.4544 11.5455 15.0403 12.5402 14.212 13.3782C13.3837 14.217 12.3837 14.6364 11.212 14.6364ZM2.12109 23.8485V21.1515C2.12109 20.5657 2.28271 20.0202 2.60594 19.5152C2.92917 19.0101 3.36352 18.6162 3.90897 18.3333C5.10089 17.7475 6.30816 17.3079 7.53079 17.0146C8.75261 16.722 9.97968 16.5758 11.212 16.5758C12.4443 16.5758 13.6718 16.722 14.8944 17.0146C16.1162 17.3079 17.3231 17.7475 18.515 18.3333C19.0605 18.6162 19.4948 19.0101 19.8181 19.5152C20.1413 20.0202 20.3029 20.5657 20.3029 21.1515V23.8485H2.12109ZM3.93928 22.0303H18.4847V21.1515C18.4847 20.9091 18.414 20.6869 18.2726 20.4849C18.1312 20.2828 17.9393 20.1111 17.6969 19.9697C16.6463 19.4647 15.5809 19.0756 14.5005 18.8024C13.4193 18.5301 12.3231 18.3939 11.212 18.3939C10.1009 18.3939 9.00473 18.5301 7.92352 18.8024C6.84311 19.0756 5.77766 19.4647 4.72715 19.9697C4.48473 20.1111 4.29281 20.2828 4.1514 20.4849C4.00998 20.6869 3.93928 20.9091 3.93928 21.1515V22.0303ZM11.212 12.8182C11.8787 12.8182 12.4496 12.5806 12.9247 12.1055C13.3991 11.6311 13.6362 11.0606 13.6362 10.3939C13.6362 9.72728 13.3991 9.15637 12.9247 8.68122C12.4496 8.20687 11.8787 7.9697 11.212 7.9697C10.5453 7.9697 9.97483 8.20687 9.50049 8.68122C9.02534 9.15637 8.78776 9.72728 8.78776 10.3939C8.78776 11.0606 9.02534 11.6311 9.50049 12.1055C9.97483 12.5806 10.5453 12.8182 11.212 12.8182Z" fill="#14141F" fill-opacity="0.56"/>
</g>
</svg>
