<svg width="58" height="58" viewBox="0 0 58 58" fill="none" xmlns="http://www.w3.org/2000/svg">
<path d="M37.334 51.6791C37.334 51.6791 20.0061 52.0554 10.3442 52.6921C0.682245 53.3289 16.853 53.792 32.3873 52.75C47.9217 51.7081 46.7645 52.1712 51.422 51.5633C56.0794 50.9555 37.334 51.6791 37.334 51.6791Z" fill="#171736"/>
<path d="M23.5681 8.03141C23.3945 7.85775 22.1795 7.91563 21.977 7.91563C21.0803 7.91563 20.3281 10.0575 20.3281 12.6914C20.3281 15.3253 21.1092 17.1777 21.977 17.4382C22.2374 17.4961 23.2209 17.6119 23.3945 17.4382C24.0598 16.8014 23.6259 14.7754 23.6259 12.6914C23.6259 10.6074 24.2045 8.69712 23.5681 8.03141Z" fill="#171736"/>
<path d="M22.87 17.6699C22.5595 17.6686 22.2497 17.6396 21.9443 17.583C20.9318 17.2936 20.1797 15.2386 20.1797 12.6915C20.1797 10.1444 20.9897 7.77103 21.9732 7.77103H22.1179C23.1014 7.74209 23.5064 7.79997 23.651 7.94469C23.7957 8.08941 24.0271 9.39189 23.9114 10.6365C23.8535 11.2733 23.7668 11.9679 23.7668 12.6915C23.7668 13.4151 23.8246 13.9072 23.8535 14.486C23.9403 15.9043 23.9982 17.0331 23.5064 17.5252C23.3178 17.6467 23.0925 17.6979 22.87 17.6699ZM22.6386 8.06047H21.9732C21.25 8.06047 20.469 9.91289 20.469 12.6915C20.469 15.4701 21.25 17.091 22.0311 17.2936C22.3204 17.3804 23.1593 17.4383 23.3039 17.3225C23.4485 17.2068 23.651 15.8175 23.5643 14.515C23.5353 13.9072 23.4775 13.2993 23.4775 12.6915C23.4775 12.0837 23.5643 11.2443 23.6221 10.6075C23.7378 9.47873 23.8246 8.52357 23.4485 8.1473C23.0725 7.77103 23.2461 8.06047 22.6386 8.06047Z" fill="#171736"/>
<path d="M25.04 12.6914C25.04 10.0575 24.3168 7.91565 23.3911 7.91565C22.4654 7.91565 21.7422 10.0575 21.7422 12.6914C21.7422 15.3253 22.4943 17.4382 23.3911 17.4382C24.2878 17.4382 25.04 15.2964 25.04 12.6914Z" fill="white"/>
<path d="M23.3873 17.5831C22.4037 17.5831 21.5938 15.4123 21.5938 12.6915C21.5938 9.97079 22.4037 7.77104 23.3873 7.77104C24.3708 7.77104 25.1808 9.94184 25.1808 12.6915C25.1808 15.4412 24.3998 17.5831 23.3873 17.5831ZM23.3873 8.06048C22.6641 8.06048 21.883 9.9129 21.883 12.6915C21.883 15.4701 22.6641 17.2936 23.3873 17.2936C24.1105 17.2936 24.8915 15.4412 24.8915 12.6915C24.8915 9.94184 24.1105 8.06048 23.3873 8.06048Z" fill="#171736"/>
<path d="M33.4031 17.1199C33.5766 17.2646 34.5602 17.1777 34.8205 17.1199C35.7173 16.8594 36.4694 14.978 36.4694 12.3441C36.4694 9.71019 35.7462 7.59727 34.8205 7.59727C34.618 7.59727 33.432 7.53939 33.2584 7.71305C32.622 8.37876 33.1716 10.2891 33.1716 12.3441C33.1716 14.3991 32.7666 16.4831 33.4031 17.1199Z" fill="#171736"/>
<path d="M33.9207 17.3515C33.6603 17.3515 33.4 17.3226 33.3132 17.2068C32.7925 16.7148 32.8793 15.586 32.966 14.1677C32.995 13.5888 33.0239 12.981 33.0239 12.3442C33.0239 11.7075 32.966 10.926 32.9082 10.3181C32.7925 9.07355 32.6768 8.08946 33.1396 7.62635C33.6025 7.16325 33.6892 7.42374 34.6728 7.45269H34.8174C35.8299 7.45269 36.611 9.62349 36.611 12.3442C36.611 15.065 35.8878 16.9753 34.8753 17.2647C34.5604 17.3225 34.2408 17.3515 33.9207 17.3515ZM33.5157 17.0042C33.6314 17.091 34.4992 17.0621 34.7885 16.9753C35.5406 16.7727 36.3217 14.9781 36.3217 12.3442C36.3217 9.71032 35.5406 7.74213 34.8174 7.74213H34.6728C33.6314 7.71318 33.4 7.77107 33.3421 7.82896C33.2842 7.88685 33.0818 9.16038 33.1975 10.2892C33.2553 10.926 33.3132 11.6206 33.3132 12.3442C33.3132 13.0678 33.2842 13.5888 33.2553 14.1966C33.1685 15.4991 33.1107 16.599 33.5157 17.0042Z" fill="#171736"/>
<path d="M33.3989 17.0909C34.3096 17.0909 35.0478 14.9657 35.0478 12.3441C35.0478 9.72251 34.3096 7.59729 33.3989 7.59729C32.4882 7.59729 31.75 9.72251 31.75 12.3441C31.75 14.9657 32.4882 17.0909 33.3989 17.0909Z" fill="white"/>
<path d="M33.4029 17.2646C32.3904 17.2646 31.6094 15.0938 31.6094 12.3441C31.6094 9.59445 32.3904 7.45259 33.4029 7.45259C34.4154 7.45259 35.1964 9.62339 35.1964 12.3441C35.1964 15.0649 34.4154 17.2646 33.4029 17.2646ZM33.4029 7.74203C32.6797 7.74203 31.8987 9.59445 31.8987 12.3441C31.8987 15.0938 32.6797 16.9752 33.4029 16.9752C34.1261 16.9752 34.9072 15.1228 34.9072 12.3441C34.9072 9.5655 34.1261 7.74203 33.4029 7.74203Z" fill="#171736"/>
<path d="M27.4123 3.51618C29.8423 3.11096 30.4208 3.42934 31.4044 4.03717C32.8219 4.87654 33.2558 6.12114 33.6608 7.65517C33.6608 7.65517 35.2229 7.91566 35.4254 7.71306C35.0493 5.5712 31.9829 0.708608 26.6891 2.38736C21.3953 4.06611 21.4532 7.94461 21.4532 7.94461L23.0153 8.06038C23.102 7.22101 23.9988 5.65803 24.5484 5.05021C25.3018 4.22905 26.3116 3.68819 27.4123 3.51618Z" fill="#FFDA3C"/>
<path d="M23.393 9.62334H23.3062L23.1326 9.71017C22.9462 9.83684 22.8045 10.0192 22.7276 10.2312C22.6164 10.4985 22.548 10.7818 22.5251 11.0705C22.4962 11.3889 22.4962 11.7073 22.4673 12.0836C22.4195 12.8358 22.4292 13.5905 22.4962 14.3412C22.538 14.7312 22.6057 15.118 22.6987 15.499C22.7546 15.6923 22.8535 15.8704 22.988 16.02L23.2483 16.2226C23.3348 16.278 23.435 16.3081 23.5376 16.3094C23.6763 16.3406 23.8214 16.3265 23.9516 16.2692C24.0817 16.212 24.1901 16.1144 24.2608 15.991C24.3187 15.8463 24.2897 15.8174 24.2319 15.8463C24.1978 15.8997 24.1507 15.9437 24.0951 15.974C24.0394 16.0044 23.9771 16.0202 23.9137 16.02C23.808 16.0438 23.6977 16.0374 23.5954 16.0016C23.4931 15.9658 23.4029 15.902 23.3351 15.8174C23.1557 15.5642 23.0643 15.2592 23.0748 14.949C23.0458 14.5728 23.0169 14.1675 23.0169 13.7044V12.3151C23.0169 11.852 23.0169 11.331 23.0458 10.8679C23.0473 10.6694 23.0866 10.4729 23.1616 10.289C23.2483 10.1154 23.3641 9.99961 23.4508 9.99961C23.5122 9.99003 23.575 9.99862 23.6316 10.0243C23.6881 10.0501 23.7359 10.0918 23.769 10.1443C23.8579 10.2463 23.9266 10.3641 23.9715 10.4917C24.1464 10.8423 24.2822 11.2112 24.3765 11.5915C24.5212 12.1415 24.5501 12.373 24.6947 12.9519C24.8394 13.5308 24.8105 13.1545 24.8105 12.894C24.8348 12.4565 24.7959 12.0178 24.6947 11.5915C24.5703 11.0835 24.3958 10.589 24.174 10.1154C24.1286 10.0083 24.0614 9.91186 23.9768 9.83213C23.8921 9.75241 23.7918 9.69117 23.6823 9.65228H23.393V9.62334Z" fill="#171736"/>
<path d="M33.867 14.023C33.867 14.023 33.8959 13.7335 33.8959 13.2126C33.8959 12.6916 33.8959 12.0259 33.867 11.2733C33.838 10.5208 33.7802 10.4629 33.7223 10.0577V9.73927C33.7178 9.61872 33.6883 9.50043 33.6355 9.39195C33.6029 9.25065 33.533 9.12071 33.433 9.01567C33.3572 8.94381 33.2641 8.89274 33.1627 8.86739C33.0614 8.84204 32.9552 8.84327 32.8545 8.87095C32.7031 8.92771 32.5721 9.02852 32.4784 9.16039L32.3049 9.44983C32.189 9.62836 32.1012 9.82358 32.0445 10.0287C31.9012 10.3883 31.8228 10.7705 31.8131 11.1575C31.8088 11.4 31.8282 11.6424 31.8709 11.8811C31.9288 11.9969 31.9577 12.0258 31.9866 11.968C32.0156 11.9101 32.0445 11.3891 32.247 10.7813C32.3532 10.4376 32.4988 10.1073 32.6809 9.79716L32.8545 9.53667C32.9123 9.44983 32.9702 9.39195 32.9991 9.39195H33.028C33.0802 9.44699 33.1109 9.51883 33.1148 9.59455C33.1423 9.63744 33.1526 9.68911 33.1438 9.73927V9.91294C33.1727 10.0287 33.1727 10.1445 33.2016 10.2892L33.2884 11.0418C33.3463 11.5627 33.3752 12.1127 33.433 12.6337C33.4909 13.7046 33.5198 14.515 33.3752 15.036C33.3449 15.1638 33.3062 15.2895 33.2595 15.4123C33.2122 15.4839 33.14 15.5355 33.057 15.557C32.9863 15.5445 32.919 15.5174 32.8592 15.4775C32.7995 15.4377 32.7486 15.3859 32.7098 15.3255C32.5538 15.1436 32.4269 14.9385 32.3338 14.7176C32.2443 14.4806 32.167 14.2391 32.1024 13.994C32.0734 13.6757 32.0156 13.7625 31.9866 14.0809C31.9907 14.5812 32.1527 15.0675 32.4495 15.4702C32.5414 15.6284 32.6842 15.7508 32.8545 15.8175C32.9557 15.8569 33.066 15.8669 33.1727 15.8465C33.2866 15.8245 33.389 15.763 33.462 15.6728C33.559 15.5438 33.628 15.3959 33.6645 15.2386C33.7163 15.1077 33.755 14.972 33.7802 14.8334C33.824 14.6437 33.8435 14.4492 33.838 14.2545C33.8546 14.1784 33.8643 14.1009 33.867 14.023Z" fill="#171736"/>
<path d="M23.041 10.2602C22.8427 10.8658 22.688 11.4848 22.5781 12.1126C22.5781 12.2573 23.3592 12.0257 23.417 11.91C23.7028 11.4803 24.022 11.0738 24.3717 10.6943L23.5906 10.839C23.7063 11.4758 23.417 12.0836 23.2724 12.6625C23.1272 13.2409 23.04 13.8324 23.012 14.4281C22.9831 14.5728 23.7642 14.3702 23.851 14.2255C24.1311 13.5783 24.47 12.9582 24.8634 12.3731L24.0245 12.5757L23.446 15.9911C23.446 16.0779 24.2559 16.02 24.2849 15.7885L24.8634 12.3441C24.8924 12.1994 24.1113 12.402 24.0245 12.5178C23.6479 13.113 23.3097 13.7318 23.012 14.3702L23.851 14.1965C23.8885 13.5618 23.9853 12.9319 24.1402 12.3152C24.3138 11.7653 24.5452 11.2153 24.4295 10.6364C24.3138 10.0576 23.7063 10.6943 23.6195 10.7812C23.2417 11.1824 22.9027 11.6185 22.6071 12.0836L23.417 11.881C23.527 11.2817 23.6817 10.6916 23.8799 10.1154C23.9088 9.97072 23.1278 10.0576 23.041 10.2602Z" fill="#171736"/>
<path d="M32.5594 9.62336C32.2183 10.212 31.9925 10.8604 31.894 11.5337C31.8362 11.881 32.5305 11.7073 32.6462 11.5626C32.9427 11.2323 33.2617 10.9228 33.6008 10.6364H32.8487C32.8487 11.6784 32.2701 12.6335 32.2701 13.6755C32.2701 14.0518 32.9644 13.8781 33.0801 13.6466C33.2234 13.3532 33.4311 13.096 33.6876 12.894L32.9933 12.8072L32.2123 15.4122C32.1255 15.7016 32.704 15.6148 32.8197 15.5569C33.1591 15.4232 33.4581 15.2038 33.6876 14.9201H32.9355L32.6751 15.9621C32.5883 16.3094 33.4562 16.1937 33.514 15.8753L33.7744 14.8043C33.8611 14.457 33.1379 14.6307 33.0222 14.7754C32.8665 14.9299 32.6789 15.0484 32.4726 15.1227L33.0512 15.2964C33.3404 14.4281 33.5719 13.5597 33.8322 12.6914C33.919 12.373 33.2537 12.4888 33.1379 12.5757C32.7903 12.8506 32.5044 13.1958 32.299 13.5887H33.109C33.109 12.5467 33.6876 11.5916 33.6876 10.5206C33.6876 10.1444 33.0801 10.347 32.9065 10.4917C32.5766 10.7783 32.2673 11.0878 31.9808 11.4179H32.733C32.8256 10.7971 33.0316 10.1986 33.3404 9.65231C33.5429 9.30498 32.704 9.33392 32.5594 9.62336Z" fill="#171736"/>
<path d="M42.3972 40.4778L42.8601 42.5617L43.67 42.2433L42.1947 39.9278C41.9922 39.6094 41.3558 39.8699 41.3847 40.2462L41.7897 43.5458L42.6286 43.3143C42.3151 42.2115 41.728 41.2059 40.9219 40.3909C40.6905 40.1594 39.9962 40.2751 40.1119 40.6804C40.3998 41.6776 40.5458 42.7104 40.5458 43.7484L41.2979 43.4879C40.9 43.1196 40.593 42.6638 40.4012 42.1565C40.2019 41.6601 39.907 41.2077 39.5333 40.8251C39.273 40.6225 38.7234 40.854 38.7812 41.2014L39.3308 45.1667L40.1698 44.9351C39.7648 43.7195 39.3019 42.5038 38.7812 41.3171C38.6366 40.9987 37.9134 41.0856 37.9423 41.4619C38.0291 42.9091 38.2026 44.3563 38.4051 45.7745L39.2441 45.543L38.0002 41.7223C37.8555 41.3171 37.1034 41.5197 37.1612 41.9539C37.4119 43.2893 37.5186 44.6478 37.4794 46.0061L38.2894 45.8035L37.0745 43.43C36.9009 43.0827 36.1198 43.4011 36.3223 43.8063L37.5084 46.1797C37.6819 46.4692 38.3184 46.2666 38.3184 45.9482C38.3863 44.5318 38.2794 43.1125 38.0002 41.7223L37.1612 41.9539L38.4051 45.7745C38.5498 46.1797 39.3308 45.9482 39.2441 45.543C39.0416 44.1826 38.868 42.7933 38.7812 41.404L37.9423 41.5487C38.463 42.7354 38.9258 43.951 39.3308 45.1667C39.4466 45.5719 40.2276 45.3693 40.1698 44.9351L39.6201 40.9698L38.868 41.3461C39.7069 42.0697 39.7358 43.3143 40.6615 43.98C40.864 44.1247 41.3847 44.0089 41.3847 43.6905C41.3846 42.5955 41.2387 41.5053 40.9508 40.4488L40.1408 40.7672C40.916 41.5393 41.4833 42.4952 41.7897 43.5458C41.9054 43.951 42.6865 43.7195 42.6286 43.3143L42.2236 40.0147L41.4426 40.3041L42.889 42.6196C43.0915 42.938 43.7858 42.7064 43.699 42.3302L43.2361 40.2751C43.1493 39.8699 42.3104 40.0725 42.3972 40.4778Z" fill="#171736"/>
<path d="M15.9261 40.8828C15.6975 41.7055 15.5521 42.5491 15.4922 43.4009C15.4922 43.6035 16.2154 43.372 16.3022 43.2562C16.8821 42.5426 17.3953 41.7772 17.8354 40.9696L17.0254 41.1433C17.0543 41.9248 17.0832 42.7063 17.0832 43.4588C17.0832 43.6904 17.8354 43.4588 17.8932 43.2852C18.1825 42.6773 18.4139 42.0695 18.6453 41.4327L17.8064 41.6064L17.98 44.2114C17.98 44.4719 18.7321 44.1535 18.8189 44.0377C19.1882 43.4229 19.443 42.7463 19.571 42.0406L18.7321 42.2142C18.7321 43.5167 18.7321 44.7902 18.79 46.0638C18.79 46.2953 19.571 46.0348 19.6289 45.8901C20.0919 44.873 20.4318 43.8041 20.6414 42.7063L19.8025 42.8799C19.7208 44.1678 19.7985 45.4608 20.0339 46.7295C20.0628 46.961 20.786 46.7006 20.8728 46.5558C21.2778 45.427 21.7117 44.3271 22.1456 43.1983L21.3067 43.372C21.3646 44.2403 21.3356 45.0797 21.3356 45.948C21.3356 46.1217 22.1746 46.0059 22.1746 45.7165C22.1746 44.8771 22.2035 44.0088 22.1456 43.1694C22.1167 42.9378 21.3646 43.1694 21.3067 43.3431C20.8728 44.4429 20.4389 45.5717 20.0339 46.6716L20.8728 46.4979C20.6365 45.2293 20.5588 43.9362 20.6414 42.6484C20.6414 42.4747 19.8314 42.6195 19.8025 42.8221C19.597 43.9209 19.2569 44.9903 18.79 46.0059L19.6289 45.8322C19.571 44.5587 19.571 43.2852 19.571 42.0116C19.571 41.809 18.79 41.9827 18.7611 42.1853C18.6128 42.8896 18.3489 43.5645 17.98 44.1824L18.8189 43.9798L18.6453 41.3749C18.6164 41.1723 17.8643 41.4038 17.8064 41.5775C17.575 42.1853 17.3436 42.8221 17.0832 43.4299L17.9221 43.2562C17.9221 42.4844 17.8932 41.7029 17.8354 40.9118C17.8354 40.6802 17.0832 40.9696 17.0254 41.0854C16.5949 41.8739 16.0913 42.62 15.5211 43.3141L16.3311 43.1694C16.3931 42.358 16.5286 41.5539 16.7361 40.767C16.7939 40.5355 15.984 40.6513 15.9261 40.8828Z" fill="#171736"/>
<path d="M21.1955 45.1955C20.1541 46.3822 19.0838 47.5978 17.9556 48.7556C17.0769 49.6689 16.1185 50.5019 15.0917 51.2448C14.9585 51.3647 14.8005 51.4536 14.6289 51.5052C14.5009 51.5239 14.3704 51.5155 14.2458 51.4806C14.1213 51.4457 14.0054 51.3851 13.9057 51.3026C13.4718 50.9843 13.4718 50.4343 13.5296 49.9712C13.5875 49.5081 13.8478 48.6977 14.0214 48.0899C14.195 47.482 14.3975 46.5848 14.6 45.8322C15.0628 44.2692 15.5835 42.7352 16.1042 41.2012C16.2488 40.8539 15.5835 40.8828 15.4099 40.9117C15.2364 40.9407 14.571 41.0854 14.4553 41.4327C13.9057 42.9378 13.385 44.4719 12.9511 46.0348C12.6907 46.8742 12.4882 47.7136 12.2568 48.5819C12.0678 49.2372 11.9229 49.9044 11.8229 50.579C11.7072 52.4025 13.8478 52.6341 15.1785 52.142C16.5092 51.65 17.6663 50.5211 18.6788 49.5371C19.6913 48.553 21.427 46.6716 22.7576 45.1665C23.018 44.8771 22.5262 44.7324 22.3237 44.7324C22.1136 44.7246 21.9042 44.7619 21.7096 44.8418C21.515 44.9217 21.3397 45.0423 21.1955 45.1955Z" fill="#171736"/>
<path d="M42.424 41.1434C43.3787 42.88 44.3622 44.6746 44.8829 46.6138C45.1433 47.6269 45.3168 48.7557 45.0276 49.7977C44.9952 49.9513 44.9365 50.0982 44.854 50.2318C44.854 50.2897 44.8251 50.3186 44.8251 50.3476C44.8251 50.3765 44.8829 50.2608 44.7961 50.3476C44.7755 50.4239 44.7357 50.4937 44.6804 50.5502L44.5936 50.666C44.4779 50.8107 44.6515 50.5791 44.5936 50.666L44.4779 50.7528C44.4779 50.7239 44.7672 50.6081 44.7094 50.6081C44.6515 50.6081 44.9986 50.5502 44.8829 50.5502H45.0854C45.2092 50.5217 45.3377 50.5217 45.4615 50.5502C45.2923 50.5391 45.1261 50.5 44.9697 50.4344C44.544 50.3411 44.1346 50.1851 43.7547 49.9713C42.9993 49.6073 42.2983 49.1397 41.6719 48.582C40.023 47.2795 38.6345 45.6876 37.1592 44.2115C36.7831 43.8063 35.221 44.443 35.597 44.8482C37.0434 46.2954 38.4031 47.8295 39.9652 49.1319C40.6931 49.7286 41.4779 50.2521 42.3083 50.6949C43.0315 51.0422 43.9283 51.4475 44.7383 51.3896C46.7922 51.2449 47.0236 48.6978 46.7632 47.1638C46.3872 44.8482 45.2011 42.7353 44.1019 40.7092C43.8126 40.1883 42.1926 40.7671 42.424 41.1723V41.1434Z" fill="#171736"/>
<path d="M18.9944 34.4863C19.139 34.1679 19.3126 33.9363 19.139 33.5601C18.9422 33.1183 18.6071 32.7526 18.1844 32.5181C17.7591 32.3567 17.3243 32.2214 16.8826 32.1129L15.7255 31.7366C14.2545 31.2133 12.8152 30.6044 11.4152 29.9131L6.06354 27.2792L5.88997 27.1924C5.83212 27.1924 5.57176 27.0477 5.7164 27.1345C5.74533 27.1345 5.86104 27.2213 5.7164 27.1345L5.60069 26.9898C5.47015 26.8827 5.37033 26.7428 5.31141 26.5846C5.26385 26.5069 5.23631 26.4186 5.23126 26.3277C5.22621 26.2368 5.24381 26.146 5.28248 26.0636L5.3982 25.9478C5.3982 25.9478 5.48498 25.9188 5.42712 25.9478L5.62962 25.8899C6.6421 25.6294 7.71244 25.4847 8.75384 25.2821L11.502 24.79C13.4402 24.4716 15.3494 24.2111 17.2876 23.9506C17.7961 23.8833 18.308 23.8447 18.8208 23.8349C19.3518 23.8585 19.8839 23.8391 20.4118 23.777C21.4284 23.6342 22.3718 23.1673 23.1021 22.4456C24.375 21.2299 24.8957 19.5222 25.1849 17.8435C25.4742 16.1647 25.561 14.7754 25.8214 13.2414C26.0817 11.7073 26.4867 9.85492 26.8917 8.20511C27.0984 7.35321 27.3495 6.51269 27.6438 5.68699C27.6725 5.56735 27.7324 5.45748 27.8174 5.3686V5.31071C27.7885 5.33966 27.9331 5.28177 27.8463 5.31071H27.7306C27.6438 5.33966 27.6149 5.28177 27.7017 5.31071L27.8463 5.3686C27.9899 5.43875 28.1178 5.5372 28.2224 5.65804C28.463 6.01398 28.6483 6.40433 28.772 6.8158C29.0034 7.30785 29.177 7.77095 29.3795 8.263C29.7942 9.30536 30.1232 10.3799 30.3631 11.4758C30.8838 13.8203 31.1441 16.2226 31.5202 18.596C31.6937 19.5222 31.7516 20.5353 32.2434 21.3746C32.436 21.7553 32.7136 22.0864 33.0547 22.3424C33.3959 22.5984 33.7913 22.7723 34.2105 22.8508C37.9133 23.5165 41.645 23.6323 45.3767 23.6033C47.3438 23.6033 49.3109 23.6033 51.278 23.6612C52.1748 23.6902 53.274 23.6323 53.7079 24.6453C53.8815 25.0505 53.6501 25.2821 53.303 25.5136C52.8549 25.8497 52.3809 26.1498 51.8855 26.4109C50.1787 27.366 48.3563 27.9739 46.5049 28.5527C44.4481 29.1769 42.4609 30.011 40.5746 31.0419C39.6779 31.5629 38.6075 32.1129 38.7522 33.3285C38.81 33.8206 40.4879 33.4443 40.43 32.8654C40.3721 32.2865 40.6614 32.026 41.1243 31.7366L42.6864 30.8683C43.5962 30.4231 44.5334 30.0364 45.4924 29.7105C47.3438 29.0737 49.3109 28.5238 51.1334 27.7134C52.1899 27.2602 53.2061 26.718 54.1708 26.0925C54.6047 25.8031 55.1833 25.4847 55.4147 24.9637C55.6461 24.4427 55.4436 24.2111 55.2122 23.8638C54.5758 22.9376 53.4765 22.8797 52.4351 22.8508C51.3937 22.8218 50.2077 22.7639 49.1084 22.7639C45.5503 22.735 42.021 22.8508 38.4918 22.4745L36.8719 22.2719C36.3222 22.1851 35.7147 22.1561 35.1651 22.0114C34.6155 21.8667 33.8923 21.0273 33.6608 20.2748C33.5105 19.7835 33.404 19.2798 33.3426 18.7697C33.2269 18.1618 33.1401 17.554 33.0534 16.9462C32.8509 15.7306 32.6773 14.5149 32.4748 13.2993C32.3201 12.1252 32.0784 10.9642 31.7516 9.82598C31.4492 8.76826 31.0722 7.73333 30.6234 6.72897C30.3052 5.97643 30.0448 4.99233 29.2349 4.645C28.4249 4.29767 27.2099 4.52923 26.5156 5.10811C25.8214 5.68699 25.7346 6.61319 25.5032 7.36574C25.2717 8.11828 25.0403 9.21815 24.8378 10.1444C24.4907 11.6494 24.2014 13.1256 23.97 14.6307C23.7385 16.1358 23.6228 18.1908 23.0732 19.8985C22.8504 20.692 22.4663 21.431 21.945 22.0693C21.6979 22.357 21.4046 22.6016 21.0772 22.7929C20.783 22.9436 20.4509 23.004 20.1225 22.9666H18.5604L16.7669 23.1981C15.7544 23.3428 14.7419 23.4586 13.7584 23.6323C11.8877 23.9024 10.0074 24.2208 8.11743 24.5874L6.41068 24.9058C5.82748 25.0016 5.2556 25.1568 4.70393 25.3689C4.12537 25.6294 3.46002 26.0925 3.57573 26.8161C3.66399 27.1872 3.86634 27.5213 4.15429 27.7713C4.51261 27.989 4.89028 28.1731 5.28248 28.3212L6.8446 29.0737C9.91096 30.5788 12.9195 32.1707 16.2462 33.097C16.46 33.1307 16.6649 33.2071 16.8487 33.3214C17.0326 33.4357 17.1916 33.5858 17.3165 33.7627C17.4101 33.898 17.4877 34.0437 17.548 34.1968C17.5069 34.3844 17.4281 34.5616 17.3165 34.7178C17.1719 35.0651 17.8951 35.0651 18.0397 35.0362C18.1844 35.0073 18.8208 34.8336 18.9944 34.4863Z" fill="#171736"/>
<path d="M29.1511 43.0538L29.585 42.967L33.2299 45.2825C33.4344 45.4147 33.6592 45.5125 33.8953 45.5719C34.1724 45.5712 34.4435 45.4908 34.6763 45.3404C38.5237 43.4301 42.2844 41.7802 46.0161 39.6963C45.0615 38.3649 43.4704 36.715 42.3133 35.1231C41.6769 34.2259 41.214 33.9943 40.433 32.8365C40.433 32.8365 32.796 36.223 29.18 36.2519C25.564 36.2809 17.4931 34.5153 17.4931 34.5153C15.3813 35.9336 14.1664 37.8728 12.6621 39.9568C16.6735 42.0022 20.6173 44.1922 24.4937 46.5271C26.1484 45.5133 27.7073 44.3507 29.1511 43.0538Z" fill="#FFDA3C"/>
<path d="M25.0663 27.5108H25.2688L25.8474 27.424L28.422 27.2503L28.2773 27.1635L28.1327 27.0766L27.6409 26.7872L26.6284 26.2373L26.0209 25.9189L25.3267 25.6294L25.0085 25.5137L24.806 25.4268L24.401 25.3111C23.3659 24.9699 22.2791 24.8132 21.19 24.848C20.4957 24.9058 20.2643 25.0216 20.38 25.1663C20.4957 25.3111 20.9007 25.4268 21.5371 25.6005C22.1735 25.7742 22.9835 25.9768 23.8803 26.2662L24.5456 26.5267H24.9795C25.0374 26.5846 24.9217 26.6425 24.7481 26.7004H24.6613L24.5167 26.7583L24.2274 26.8161L23.7646 26.9898C23.3313 27.1296 22.9064 27.2939 22.4917 27.4819C21.9969 27.6675 21.5515 27.9646 21.19 28.3502C20.756 28.8712 21.6239 28.437 22.6942 28.0607C23.1949 27.8659 23.7069 27.7016 24.2274 27.5687C24.4061 27.511 24.5903 27.4722 24.777 27.4529L25.0663 27.5108Z" fill="#171736"/>
<path d="M32.5928 25.5426H31.9274C31.3492 25.6331 30.7851 25.7985 30.2496 26.0347L31.0017 26.6425C31.0306 26.4688 31.2042 26.2662 31.5224 26.0926C31.6823 25.9732 31.8574 25.8758 32.0431 25.8031L32.5928 25.4847L34.6756 24.4428C35.1963 24.1823 35.3698 24.0086 35.2831 23.9218C35.1963 23.8349 34.8491 23.777 34.3284 23.8639C33.6306 23.9652 32.9495 24.1599 32.3035 24.4428C31.8824 24.6 31.4759 24.7937 31.0885 25.0216C30.8616 25.1764 30.6487 25.3508 30.4521 25.5426C30.2059 25.7886 30.0353 26.1 29.9603 26.4399L29.7578 27.5977L30.7124 27.0188L31.4646 26.6425C32.1598 26.3483 32.9082 26.2005 33.6631 26.2083C34.069 26.1916 34.4756 26.211 34.8781 26.2662C35.3526 26.3742 35.8429 26.3938 36.3245 26.3241C36.9609 26.2373 36.093 25.9189 34.9938 25.6873C34.4707 25.5755 33.9376 25.5173 33.4027 25.5137C33.1325 25.4956 32.8611 25.5053 32.5928 25.5426Z" fill="#171736"/>
<path d="M30.9114 32.2866L30.3618 32.4602C29.9248 32.613 29.4652 32.6913 29.0022 32.6918C28.4196 32.7431 27.8326 32.6941 27.2665 32.5471C26.7332 32.4263 26.2107 32.2617 25.7044 32.055C25.5546 31.963 25.387 31.9038 25.2126 31.8813C25.0969 31.8524 25.0391 31.9103 25.0391 31.9682C25.0391 32.0261 25.2126 32.4602 25.6466 32.8365C26.2032 33.2823 26.8575 33.5898 27.5558 33.7338C28.4466 33.9166 29.3713 33.8361 30.2172 33.5022C30.8451 33.2271 31.4375 32.8772 31.9818 32.4602L32.7918 31.7656C33.1069 31.4855 33.3205 31.1089 33.3993 30.6946C33.4571 30.4052 33.3414 30.4341 33.1678 30.5789C32.9943 30.7236 32.7339 31.013 32.3868 31.3025C32.0899 31.562 31.7704 31.7945 31.4322 31.9971L30.9114 32.2866Z" fill="#171736"/>
<path d="M10.6305 27.5398H10.5437L10.428 27.4819H10.4569C10.4569 27.4819 10.428 27.4819 10.4569 27.453L10.5726 27.2793L10.7173 27.0478C10.7751 26.9609 10.7751 26.8452 10.6305 26.7004C10.5285 26.6218 10.4058 26.5745 10.2775 26.5642C10.1491 26.5539 10.0205 26.5811 9.90728 26.6426C9.72741 26.7056 9.57437 26.8281 9.47336 26.9899C9.35047 27.1992 9.30926 27.4466 9.35765 27.6845C9.38022 27.8118 9.43088 27.9324 9.50595 28.0375C9.58102 28.1427 9.6786 28.2297 9.79157 28.2924C9.99064 28.4164 10.2227 28.4769 10.4569 28.466C10.65 28.4437 10.8317 28.3629 10.9776 28.2345C11.103 28.1588 11.2035 28.0481 11.2669 27.9161C11.3597 27.7383 11.3902 27.5345 11.3537 27.3372C11.338 27.2241 11.2985 27.1156 11.238 27.0188C11.1963 26.9539 11.1357 26.9034 11.0644 26.8741C11.019 26.8533 10.9697 26.8425 10.9198 26.8425C10.8698 26.8425 10.8205 26.8533 10.7751 26.8741C10.7551 26.8803 10.7367 26.8908 10.7211 26.9048C10.7055 26.9188 10.6932 26.9361 10.6849 26.9553C10.6767 26.9746 10.6727 26.9954 10.6733 27.0164C10.6739 27.0374 10.679 27.0579 10.6883 27.0767C10.6883 27.1346 10.7173 27.1925 10.7173 27.2504C10.7173 27.3083 10.7462 27.3662 10.7173 27.424V27.5109L10.6305 27.5398Z" fill="#171736"/>
<path d="M25.9667 14.0807C26.0423 14.1428 26.1018 14.2222 26.1402 14.3123C26.2415 14.5397 26.2909 14.7869 26.2849 15.0359C26.2539 15.3476 26.1444 15.6463 25.9667 15.9042C25.8951 16.005 25.8071 16.0931 25.7063 16.1647C25.6303 16.2193 25.5395 16.2496 25.4459 16.2515H25.2145C25.1831 16.2468 25.151 16.2497 25.1208 16.2597C25.0907 16.2698 25.0633 16.2868 25.041 16.3094C25.0173 16.3603 25.0075 16.4166 25.0126 16.4725C25.0177 16.5284 25.0374 16.582 25.0699 16.6278C25.1161 16.7081 25.1785 16.778 25.2532 16.8328C25.328 16.8876 25.4133 16.9262 25.5038 16.9462C25.6422 16.9893 25.788 17.0038 25.9322 16.9889C26.0764 16.974 26.2161 16.9299 26.3427 16.8593C26.6419 16.7104 26.8927 16.4796 27.0659 16.1936C27.262 15.8826 27.3685 15.5234 27.3736 15.1557C27.3787 14.788 27.2823 14.426 27.0948 14.1096C26.9267 13.8399 26.6991 13.6122 26.4295 13.4439C25.9969 13.1791 25.4843 13.0765 24.9831 13.1545C24.8286 13.1837 24.6812 13.2427 24.5492 13.3282C24.4169 13.4278 24.3245 13.5716 24.2888 13.7334C24.231 13.936 24.3467 13.936 24.4624 13.8781C24.6501 13.8172 24.8443 13.7783 25.041 13.7623C25.2684 13.7537 25.4951 13.7932 25.7063 13.8781C25.803 13.9318 25.8909 14.0001 25.9667 14.0807Z" fill="#171736"/>
<path d="M47.3108 26.4688C47.1667 26.4507 47.0209 26.4507 46.8768 26.4688C46.5212 26.5039 46.1816 26.6338 45.8933 26.8451C45.5269 27.0985 45.2528 27.4642 45.1122 27.8871C45.0601 27.9855 45.0305 28.0942 45.0254 28.2055V28.3791C45.0188 28.448 45.0287 28.5175 45.0544 28.5817C45.0741 28.8439 45.1869 29.0903 45.3726 29.2764C45.4307 29.3385 45.5038 29.3844 45.5849 29.4098C45.6661 29.4352 45.7524 29.4391 45.8354 29.4211C45.8686 29.4054 45.897 29.3809 45.9173 29.3503C45.9377 29.3197 45.9494 29.2842 45.9511 29.2474C45.9511 29.1606 45.8933 29.1027 45.8644 29.0159C45.8463 28.9186 45.8564 28.8182 45.8933 28.7265C45.9058 28.6788 45.9154 28.6305 45.9222 28.5817L45.9801 28.5238C45.9801 28.4949 46.009 28.4949 46.009 28.437L46.2404 28.0897C46.4244 27.8329 46.6492 27.6081 46.9058 27.424C47.1297 27.2571 47.41 27.1844 47.6868 27.2214C47.8531 27.2401 48.0121 27.2998 48.1497 27.395C48.3281 27.5044 48.5237 27.5827 48.7282 27.6266C48.9018 27.6845 48.9597 27.6266 48.9018 27.4529C48.8304 27.2303 48.6882 27.0371 48.4968 26.903C48.2783 26.7215 48.0209 26.5928 47.7447 26.5267L47.3108 26.4688Z" fill="#171736"/>
<path d="M43.4981 48.9871V48.8713C43.5361 48.7495 43.5556 48.6227 43.556 48.4951C43.5566 48.2838 43.5071 48.0755 43.4113 47.8872C43.3057 47.6515 43.1351 47.4507 42.9196 47.3084C42.6886 47.1215 42.4058 47.0104 42.1096 46.99C41.7726 46.9801 41.4436 47.0933 41.1839 47.3084C40.9604 47.493 40.8048 47.747 40.7419 48.0302C40.6791 48.3133 40.7124 48.6093 40.8367 48.8713C40.8734 48.9512 40.9255 49.023 40.9901 49.0826C41.0546 49.1422 41.1303 49.1885 41.2128 49.2187C41.3285 49.2187 41.3574 49.1897 41.3864 49.1029C41.4153 49.016 41.3864 48.9582 41.4153 48.8424C41.417 48.7214 41.4467 48.6026 41.5021 48.4951C41.5423 48.3821 41.6123 48.2821 41.7046 48.2056L41.8203 48.1188H41.936C42.057 48.1164 42.1769 48.1412 42.287 48.1913C42.3972 48.2414 42.4947 48.3155 42.5724 48.4082C42.6248 48.467 42.6646 48.5357 42.6894 48.6104C42.7143 48.685 42.7237 48.764 42.7171 48.8424C42.7189 48.973 42.6891 49.1021 42.6303 49.2187C42.5874 49.2977 42.5282 49.3668 42.4567 49.4213L42.2831 49.537L42.0228 49.6239L41.6757 49.6818H41.4732C41.471 49.7537 41.4912 49.8245 41.531 49.8844C41.6229 50.006 41.7571 50.0887 41.9071 50.1159C42.0858 50.1735 42.278 50.1735 42.4567 50.1159C42.6413 50.0599 42.8098 49.9606 42.9485 49.8265C43.0856 49.7311 43.1954 49.6013 43.2667 49.4502C43.3601 49.3045 43.4377 49.1493 43.4981 48.9871Z" fill="#171736"/>
<path d="M15.3177 50.608L15.4334 50.4922C15.5196 50.3726 15.5969 50.2468 15.6648 50.116C15.884 49.6878 15.9744 49.2052 15.9252 48.7267C15.8602 48.1038 15.5847 47.5217 15.1441 47.0769C14.9025 46.8619 14.6159 46.7036 14.3052 46.6138C14.0225 46.5267 13.7201 46.5267 13.4374 46.6138C13.3417 46.6298 13.2507 46.6667 13.1707 46.7217C13.0908 46.7767 13.0238 46.8485 12.9745 46.9321C12.9515 46.9628 12.9416 47.0014 12.9471 47.0394C12.9525 47.0774 12.9728 47.1117 13.0035 47.1347C13.2589 47.1695 13.5107 47.2277 13.7556 47.3084C14.1073 47.4579 14.3873 47.738 14.5366 48.0899C14.7867 48.5193 14.9072 49.0118 14.8838 49.5082C14.8924 49.7332 14.8319 49.9554 14.7102 50.1449C14.6353 50.3102 14.5149 50.4508 14.3631 50.5501C14.1716 50.6707 13.9526 50.7404 13.7267 50.7527H12.8588C12.6563 50.7238 12.6274 50.8106 12.772 50.9843C12.8984 51.1071 13.0478 51.2036 13.2116 51.2682C13.3755 51.3328 13.5506 51.3642 13.7267 51.3606C14.1379 51.36 14.5401 51.2393 14.8838 51.0132C15 50.9396 15.1068 50.8521 15.202 50.7527L15.3177 50.608Z" fill="#171736"/>
<path d="M40.658 24.1242H40.5423V24.0663H40.5133C40.4844 24.0374 40.5133 23.9795 40.5423 23.9216C40.6028 23.8248 40.6422 23.7163 40.658 23.6032C40.6371 23.5082 40.5802 23.425 40.4993 23.371C40.4184 23.317 40.3197 23.2965 40.224 23.3138C40.0315 23.3148 39.846 23.3869 39.7033 23.5164C39.5213 23.7022 39.4178 23.9509 39.4141 24.211C39.439 24.3591 39.4777 24.5044 39.5298 24.6452C39.6105 24.7646 39.7079 24.8719 39.8191 24.9636C39.9363 25.0654 40.0767 25.1371 40.2279 25.1724C40.3791 25.2077 40.5367 25.2056 40.6869 25.1662L40.8315 25.1083C40.9659 25.0634 41.0791 24.9707 41.1497 24.8478C41.2267 24.7753 41.286 24.6862 41.3233 24.5873C41.3917 24.443 41.4215 24.2835 41.4101 24.1242C41.4206 24.0092 41.4023 23.8934 41.3568 23.7873C41.3114 23.6812 41.2402 23.5881 41.1497 23.5164C41.0845 23.4368 40.9914 23.3851 40.8894 23.3717C40.825 23.3648 40.76 23.3777 40.7032 23.4087C40.6463 23.4398 40.6003 23.4874 40.5712 23.5453C40.5423 23.69 40.629 23.719 40.658 23.7769L40.7158 23.9216V24.0374L40.658 24.1242Z" fill="#171736"/>
</svg>
