<svg width="64" height="64" viewBox="0 0 64 64" fill="none" xmlns="http://www.w3.org/2000/svg">
<g clip-path="url(#clip0_506_8487)">
<path d="M46.4024 47.9556C46.4024 48.0131 46.6896 47.9269 47.2353 47.7546L48.2117 47.4674L48.6713 47.3812H48.901C48.9872 47.4099 49.0733 47.4387 49.0446 47.5535C49.0178 47.7165 48.9592 47.8726 48.8723 48.0131L48.6425 48.3003L48.3266 48.6162L47.6086 49.2767L46.7757 49.9947C46.2301 50.4543 45.5982 50.9425 44.9089 51.4307C44.2197 51.919 43.5017 52.4072 42.6975 52.8955C40.9617 53.9544 39.1357 54.8578 37.2407 55.5951C36.2177 56.0108 35.1607 56.3375 34.0815 56.5716C33.5413 56.6671 32.9927 56.7056 32.4445 56.6865C32.1809 56.6718 31.9203 56.6236 31.669 56.5429L31.4393 56.4567V56.3993C31.4239 56.2465 31.4648 56.0934 31.5541 55.9685C31.6999 55.7375 31.8735 55.5253 32.0711 55.3367C32.4962 54.9195 32.9685 54.5532 33.4784 54.2453C34.0165 53.9002 34.5726 53.5839 35.1441 53.2975L36.9248 52.4934C39.4441 51.399 42.1015 50.6549 44.8228 50.2819C46.1848 50.1127 47.5583 50.0551 48.9297 50.1096C49.5848 50.128 50.2376 50.1952 50.8827 50.3107C51.4571 50.4255 51.8592 50.7127 51.9453 51.0574C52.0315 51.402 51.8592 51.9764 51.5433 52.4359C51.3838 52.6906 51.1905 52.9224 50.9689 53.1252L50.8253 53.2688L50.6529 53.4411L50.3083 53.7571C49.3811 54.5702 48.3702 55.2826 47.2927 55.8823C46.266 56.4649 45.1895 56.955 44.0761 57.3471L42.439 57.8353L42.0657 57.9215L41.721 57.9789C41.4992 57.991 41.2768 57.9717 41.0605 57.9215L40.9456 57.864H40.9169L40.8594 57.8066V57.7204H40.8881L40.9743 57.6055C41.3189 57.2322 41.6923 56.8875 42.0657 56.5429C42.7545 55.9012 43.516 55.3422 44.3345 54.8771C45.0724 54.4689 45.8815 54.2057 46.7183 54.1017C47.1007 54.073 47.4847 54.073 47.8671 54.1017C48.1933 54.1366 48.5074 54.2446 48.7861 54.4176C48.9012 54.4903 48.9992 54.587 49.0735 54.701C49.1478 54.8149 49.1968 54.9436 49.2169 55.0782C49.2519 55.229 49.2712 55.383 49.2744 55.5377V55.9972C49.2357 56.5537 49.1296 57.1034 48.9585 57.6343C48.698 58.379 48.3199 59.0771 47.8384 59.7021C47.5225 60.1329 47.3214 60.3339 47.3501 60.3914C47.3789 60.4488 47.6373 60.2765 48.0394 59.8744C48.6376 59.2824 49.1155 58.5802 49.4467 57.8066C49.6778 57.2359 49.8323 56.6372 49.9062 56.0259C49.9062 55.8823 49.9349 55.71 49.9349 55.509C49.9389 55.3266 49.9293 55.1442 49.9062 54.9633C49.8787 54.7421 49.8105 54.5279 49.7052 54.3315C49.5731 54.1326 49.4079 53.9578 49.2169 53.8145C48.843 53.5691 48.4227 53.4029 47.982 53.3263C46.59 53.1224 45.1695 53.3743 43.9325 54.0443C43.0106 54.5075 42.1516 55.0866 41.3764 55.7675L40.1989 56.8875L40.0265 57.0886C39.9525 57.1839 39.8943 57.2906 39.8542 57.4045C39.7532 57.6193 39.723 57.8607 39.7681 58.0938C39.8295 58.3348 39.9713 58.5475 40.1701 58.6969C40.2641 58.7803 40.3707 58.8482 40.4861 58.8979L40.7445 58.9841C41.0681 59.0913 41.4103 59.1305 41.7497 59.099C41.9241 59.1085 42.0987 59.0891 42.2667 59.0415L42.6975 58.9554C43.2719 58.8118 43.8463 58.6682 44.4494 58.4671C45.6355 58.0843 46.7804 57.584 47.8671 56.9737C49.031 56.3536 50.12 55.602 51.1125 54.7335L51.5145 54.3889L51.6869 54.2166L51.8879 54.0443C52.1495 53.7764 52.3896 53.4883 52.6059 53.1827C52.8178 52.8491 52.9913 52.4926 53.1229 52.12C53.2587 51.6827 53.2785 51.2175 53.1803 50.7702C53.1516 50.6553 53.0941 50.5404 53.0654 50.4255L52.8644 50.0809L52.6346 49.8224L52.3761 49.5927C52.0224 49.3428 51.6219 49.167 51.1986 49.0757C50.4689 48.9346 49.7297 48.8482 48.9872 48.8172C47.529 48.7557 46.0681 48.823 44.6217 49.0183C41.7896 49.3953 39.0245 50.1687 36.4078 51.3159L34.541 52.2062C33.9262 52.5021 33.3314 52.8379 32.7604 53.2114C32.1808 53.585 31.6417 54.0182 31.1521 54.5038C30.893 54.7766 30.662 55.0749 30.4628 55.3941C30.3642 55.576 30.2871 55.7688 30.233 55.9685C30.1619 56.2221 30.1619 56.4904 30.233 56.7439C30.3097 57.0239 30.4826 57.268 30.7213 57.4332C30.8904 57.5852 31.0998 57.6849 31.3244 57.7204L31.8701 57.8353L32.3583 57.8927C33.0141 57.9234 33.671 57.8655 34.3113 57.7204C35.4613 57.4564 36.5858 57.0912 37.6715 56.6291C39.5953 55.8233 41.4411 54.8427 43.1857 53.6996C43.9899 53.1827 44.7366 52.637 45.4259 52.12C46.1152 51.6031 46.7183 51.0574 47.264 50.5404L48.0681 49.7937L48.7861 49.047L49.1021 48.6736L49.3893 48.2141C49.5805 47.916 49.6617 47.5605 49.619 47.2089C49.6149 47.1693 49.6025 47.1309 49.5827 47.0963C49.563 47.0617 49.5362 47.0316 49.5041 47.0079C49.479 46.9797 49.4479 46.9574 49.4132 46.9425C49.3785 46.9276 49.3409 46.9205 49.3031 46.9217H48.8723L48.0969 47.1227C47.7601 47.2394 47.4336 47.3835 47.1204 47.5535C46.6321 47.7546 46.3737 47.9269 46.4024 47.9556Z" fill="#FFDA3C"/>
<path d="M16.3896 34.4859C16.0193 33.9981 15.5228 33.6207 14.9536 33.3946C14.7813 33.3084 14.293 33.4233 14.293 33.6818C14.2621 34.3524 14.3496 35.0232 14.5515 35.6635L14.8961 35.2901C14.705 35.3066 14.5124 35.2845 14.3299 35.2253C14.1474 35.1661 13.9786 35.071 13.8335 34.9455C13.7186 34.8306 13.4601 34.888 13.3453 34.9455C13.1835 35.0209 13.0556 35.1539 12.9866 35.3185C12.9176 35.4831 12.9123 35.6675 12.9719 35.8358C13.0293 36.0368 13.2017 36.2379 13.2017 36.4676C13.2063 36.4988 13.2035 36.5307 13.1935 36.5606C13.1835 36.5906 13.1666 36.6177 13.1442 36.6399C13.1729 36.5825 13.1729 36.5825 13.1155 36.5538L12.7996 36.324C12.6273 36.1804 12.0816 36.324 12.0529 36.5825C12.0697 37.0462 11.9813 37.5077 11.7944 37.9323C11.7082 38.1334 11.6795 38.1334 11.5072 38.1047C11.2738 38.0728 11.0362 38.1025 10.8179 38.1908C9.72653 38.7078 10.6743 39.9715 10.6169 40.7756L11.421 40.5459C10.6743 39.713 9.23829 40.6895 9.61165 41.6947C9.69091 41.9313 9.85536 42.13 10.073 42.2521C10.2906 42.3741 10.5459 42.4109 10.7892 42.3552L10.9902 42.2978C11.22 42.1255 10.7892 42.2978 10.8179 42.2403C10.8466 42.1829 10.8753 42.5563 10.8753 42.6137C10.8753 42.6711 10.6743 43.2743 10.7605 43.6189C10.8466 43.9635 11.4785 44.1646 11.9093 44.0497C12.3401 43.9348 12.5411 43.7912 12.5124 43.7051L12.3688 43.6476L12.4262 43.7051C12.4262 43.7051 12.4549 43.8199 12.4837 43.8199L12.5698 44.222C12.5957 44.3386 12.6482 44.4476 12.7231 44.5405C12.798 44.6334 12.8934 44.7078 13.0018 44.7579C13.1102 44.8079 13.2287 44.8322 13.3481 44.8289C13.4674 44.8257 13.5844 44.7949 13.6899 44.739C13.9441 44.6147 14.1618 44.4267 14.3217 44.1933L14.5802 43.8487L14.6377 43.7912H14.6664C14.5802 43.7912 14.5802 43.8199 14.6377 43.8774V43.9635C14.6539 44.2202 14.7121 44.4724 14.81 44.7103C14.8873 44.8148 14.9949 44.893 15.1183 44.9341C15.2416 44.9752 15.3747 44.9773 15.4993 44.94C15.8251 44.8156 16.1055 44.5953 16.3034 44.3082C16.5591 43.9916 16.7896 43.6555 16.9927 43.303L16.2173 43.4466C16.5906 43.9061 17.1076 44.4805 17.7681 44.4518C18.061 44.4174 18.334 44.2859 18.5436 44.0784C18.8021 43.8199 18.9169 43.4179 19.319 43.4179C19.7211 43.4179 19.9796 42.8435 19.4052 42.8435C19.14 42.847 18.88 42.9173 18.6491 43.0478C18.4182 43.1783 18.2239 43.3648 18.0841 43.5902C18.0553 43.6189 17.9117 43.8774 17.883 43.8774C17.8543 43.8774 17.6533 43.7625 17.5958 43.7338C17.3591 43.5491 17.1552 43.3257 16.9927 43.0732C16.8204 42.8435 16.3321 43.0158 16.2173 43.2168L15.7577 43.9061C15.6318 44.1269 15.4545 44.3141 15.2408 44.4518L15.6141 44.3656C15.6429 44.4231 15.6429 44.3943 15.6141 44.3369C15.5868 44.2943 15.5766 44.2431 15.5854 44.1933C15.5499 44.0916 15.5305 43.985 15.528 43.8774C15.5116 43.6756 15.4311 43.4844 15.2982 43.3317C14.9536 42.9871 14.3505 43.2168 14.0058 43.504C13.6612 43.7912 13.6899 43.9348 13.5176 44.1071L13.374 44.2795C13.5176 44.2507 13.5463 44.222 13.4601 44.1646C13.374 44.1071 13.4027 43.9923 13.4027 43.9348C13.4027 43.8774 13.2017 43.1307 12.7134 43.1019C12.4422 43.0995 12.1784 43.1908 11.9667 43.3604C11.8231 43.4753 11.7082 43.6476 11.5933 43.3891C11.4785 43.1307 11.6795 42.8147 11.7082 42.5275C11.7366 42.3318 11.7067 42.132 11.6221 41.9531C11.5697 41.8583 11.4888 41.7823 11.3909 41.7359C11.293 41.6896 11.1829 41.6751 11.0764 41.6947C10.9745 41.696 10.875 41.7258 10.7892 41.7808L10.6456 41.8383C10.7605 41.8383 10.7605 41.8095 10.6743 41.7808C10.5881 41.7521 10.502 41.6085 10.4445 41.4936C10.4062 41.3632 10.3964 41.2261 10.4158 41.0915C10.4158 41.0341 10.4733 40.8331 10.5594 40.8043L10.6456 40.8905C10.8466 41.1203 11.421 41.0054 11.4497 40.6895C11.4785 40.3735 11.1913 39.6843 11.1338 39.1386C11.1338 39.0237 11.1625 38.8801 11.1625 38.7365V38.6503C11.0189 38.6503 11.0189 38.6503 11.1625 38.6791C11.3814 38.7283 11.6094 38.7184 11.8231 38.6503C12.6847 38.3631 12.8283 37.3005 12.8857 36.5251L12.139 36.7835C12.5985 37.1856 13.2304 37.3867 13.7473 36.8984C13.8439 36.8201 13.9185 36.7181 13.9638 36.6023C14.0091 36.4865 14.0236 36.3609 14.0058 36.2379C13.9612 36.0708 13.9036 35.9076 13.8335 35.7496L13.7473 35.5199C13.7473 35.4337 13.8048 35.3188 13.6612 35.405H13.2017C13.4623 35.5979 13.7608 35.7335 14.0776 35.8028C14.3944 35.8721 14.7223 35.8735 15.0397 35.8071C15.1833 35.7783 15.4418 35.6347 15.3844 35.4337C15.2002 34.8487 15.1129 34.2375 15.1259 33.6243L14.4653 33.9115C14.9346 34.0908 15.3362 34.4121 15.6141 34.8306C15.8152 35.1178 16.6193 34.8019 16.3896 34.4859Z" fill="#FFDA3C"/>
<path d="M43.3867 21.5332L43.9898 20.528L43.559 20.7578C43.76 20.7291 44.1047 21.1311 44.3057 21.2173C44.4329 21.2843 44.5727 21.3239 44.7161 21.3338C44.8595 21.3437 45.0034 21.3236 45.1386 21.2747C45.423 21.1885 45.6802 21.0302 45.8853 20.8152L46.1725 20.5567L46.3161 20.4419H46.3736C46.23 20.4419 46.2012 20.4419 46.2874 20.4706C46.3736 20.4993 46.6608 20.7003 46.7182 20.7291C46.8855 20.7811 47.0631 20.791 47.2352 20.7578C47.5998 20.7075 47.9405 20.5472 48.2116 20.2983C48.5276 20.0398 48.8435 19.7239 49.2743 19.6951C49.4757 19.7041 49.6694 19.7751 49.8288 19.8985C49.9882 20.022 50.1055 20.1917 50.1646 20.3844C50.2508 20.6716 50.8826 20.4993 50.9688 20.2983C51.0549 20.0972 51.6006 18.9197 52.0027 19.6377C52.4048 20.3557 52.2037 20.4419 52.7494 20.4419C53.2951 20.4419 53.2089 20.3844 53.2951 20.2121C53.3424 20.1196 53.4002 20.0329 53.4674 19.9536C53.4904 19.9026 53.5313 19.8618 53.5823 19.8387C53.6397 19.7813 53.611 19.7813 53.5248 19.81C53.5676 19.8895 53.5899 19.9783 53.5899 20.0685C53.5899 20.1587 53.5676 20.2475 53.5248 20.327C53.3812 20.5855 52.9792 20.7865 53.2376 21.1024C53.4961 21.4183 53.8982 21.3609 54.2141 21.3322C54.53 21.3035 54.7024 21.4183 54.6449 21.763C54.5875 22.1076 54.3577 22.1363 54.1854 22.2799C54.0131 22.4235 53.9556 22.5097 54.0992 22.6246C54.44 22.8512 54.7574 23.1109 55.047 23.4L55.1906 23.6011L55.3055 23.5149H55.0757C54.7311 23.5723 53.9556 23.8021 54.2716 24.2903C54.5875 24.7786 54.4726 24.4627 54.5588 24.5775C54.5836 24.6246 54.5989 24.6762 54.6037 24.7292C54.6085 24.7822 54.6027 24.8356 54.5866 24.8864C54.5706 24.9372 54.5446 24.9842 54.5103 25.0249C54.4759 25.0655 54.4338 25.099 54.3864 25.1232C54.0992 25.2668 53.7259 25.2094 53.4387 25.4391C53.1515 25.6689 53.5536 26.3295 53.4674 26.8464C53.3812 27.3634 54.2428 27.0475 54.3003 26.7603C54.3577 26.4731 54.1854 26.2146 54.0705 25.9561C54.0417 25.8923 54.0223 25.8245 54.0131 25.7551C53.9844 25.6402 53.9269 25.6976 54.0705 25.6402L54.6162 25.5253C54.7885 25.4843 54.9486 25.4031 55.0834 25.2883C55.2181 25.1735 55.3238 25.0283 55.3916 24.8647C55.4569 24.7303 55.4672 24.5758 55.4204 24.4339C55.3629 24.2616 55.2193 24.2042 55.1332 24.0606L55.0757 24.0031C55.0757 23.917 55.047 23.8883 54.9896 23.9457C54.9321 24.0031 54.9321 24.0031 54.9608 23.9744H55.2768C55.5268 23.9483 55.7601 23.8367 55.9373 23.6585C56.1384 23.4287 55.966 23.199 55.765 23.0267C55.4627 22.7117 55.1254 22.4323 54.7598 22.1938L54.7024 22.5384C55.1044 22.2512 55.7076 21.763 55.4204 21.1886C55.3446 21.0838 55.2454 20.9981 55.1308 20.9383C55.0161 20.8785 54.8891 20.8462 54.7598 20.8439C54.5013 20.8439 54.0418 21.0163 53.9844 20.6716L53.8982 20.8439C54.2428 20.528 54.7598 19.7526 54.1567 19.4079C53.5536 19.0633 52.8068 19.6664 52.5196 20.1834L53.0653 19.9536C52.9792 19.9536 52.8068 19.3505 52.7494 19.2643C52.647 19.1367 52.515 19.0359 52.3649 18.9709C52.2147 18.9058 52.051 18.8784 51.8878 18.891C51.0262 18.9197 50.538 19.5515 50.1933 20.2695L50.9975 20.1834C50.6816 19.2069 49.5328 19.0633 48.6999 19.3792C48.4517 19.4787 48.2194 19.6142 48.0106 19.7813C47.8383 19.8962 47.6085 20.2121 47.4075 20.2695C47.2064 20.327 47.2639 20.2695 47.149 20.1834C47.0402 20.1146 46.9247 20.0568 46.8044 20.0111C46.6367 19.9542 46.455 19.9542 46.2874 20.0111C45.9302 20.089 45.6078 20.2805 45.3684 20.5567C45.2642 20.6839 45.1376 20.791 44.995 20.8727H44.9663C45.0812 20.8439 45.0812 20.8439 44.9663 20.8152L44.7078 20.6429C44.5735 20.5085 44.4112 20.4054 44.2325 20.3408C44.0538 20.2763 43.8631 20.252 43.6739 20.2695C43.1282 20.3557 42.8697 21.0737 42.6112 21.5045C42.3528 21.9353 43.2431 21.763 43.3867 21.5332Z" fill="#FFDA3C"/>
<path d="M19.6053 15.5307L25.0046 13.5491L28.4223 12.2854C29.1978 11.9982 30.404 11.711 30.4614 10.7058C30.4902 10.1888 30.1455 9.58571 29.9732 9.09747C29.8009 8.60923 29.5424 7.83379 28.767 7.66147C27.9915 7.48915 26.9863 8.03483 26.2396 8.29331L19.1458 10.9068C18.4852 11.1653 17.5662 11.3376 17.0779 11.8546C16.5897 12.3715 16.7907 13.0608 17.0205 13.7214L17.3651 14.6404C17.4391 14.8797 17.5558 15.1035 17.7098 15.301C17.9396 15.4978 18.2172 15.6306 18.5147 15.686C18.8121 15.7415 19.1189 15.7177 19.4042 15.6169C19.6914 15.5307 20.2084 15.2723 20.0935 14.8989C19.9786 14.5255 19.4042 14.5543 19.1458 14.6404C18.8873 14.7266 19.2606 14.6404 19.2606 14.6404C19.2606 14.6117 19.1745 14.5543 19.1458 14.4968C19.117 14.4394 19.117 14.4107 19.0883 14.3532C19.0596 14.2958 18.916 13.865 18.8011 13.6065L18.5139 12.8311C18.4565 12.6587 18.3416 12.4577 18.4565 12.2854H18.4852L18.7437 12.1992L19.7489 11.8259L26.4119 9.32723C27.015 9.09747 27.6756 8.92515 28.25 8.63795H28.1351C28.1638 8.63795 27.8766 8.72411 27.8766 8.66667C27.8766 8.60923 27.9628 8.83899 27.9341 8.69539C27.9054 8.55179 28.0203 8.81027 28.049 8.86771C28.1279 9.01536 28.1952 9.16901 28.25 9.32723C28.3936 9.78675 28.5946 10.2463 28.7382 10.7058C28.7801 10.8168 28.7801 10.9394 28.7382 11.0504C28.7382 11.0791 28.7957 11.0217 28.767 11.0504L28.5946 11.1079L27.733 11.4238L24.6313 12.5726C22.7645 13.2619 20.869 13.9224 19.0309 14.6404H18.916C18.6575 14.7553 18.2554 15.0999 18.5139 15.4159C18.7724 15.7318 19.3181 15.6456 19.6053 15.5307Z" fill="#171736"/>
<path d="M18.3699 49.9373C18.3124 50.8563 19.6623 51.201 20.3515 51.3733C21.5703 51.6697 22.8083 51.8809 24.0564 52.0051L26.4115 52.2349C27.2448 52.2588 28.0788 52.2397 28.9101 52.1775C29.8866 52.1487 30.8918 52.0913 31.897 51.9764C35.5731 51.6318 39.278 50.8276 42.6383 49.248C45.8324 47.7735 48.6286 45.5581 50.7947 42.786C51.124 42.3785 51.4216 41.9465 51.6851 41.4936C51.8574 41.1203 52.0584 40.7469 52.2307 40.3448C52.8116 39.1916 53.2643 37.9781 53.5806 36.7261C53.6954 36.123 53.7816 35.2614 53.1498 34.9167C52.5179 34.5721 52.3456 34.4859 51.9435 34.2849L46.5155 31.5565L39.7663 28.1675L34.7403 25.6115C34.4255 25.4757 34.1187 25.3222 33.8212 25.1519C33.7638 25.1232 33.9361 25.2668 33.8212 25.1519C33.6621 24.9963 33.5353 24.8109 33.4479 24.6063C33.425 24.5726 33.4148 24.5319 33.4191 24.4914L33.1607 23.8308L30.7195 17.6847C30.0876 16.0477 29.4558 14.4107 28.7952 12.8023C28.7014 12.4848 28.5385 12.1921 28.318 11.9451C28.0976 11.6981 27.8251 11.5031 27.5203 11.374C27.2154 11.2449 26.8857 11.185 26.555 11.1986C26.2242 11.2122 25.9005 11.2989 25.6073 11.4525L22.563 12.5726L21.4142 12.9747C21.059 13.1201 20.7478 13.3554 20.5111 13.6575C20.2744 13.9597 20.1205 14.3182 20.0643 14.6979C20.0069 15.3871 20.2941 15.9903 20.5239 16.6221L22.8215 22.9118C23.4533 24.6063 24.0851 26.3007 24.6883 27.9665C24.8592 28.3456 24.8898 28.7732 24.7744 29.1727L24.2575 30.7811L22.3907 36.8984L20.1792 44.0784L18.5996 49.1906L18.3699 49.9373C18.255 50.3394 18.8581 50.483 19.1166 50.4543C19.3194 50.4532 19.5169 50.3891 19.6816 50.2707C19.8462 50.1523 19.97 49.9856 20.0356 49.7937L20.9259 47.0079L22.8789 40.632L25.0042 33.6818L26.4115 29.1727C26.5843 28.6702 26.5843 28.1244 26.4115 27.6219L25.8945 26.272L23.5107 19.8387C22.9651 18.3453 22.3907 16.8519 21.8737 15.3584C21.7918 15.1481 21.7527 14.9235 21.7588 14.6979C21.755 14.5096 21.7943 14.3229 21.8737 14.1522C21.9599 13.9799 21.9886 13.9799 22.0747 13.9511L22.8502 13.6639L26.0094 12.4864L26.4115 12.3428C26.5263 12.3141 26.354 12.3715 26.2966 12.4003H26.4402C26.7804 12.5856 27.0372 12.8937 27.1582 13.2619L27.8475 15.0138L30.4323 21.6194L31.4662 24.2616C31.7247 24.8935 31.9257 25.6976 32.5288 26.071C32.7525 26.2234 32.9935 26.3488 33.2468 26.4443L35.1423 27.4208L41.1448 30.4364L47.6355 33.7105L51.6563 35.7496L51.9435 35.8932H51.9723C51.9148 35.8932 51.8286 35.7496 51.9148 35.8645C52.001 35.9794 51.9148 35.8358 51.9148 35.8358C51.9148 35.8358 51.9435 36.0081 51.9723 36.0943C51.9723 35.9794 52.001 36.1804 51.9723 36.0943V36.2953C51.8861 37.4441 51.3979 38.5067 50.9383 39.5694L50.2491 41.0054C50.1933 41.1356 50.126 41.2605 50.048 41.3787C50.048 41.4075 50.0193 41.4362 50.0193 41.4936H49.9906C50.0767 41.35 49.9619 41.5511 49.9331 41.6085C48.9605 42.9782 47.8329 44.231 46.5729 45.3421C44.0473 47.4276 41.0971 48.937 37.9282 49.765C36.1957 50.2314 34.4285 50.5579 32.6437 50.7415C31.6959 50.8563 30.7482 50.9425 29.8004 50.9712L28.2495 51.0287H27.1582C27.1007 51.0287 26.8423 50.9999 27.0433 51.0287L25.0616 50.8563L23.281 50.6266L22.3619 50.483L21.9599 50.3968H21.8737L21.6152 50.3394C21.1755 50.2358 20.7437 50.1014 20.3228 49.9373C20.4951 49.9947 20.2654 49.8799 20.2079 49.8511C20.1505 49.8224 20.0069 49.6788 20.1218 49.8224L20.0069 49.6788C20.0643 49.7363 20.0931 49.8224 20.0356 49.7363C19.9782 49.6501 20.0356 49.8511 20.0356 49.765C20.1218 48.9608 18.4273 49.2193 18.3699 49.9373Z" fill="#171736"/>
<path d="M18.7715 11.6535L18.8576 14.6691C18.8576 15.0712 19.5756 15.0425 19.6905 14.6979C19.8708 13.995 20.121 13.3119 20.4372 12.6587C20.7769 12.0521 21.0651 11.418 21.2988 10.7632H20.4947C20.5808 11.9982 20.2936 13.2619 20.6383 14.4681C20.7532 14.8702 21.4137 14.6691 21.4712 14.3245C21.7584 13.0608 22.4476 11.9407 22.7348 10.6483L21.8732 10.7058C21.8891 11.7927 22.0831 12.8696 22.4476 13.8937C22.4915 13.9872 22.5697 14.0602 22.6659 14.0976C22.7622 14.1351 22.8691 14.134 22.9646 14.0947C23.249 14.0085 23.5062 13.8502 23.7113 13.6352C23.9411 13.3767 23.9411 12.9747 23.9698 12.63C24.0847 11.7397 24.1421 10.8494 24.2857 9.95907L23.4241 10.1027C23.7113 11.1653 24.6016 11.912 24.975 12.9172C25.1186 13.2619 25.6643 13.147 25.8079 12.8598C26.0199 12.2954 26.202 11.7202 26.3536 11.1366C26.5546 10.3611 26.7844 9.58571 27.0141 8.81027H26.21C26.588 9.83426 26.8669 10.8922 27.0428 11.9695C27.1003 12.1705 27.3875 12.1992 27.5598 12.1418C28.1629 11.9982 28.3065 11.2802 28.364 10.7345C28.4214 10.1888 28.364 9.35595 28.565 8.66667L27.7608 8.86771C28.2204 9.58571 29.082 10.0739 29.2543 10.9355C29.3117 11.3376 30.1446 11.1366 30.0872 10.7058C29.8861 9.75803 29.0245 9.26979 28.5076 8.49435C28.3065 8.20715 27.7896 8.43691 27.7034 8.72411C27.5832 9.22205 27.5348 9.73463 27.5598 10.2463C27.5549 10.4865 27.5357 10.7263 27.5024 10.9643L27.4162 11.3663C27.3842 11.4187 27.3645 11.4776 27.3588 11.5387C27.3013 11.6248 27.3013 11.6248 27.3875 11.5387L27.8757 11.7397C27.6998 10.6718 27.4208 9.6234 27.0428 8.60923C26.928 8.29331 26.3248 8.35075 26.21 8.66667C25.9802 9.44211 25.7504 10.2175 25.5494 10.993C25.4152 11.5814 25.2327 12.1578 25.0037 12.7162L25.8079 12.6587C25.4345 11.6535 24.5442 10.9068 24.257 9.84419C24.1708 9.44211 23.4816 9.64315 23.4241 9.98779C23.3667 10.3324 23.2805 11.3376 23.1944 11.9982L23.1082 12.9459C23.0795 13.1757 23.0795 13.3767 22.7923 13.4629L23.2805 13.6639C22.914 12.6911 22.7291 11.6592 22.7348 10.6196C22.7061 10.1601 21.9594 10.3037 21.8732 10.6771C21.6148 11.9407 20.8968 13.0895 20.6383 14.3532L21.4712 14.2096C21.1265 13.0608 21.4137 11.8546 21.3276 10.6771C21.2988 10.275 20.6096 10.3037 20.4947 10.6483C20.261 11.3032 19.9728 11.9372 19.6331 12.5439C19.3294 13.2022 19.0796 13.8842 18.8864 14.583H19.6905L19.6331 11.5961C19.6044 11.1366 18.7715 11.2515 18.7715 11.6535Z" fill="#171736"/>
<path d="M27.9047 36.2379L27.5027 36.2953C27.1026 36.3469 26.6998 36.3757 26.2964 36.3815H25.9231L25.6933 36.324C25.6522 36.2848 25.6224 36.2352 25.6071 36.1804C25.572 36.059 25.5527 35.9335 25.5497 35.8071C25.521 35.2901 25.9231 34.6295 26.4687 34.0264C27.8459 32.6987 29.4774 31.6632 31.265 30.9821C32.2495 30.5761 33.2683 30.2589 34.3093 30.0343C34.8097 29.9111 35.3184 29.8247 35.8315 29.7759C36.0266 29.7695 36.2212 29.7987 36.4059 29.862L36.5495 29.9195V30.0056C36.4488 30.0973 36.3433 30.1836 36.2335 30.2641L35.4868 30.8672L34.0221 31.9299C33.1027 32.5738 32.1434 33.1589 31.1501 33.6818C29.8003 34.4285 29.0535 34.8019 28.8238 34.9742C28.594 35.1465 28.9099 35.1465 29.6567 34.9167C30.7828 34.5446 31.8776 34.0836 32.9307 33.5382C33.7129 33.1544 34.4706 32.7228 35.1996 32.2458C35.6017 31.9969 36.0038 31.7097 36.4059 31.3842L37.0377 30.9247L37.3536 30.58C37.5056 30.3916 37.5959 30.161 37.6121 29.9195C37.6149 29.7977 37.5935 29.6766 37.5492 29.5632C37.5048 29.4498 37.4383 29.3464 37.3536 29.2589C37.2818 29.1675 37.1943 29.0897 37.0951 29.0291L36.8654 28.9143L36.3484 28.7419H35.8889C35.3079 28.7563 34.7302 28.8333 34.1657 28.9717C33.0166 29.2006 31.8915 29.5371 30.8055 29.9769C29.6699 30.4363 28.5907 31.024 27.5888 31.7288C27.0846 32.0995 26.605 32.5024 26.1528 32.9351C25.6741 33.3805 25.2757 33.9051 24.9753 34.4859C24.7122 34.9578 24.6019 35.4996 24.6594 36.0368C24.6844 36.1743 24.7229 36.309 24.7743 36.4389C24.8237 36.581 24.8913 36.7161 24.9753 36.841C25.0999 36.9625 25.246 37.0599 25.4061 37.1282L25.8082 37.2143H27.0431L28.1345 37.042C29.3261 36.7833 30.4972 36.4378 31.6383 36.0081C33.0738 35.5203 34.4666 34.9151 35.8027 34.1987C36.5731 33.7995 37.3039 33.3283 37.9855 32.7915C38.6726 32.2187 39.264 31.5401 39.7374 30.7811C40.0246 30.2928 40.082 30.0918 40.0246 30.1205C39.9501 30.1796 39.8826 30.247 39.8235 30.3215L39.6512 30.5513L39.4215 30.8098C38.9718 31.2999 38.4819 31.7514 37.9567 32.1596C37.2324 32.687 36.4745 33.1667 35.6879 33.5956C34.0188 34.4354 32.2794 35.1273 30.4895 35.6635C29.6454 35.9264 28.7808 36.1185 27.9047 36.2379Z" fill="#171736"/>
<path d="M23.5977 50.9138L34.3964 43.6476L25.8953 39.1386L23.5977 50.9138Z" fill="#FFDA3C"/>
<path d="M36.2047 38.5067C36.2104 37.9647 36.0545 37.4333 35.7569 36.9802C35.4593 36.5272 35.0335 36.173 34.5337 35.963C34.034 35.7529 33.4831 35.6965 32.9512 35.8008C32.4193 35.9052 31.9305 36.1656 31.5472 36.5489C31.1639 36.9322 30.9034 37.421 30.7991 37.9529C30.6947 38.4848 30.7512 39.0358 30.9612 39.5355C31.1713 40.0352 31.5254 40.461 31.9785 40.7586C32.4316 41.0562 32.963 41.2121 33.505 41.2064C33.8595 41.2064 34.2106 41.1366 34.5381 41.0009C34.8657 40.8652 35.1633 40.6664 35.414 40.4157C35.6647 40.165 35.8635 39.8674 35.9992 39.5399C36.1349 39.2123 36.2047 38.8613 36.2047 38.5067Z" fill="#FFDA3C"/>
<path d="M49.3016 41.2064C49.2959 40.6737 49.1327 40.1546 48.8327 39.7145C48.5326 39.2743 48.109 38.9327 47.6152 38.7328C47.1215 38.5329 46.5796 38.4835 46.0578 38.5909C45.536 38.6983 45.0577 38.9576 44.683 39.3363C44.3083 39.715 44.054 40.196 43.9522 40.7189C43.8503 41.2418 43.9054 41.7832 44.1106 42.2748C44.3157 42.7664 44.6617 43.1864 45.105 43.4818C45.5484 43.7772 46.0692 43.9348 46.6019 43.9348C46.9588 43.9348 47.3122 43.8641 47.6417 43.7266C47.9711 43.5891 48.27 43.3877 48.5211 43.134C48.7721 42.8802 48.9704 42.5792 49.1044 42.2484C49.2383 41.9175 49.3053 41.5634 49.3016 41.2064Z" fill="#FFDA3C"/>
<path d="M43.7293 32.3032L37.3822 35.2039L36.4919 35.606C36.4057 35.6635 36.2047 35.7783 36.2621 35.9219L38.5597 42.2404L38.9044 43.1594C38.9905 43.3892 39.4213 43.303 39.5649 43.1881L47.865 37.2718L49.0425 36.4676C49.1574 36.3527 49.2436 36.2091 49.1 36.0943L44.8494 32.7627L44.2176 32.2745C43.9878 32.1022 43.2124 32.4468 43.557 32.7053L47.8076 36.0368L48.4394 36.5251L48.4968 36.1517L40.1968 42.068L39.048 42.9009H39.7372L37.4109 36.5538L37.095 35.6635L36.8365 35.9794L43.1549 33.0787L44.074 32.6766C44.1888 32.6191 44.3899 32.4468 44.275 32.3032C44.1601 32.1596 43.8442 32.2458 43.7293 32.3032Z" fill="#171736"/>
<path d="M37.1533 36.0081C37.0097 36.6112 37.2108 37.0995 37.3257 37.7026C37.4405 38.3057 38.0724 37.7026 38.1585 37.5303C38.4745 36.6687 38.7329 35.8071 39.0776 34.9455L38.2447 35.0891C37.9288 36.7548 38.2447 38.4493 38.1873 40.1725C38.1585 40.3735 38.9627 40.1725 39.0201 40.0002C39.5084 38.3344 39.7094 36.5825 40.3413 34.9742L39.5084 35.1178C39.1925 37.6164 39.3361 40.1725 39.0201 42.6999C38.9914 42.9583 39.8243 42.786 39.853 42.5563C40.1115 41.0341 40.0828 39.4545 40.2838 37.9323C40.3832 37.2724 40.5271 36.6199 40.7146 35.9794C40.8567 35.2609 41.1189 34.5716 41.4901 33.9403L40.6859 33.9977C40.2838 36.8984 39.8243 39.7991 39.4222 42.6999C39.3648 42.9583 40.1689 42.786 40.2264 42.5563L42.5527 33.2797L41.7485 33.3946C41.4901 36.0368 41.289 38.6503 41.0305 41.2926C41.0305 41.5511 41.8347 41.3787 41.8634 41.149L43.443 33.251L42.6101 33.4233C42.4665 35.8358 42.2655 38.2483 42.1506 40.632C42.1506 40.8331 42.9261 40.6607 42.9835 40.4597C43.5678 37.8918 44.0089 35.2934 44.3046 32.6766C44.3333 32.4468 43.5005 32.5904 43.4717 32.8202C43.1845 35.1178 43.242 37.4154 43.2707 39.713C43.2707 39.9427 44.0461 39.6843 44.1036 39.5407C44.7535 37.6827 45.2341 35.7699 45.5396 33.8254L44.7354 33.9977C44.678 35.5773 44.7354 37.1569 44.7067 38.7365C44.678 38.9663 45.4534 38.7365 45.5109 38.5642C45.9704 37.2431 46.114 35.8071 46.5735 34.4572L45.7406 34.6008C45.597 35.8358 45.8268 37.042 45.8268 38.277C45.8268 38.5355 46.6022 38.2195 46.6597 38.1047C47.0581 37.3956 47.376 36.6442 47.6074 35.8645L46.7745 36.0368L46.9756 37.5877C47.033 37.8462 47.6936 37.5303 47.7797 37.4728C48.0847 37.1961 48.3207 36.8518 48.469 36.4676C48.5265 36.2666 47.7223 36.3527 47.6361 36.5825C47.4968 36.9252 47.2919 37.2373 47.033 37.5015L47.8085 37.3579L47.6074 35.8071C47.5787 35.5773 46.832 35.8071 46.8033 35.9794C46.5602 36.7594 46.2328 37.5106 45.8268 38.2195L46.6597 38.0472C46.6597 36.8697 46.4299 35.6635 46.5735 34.4572C46.6022 34.1987 45.8268 34.3998 45.7406 34.6008C45.3098 35.9507 45.1662 37.3579 44.7067 38.7078L45.5396 38.5355C45.5683 36.9559 45.5109 35.3475 45.5683 33.7679C45.5683 33.5956 44.7641 33.7392 44.7354 33.969C44.4066 35.902 43.9167 37.8042 43.2707 39.6555L44.1036 39.4832C44.0749 37.2143 44.0174 34.9455 44.3046 32.6766L43.4717 32.8202C43.204 35.4409 42.7627 38.041 42.1506 40.6033L42.9835 40.431C43.0984 38.0185 43.2994 35.606 43.443 33.2223C43.443 33.0212 42.6389 33.1935 42.6101 33.3946L41.0305 41.2926L41.8634 41.149C42.1219 38.5355 42.3229 35.8932 42.5527 33.2797C42.5814 33.0212 41.7773 33.1935 41.7485 33.3946L39.4222 42.6999L40.2264 42.5563L41.5188 33.8828C41.5475 33.5956 40.8008 33.8254 40.7146 33.969C40.3513 34.5733 40.0894 35.233 39.9392 35.9219C39.7285 36.5874 39.5748 37.2696 39.4797 37.9611C39.2499 39.5407 39.2786 41.1203 39.0201 42.6999L39.853 42.5563C40.1689 40.0576 40.0253 37.5015 40.3413 34.9742C40.37 34.7157 39.5945 34.9167 39.5084 35.1178C38.8765 36.7261 38.7042 38.4493 38.1873 40.1151L39.0201 39.9427C39.0776 38.277 38.7617 36.6112 39.0776 34.9455C39.135 34.687 38.3309 34.8593 38.2447 35.0891C37.9288 35.9219 37.6416 36.8123 37.3257 37.6739L38.1585 37.4728C38.0437 36.9271 37.8426 36.4389 37.9862 35.8645C38.1298 35.2901 37.2108 35.7496 37.1533 36.0081Z" fill="#171736"/>
<path d="M33.9931 48.7598L33.3613 50.9712C33.3038 51.2297 34.0793 50.9712 34.1654 50.8851L36.0322 48.9321L35.3142 49.1044L36.8938 49.5352C37.4395 49.6788 38.1575 49.9947 38.7032 49.7363C38.7319 49.7075 38.9042 49.6214 38.8755 49.5352C38.8468 49.4491 38.6458 49.3629 38.5596 49.2767L37.899 48.7885L36.9226 48.0131V48.1279L38.8755 45.8016C39.0478 45.5719 38.5309 45.658 38.4447 45.6867L34.9983 46.5771H35.4291L34.108 44.8826C33.9931 44.739 33.2464 44.94 33.3038 45.1411C33.3524 45.4931 33.3716 45.8485 33.3613 46.2037C33.3613 46.5483 33.39 46.8643 33.39 47.2089L33.6772 47.0079L30.4606 48.0992C30.317 48.1567 30.0298 48.3577 30.3457 48.3864L34.1367 48.8747C34.3395 48.9016 34.5449 48.8502 34.7111 48.7311C34.826 48.6162 34.826 48.5587 34.6537 48.53L30.8626 48.0418L30.7478 48.329L33.9357 47.2089C34.0218 47.1802 34.1942 47.1227 34.1942 47.0079C34.1942 46.893 34.1654 46.3186 34.1654 45.9739C34.1749 45.6188 34.1557 45.2634 34.108 44.9113L33.3038 45.1698L34.625 46.8643C34.6824 46.9504 34.9696 46.893 35.0558 46.8643L38.5022 45.9739L38.0714 45.8303L36.1471 48.1854C36.1184 48.2141 36.0897 48.2715 36.1184 48.3003L37.0662 49.0183L37.7267 49.5352L37.9565 49.7075C37.9852 49.7363 38.0714 49.8224 38.0426 49.765L38.215 49.5927L38.617 49.4778C38.8181 49.4778 38.6458 49.4778 38.5596 49.4491L38.215 49.3629L37.2672 49.1331L35.9748 48.7885C35.8497 48.7677 35.7217 48.7723 35.5983 48.8019C35.475 48.8315 35.3589 48.8855 35.2568 48.9608L33.4187 50.9425L34.1942 50.8276L34.7973 48.6449C34.8547 48.4439 34.0506 48.5587 33.9931 48.7598Z" fill="#171736"/>
<path d="M31.8408 47.7833C31.8265 48.032 31.8265 48.2813 31.8408 48.53C31.8695 48.846 32.5014 48.5875 32.5875 48.5013L33.5353 47.6684H32.7886C32.8281 47.9707 32.8954 48.2688 32.9896 48.5588C33.0758 48.846 33.6789 48.6449 33.7938 48.4726C34.2629 47.6723 34.5566 46.7814 34.6554 45.8591L33.8225 45.974C33.8225 46.9217 33.7651 47.9269 34.0235 48.846C34.1097 49.1619 34.7415 48.9608 34.8277 48.7598L35.7467 46.8356H34.9426C34.8564 47.8982 34.4256 48.9034 34.1097 49.9086C34.0523 50.0809 34.3395 50.1096 34.4256 50.1096C34.5193 50.1119 34.6121 50.0923 34.6969 50.0524C34.7816 50.0125 34.8559 49.9534 34.9139 49.8799L36.9243 46.4335H36.1201C36.0339 47.2089 35.6893 47.9556 35.6031 48.7311C35.517 49.5065 36.2924 48.9034 36.4073 48.7024C36.953 47.8408 37.4699 46.9217 38.0443 46.0601C38.1305 45.8878 37.9295 45.8016 37.7859 45.7729C37.6816 45.7738 37.5788 45.7974 37.4845 45.842C37.3903 45.8866 37.3069 45.9513 37.2402 46.0314C36.6945 46.893 36.1775 47.7833 35.6319 48.6736H36.436C36.5222 47.8982 36.8668 47.1515 36.953 46.376C37.0391 45.6006 36.2637 46.2037 36.1488 46.4048L34.1384 49.8224H34.9426C35.2585 48.8172 35.6893 47.7833 35.7755 46.7494C35.8042 46.376 35.0862 46.5771 34.9713 46.7781L34.0523 48.7024L34.8564 48.6162C34.5979 47.7259 34.6554 46.7494 34.6554 45.8304C34.6267 45.4857 33.8512 45.6293 33.8225 45.9452C33.7433 46.8095 33.4683 47.6443 33.0183 48.3864L33.8225 48.3003C33.7283 48.0103 33.661 47.7123 33.6215 47.41C33.564 47.094 32.9896 47.3238 32.846 47.4387L31.927 48.2716H32.6737C32.6593 48.0708 32.6593 47.8692 32.6737 47.6684C32.6737 47.2951 31.8408 47.4674 31.8408 47.7546V47.7833Z" fill="#171736"/>
</g>
<defs>
<clipPath id="clip0_506_8487">
<rect width="57.44" height="57.44" fill="white" transform="translate(3.26367 3.29601)"/>
</clipPath>
</defs>
</svg>
