<svg width="360" height="104" viewBox="0 0 360 104" fill="none" xmlns="http://www.w3.org/2000/svg">
<rect width="360" height="104" fill="#642CE8"/>
<g clip-path="url(#clip0_1_1232)">
<path d="M290.508 70.9758C293.578 78.9229 298.129 86.1619 300.846 94.2115C302.965 100.489 304.364 106.848 305.708 113.302C306.769 118.393 307.09 123.802 307.09 129.014" stroke="#3413B2" stroke-linecap="round" stroke-linejoin="round"/>
<path d="M268.566 94.068C268.566 102.943 268.174 111.876 269.487 120.682C270.309 126.195 271.329 131.362 271.329 136.957C271.329 137.557 271.625 145.986 273.172 142.894" stroke="#3413B2" stroke-linecap="round" stroke-linejoin="round"/>
<path d="M-0.229485 42.3543C7.44306 40.905 22.5989 42.7343 20.849 31.3083C19.2756 21.0351 11.5086 12.8522 0.733235 13.3207C-9.73017 13.7756 -17.6004 24.2726 -20.3959 33.5378C-24.2965 46.4655 -14.8293 53.1227 -2.96564 54.5656C8.40072 55.948 32.9136 58.4514 37.8739 43.5703C42.0631 31.0028 29.7309 21.552 21.1024 14.8914C16.4746 11.3191 11.2673 7.93886 7.26959 3.64281C4.9203 1.1182 4.12358 -0.850631 0.682566 -1.42413" stroke="#3413B2" stroke-linecap="round" stroke-linejoin="round"/>
<path d="M346.734 72.1104C341.923 71.2933 337.122 70.416 332.312 69.5914C324.802 68.304 333.535 70.5449 334.633 70.8262C339.795 72.1482 345.01 73.5543 350.241 74.5799C354.54 75.423 351.871 73.0983 350.093 71.6165C343.229 65.8966 333.091 64.3804 326.681 58.4289C324.732 56.6193 331.79 56.8226 334.436 56.5521C338.573 56.1289 343.89 56.294 347.673 54.2307C349.159 53.42 349.528 52.2904 348.117 51.1684C347.876 50.9769 344.556 49.4114 345.252 49.3903C347.983 49.3076 364.761 51.6601 363.33 47.4146C361.482 41.9356 355.157 37.7378 350.488 35.0668C339.415 28.733 327.228 24.67 315.222 20.5457C306.574 17.5746 306.945 17.443 310.283 10.7662" stroke="#3413B2" stroke-linecap="round" stroke-linejoin="round"/>
<path d="M183.773 59.9633C189.07 58.0938 196.018 56.7214 200.7 53.4265C202.727 52.0002 198.891 50.81 198.154 50.5365C186.179 46.0941 174.222 41.7899 162.511 36.6371C158.045 34.6719 152.342 32.9002 148.405 29.8938C146.653 28.556 152.671 28.6134 154.873 28.5176C161.47 28.2308 168.09 28.4016 174.69 28.38C176.513 28.374 186.345 29.5275 187.798 27.3479C190.35 23.5208 167.223 13.4204 165.367 12.6227C162.068 11.2056 161.36 11.0297 158.279 9.9736C157.469 9.69581 155.571 9.59399 155.974 8.83825C156.788 7.31311 162.17 6.85914 163.715 6.42993C171.155 4.36323 166.238 1.64638 161.273 -0.0725162C157.479 -1.38582 153.688 -2.18647 149.747 -2.85928C146.243 -3.45748 154.626 -2.58793 154.667 -2.58404" stroke="#3413B2" stroke-linecap="round" stroke-linejoin="round"/>
<path d="M145.997 61.2018C151.672 66.1994 156.162 71.9859 161.479 77.3031" stroke="#3413B2" stroke-linecap="round" stroke-linejoin="round"/>
<path d="M75.3975 39.5271C83.4738 26.8486 91.8313 14.4423 100.788 2.37024" stroke="#3413B2" stroke-linecap="round" stroke-linejoin="round"/>
<path d="M274.592 30.6037C273.143 32.3162 260.901 49.0929 256.767 46.7307C255.215 45.8436 268.6 21.36 269.742 18.2357C272.993 9.33787 260.291 18.8868 257.556 20.2364C254.971 21.5113 240.429 27.0825 240.64 26.8448C243.98 23.0874 250.228 19.2549 251.978 14.3555C252.416 13.1289 236.79 17.0853 234.699 17.5082C228.016 18.8598 230.319 15.4165 232.638 10.7785C235.898 4.25871 236.638 0.165284 234.214 -6.50037" stroke="#3413B2" stroke-linecap="round" stroke-linejoin="round"/>
<path d="M55.2412 63.3425C70.8296 63.3425 86.4749 63.0134 102.046 63.8882C109.782 64.3228 104.29 65.428 100.833 66.3739C96.9076 67.4483 71.2325 73.6933 73.187 79.1057C74.6772 83.2326 80.7638 83.4634 84.2212 84.0166C87.0093 84.4626 89.3944 84.7896 92.1634 85.0472C93.1568 85.1396 95.3967 84.4485 95.1342 85.411C94.2383 88.696 77.196 93.0432 85.07 97.7184C89.426 100.305 94.8022 100.85 99.6206 102.144C103.799 103.267 96.6961 104.232 95.8011 104.448C88.0088 106.333 78.4406 106.849 71.2469 110.511C68.3936 111.963 77.173 113.139 80.341 113.603C80.7004 113.655 91.8637 114.461 90.1627 116.816C89.699 117.458 88.5826 118.373 89.6777 118.999C90.9337 119.716 94.4524 120.166 93.4366 121.181" stroke="#3413B2" stroke-linecap="round" stroke-linejoin="round"/>
<path d="M194.928 98.2642C194.843 104.112 193.837 109.906 193.837 115.725" stroke="#3413B2" stroke-linecap="round" stroke-linejoin="round"/>
<path d="M364.259 101.856C367.465 104.375 370.611 106.148 372.826 109.472" stroke="#3413B2" stroke-width="9.91746" stroke-linecap="round" stroke-linejoin="round"/>
</g>
<defs>
<clipPath id="clip0_1_1232">
<rect width="360" height="104" fill="white"/>
</clipPath>
</defs>
</svg>
