<svg width="30" height="30" viewBox="0 0 30 30" fill="none" xmlns="http://www.w3.org/2000/svg">
<mask id="mask0_320_2943" style="mask-type:alpha" maskUnits="userSpaceOnUse" x="0" y="0" width="30" height="30">
<rect x="0.454102" y="0.454544" width="29.0909" height="29.0909" fill="#D9D9D9"/>
</mask>
<g mask="url(#mask0_320_2943)">
<path d="M22.2117 15.9091V14.0909H26.6057V15.9091H22.2117ZM23.6057 24.0606L20.0905 21.4242L21.2117 20L24.7269 22.6061L23.6057 24.0606ZM21.1511 9.96969L20.0602 8.51515L23.5754 5.87878L24.6663 7.33333L21.1511 9.96969ZM6.8178 22.8485V18.1212H5.57537C4.96931 18.1212 4.45416 17.9091 4.02992 17.4848C3.60568 17.0606 3.39355 16.5455 3.39355 15.9394V14.0606C3.39355 13.4545 3.60568 12.9394 4.02992 12.5151C4.45416 12.0909 4.96931 11.8788 5.57537 11.8788H10.2723L15.6966 8.63636V21.3636L10.2723 18.1212H8.63598V22.8485H6.8178ZM17.3633 18.7879V11.2121C17.8481 11.6566 18.2372 12.202 18.5305 12.8485C18.823 13.4949 18.9693 14.2121 18.9693 15C18.9693 15.7879 18.823 16.505 18.5305 17.1515C18.2372 17.798 17.8481 18.3434 17.3633 18.7879Z" fill="#14141F" fill-opacity="0.56"/>
</g>
</svg>
