<svg width="64" height="65" viewBox="0 0 64 65" fill="none" xmlns="http://www.w3.org/2000/svg">
<path d="M40.334 55.1791C40.334 55.1791 23.0061 55.5554 13.3442 56.1921C3.68224 56.8289 19.853 57.292 35.3873 56.25C50.9217 55.2081 49.7645 55.6712 54.422 55.0633C59.0794 54.4555 40.334 55.1791 40.334 55.1791Z" fill="#171736"/>
<path d="M26.5681 11.5314C26.3945 11.3577 25.1795 11.4156 24.977 11.4156C24.0803 11.4156 23.3281 13.5575 23.3281 16.1914C23.3281 18.8253 24.1092 20.6777 24.977 20.9382C25.2374 20.9961 26.2209 21.1119 26.3945 20.9382C27.0598 20.3014 26.6259 18.2754 26.6259 16.1914C26.6259 14.1074 27.2045 12.1971 26.5681 11.5314Z" fill="#171736"/>
<path d="M25.87 21.1699C25.5595 21.1686 25.2497 21.1396 24.9443 21.083C23.9318 20.7936 23.1797 18.7386 23.1797 16.1915C23.1797 13.6444 23.9897 11.271 24.9732 11.271H25.1179C26.1014 11.2421 26.5064 11.3 26.651 11.4447C26.7957 11.5894 27.0271 12.8919 26.9114 14.1365C26.8535 14.7733 26.7668 15.4679 26.7668 16.1915C26.7668 16.9151 26.8246 17.4072 26.8535 17.986C26.9403 19.4043 26.9982 20.5331 26.5064 21.0252C26.3178 21.1467 26.0925 21.1979 25.87 21.1699ZM25.6386 11.5605H24.9732C24.25 11.5605 23.469 13.4129 23.469 16.1915C23.469 18.9701 24.25 20.591 25.0311 20.7936C25.3204 20.8804 26.1593 20.9383 26.3039 20.8225C26.4485 20.7068 26.651 19.3175 26.5643 18.015C26.5353 17.4072 26.4775 16.7993 26.4775 16.1915C26.4775 15.5837 26.5643 14.7443 26.6221 14.1075C26.7378 12.9787 26.8246 12.0236 26.4485 11.6473C26.0725 11.271 26.2461 11.5605 25.6386 11.5605Z" fill="#171736"/>
<path d="M28.04 16.1914C28.04 13.5575 27.3168 11.4156 26.3911 11.4156C25.4654 11.4156 24.7422 13.5575 24.7422 16.1914C24.7422 18.8253 25.4943 20.9382 26.3911 20.9382C27.2878 20.9382 28.04 18.7964 28.04 16.1914Z" fill="white"/>
<path d="M26.3873 21.083C25.4037 21.083 24.5938 18.9122 24.5938 16.1915C24.5938 13.4708 25.4037 11.271 26.3873 11.271C27.3708 11.271 28.1808 13.4418 28.1808 16.1915C28.1808 18.9412 27.3998 21.083 26.3873 21.083ZM26.3873 11.5605C25.6641 11.5605 24.883 13.4129 24.883 16.1915C24.883 18.9701 25.6641 20.7936 26.3873 20.7936C27.1105 20.7936 27.8915 18.9412 27.8915 16.1915C27.8915 13.4418 27.1105 11.5605 26.3873 11.5605Z" fill="#171736"/>
<path d="M36.4031 20.6199C36.5766 20.7646 37.5602 20.6777 37.8205 20.6199C38.7173 20.3594 39.4694 18.478 39.4694 15.8441C39.4694 13.2102 38.7462 11.0973 37.8205 11.0973C37.618 11.0973 36.432 11.0394 36.2584 11.2131C35.622 11.8788 36.1716 13.7891 36.1716 15.8441C36.1716 17.8991 35.7666 19.9831 36.4031 20.6199Z" fill="#171736"/>
<path d="M36.9207 20.8515C36.6603 20.8515 36.4 20.8226 36.3132 20.7068C35.7925 20.2148 35.8793 19.086 35.966 17.6677C35.995 17.0888 36.0239 16.481 36.0239 15.8442C36.0239 15.2075 35.966 14.426 35.9082 13.8181C35.7925 12.5736 35.6768 11.5895 36.1396 11.1264C36.6025 10.6632 36.6892 10.9237 37.6728 10.9527H37.8174C38.8299 10.9527 39.611 13.1235 39.611 15.8442C39.611 18.565 38.8878 20.4753 37.8753 20.7647C37.5604 20.8225 37.2408 20.8515 36.9207 20.8515ZM36.5157 20.5042C36.6314 20.591 37.4992 20.5621 37.7885 20.4753C38.5406 20.2727 39.3217 18.4781 39.3217 15.8442C39.3217 13.2103 38.5406 11.2421 37.8174 11.2421H37.6728C36.6314 11.2132 36.4 11.2711 36.3421 11.329C36.2842 11.3868 36.0818 12.6604 36.1975 13.7892C36.2553 14.426 36.3132 15.1206 36.3132 15.8442C36.3132 16.5678 36.2842 17.0888 36.2553 17.6966C36.1685 18.9991 36.1107 20.099 36.5157 20.5042Z" fill="#171736"/>
<path d="M36.3989 20.5909C37.3096 20.5909 38.0478 18.4657 38.0478 15.8441C38.0478 13.2225 37.3096 11.0973 36.3989 11.0973C35.4882 11.0973 34.75 13.2225 34.75 15.8441C34.75 18.4657 35.4882 20.5909 36.3989 20.5909Z" fill="white"/>
<path d="M36.4029 20.7646C35.3904 20.7646 34.6094 18.5938 34.6094 15.8441C34.6094 13.0945 35.3904 10.9526 36.4029 10.9526C37.4154 10.9526 38.1964 13.1234 38.1964 15.8441C38.1964 18.5649 37.4154 20.7646 36.4029 20.7646ZM36.4029 11.242C35.6797 11.242 34.8987 13.0945 34.8987 15.8441C34.8987 18.5938 35.6797 20.4752 36.4029 20.4752C37.1261 20.4752 37.9072 18.6228 37.9072 15.8441C37.9072 13.0655 37.1261 11.242 36.4029 11.242Z" fill="#171736"/>
<path d="M30.4123 7.01618C32.8423 6.61096 33.4208 6.92934 34.4044 7.53717C35.8219 8.37654 36.2558 9.62114 36.6608 11.1552C36.6608 11.1552 38.2229 11.4157 38.4254 11.2131C38.0493 9.0712 34.9829 4.20861 29.6891 5.88736C24.3953 7.56611 24.4532 11.4446 24.4532 11.4446L26.0153 11.5604C26.102 10.721 26.9988 9.15803 27.5484 8.55021C28.3018 7.72905 29.3116 7.18819 30.4123 7.01618Z" fill="#FFDA3C"/>
<path d="M26.393 13.1233H26.3062L26.1326 13.2102C25.9462 13.3368 25.8045 13.5192 25.7276 13.7311C25.6164 13.9985 25.548 14.2818 25.5251 14.5705C25.4962 14.8889 25.4962 15.2073 25.4673 15.5836C25.4195 16.3357 25.4292 17.0905 25.4962 17.8412C25.538 18.2312 25.6057 18.6179 25.6987 18.999C25.7546 19.1923 25.8535 19.3704 25.988 19.5199L26.2483 19.7226C26.3348 19.778 26.435 19.808 26.5376 19.8094C26.6763 19.8406 26.8214 19.8265 26.9516 19.7692C27.0817 19.7119 27.1901 19.6144 27.2608 19.491C27.3187 19.3463 27.2897 19.3173 27.2319 19.3463C27.1978 19.3997 27.1507 19.4436 27.0951 19.474C27.0394 19.5044 26.9771 19.5202 26.9137 19.5199C26.808 19.5438 26.6977 19.5374 26.5954 19.5016C26.4931 19.4658 26.4029 19.4019 26.3351 19.3173C26.1557 19.0642 26.0643 18.7592 26.0748 18.449C26.0458 18.0727 26.0169 17.6675 26.0169 17.2044V15.8151C26.0169 15.352 26.0169 14.831 26.0458 14.3679C26.0473 14.1694 26.0866 13.9729 26.1616 13.789C26.2483 13.6154 26.3641 13.4996 26.4508 13.4996C26.5122 13.49 26.575 13.4986 26.6316 13.5243C26.6881 13.55 26.7359 13.5918 26.769 13.6443C26.8579 13.7463 26.9266 13.8641 26.9715 13.9916C27.1464 14.3423 27.2822 14.7112 27.3765 15.0915C27.5212 15.6414 27.5501 15.873 27.6947 16.4519C27.8394 17.0308 27.8105 16.6545 27.8105 16.394C27.8348 15.9565 27.7959 15.5178 27.6947 15.0915C27.5703 14.5835 27.3958 14.089 27.174 13.6154C27.1286 13.5083 27.0614 13.4118 26.9768 13.3321C26.8921 13.2524 26.7918 13.1911 26.6823 13.1523H26.393V13.1233Z" fill="#171736"/>
<path d="M36.867 17.523C36.867 17.523 36.8959 17.2335 36.8959 16.7126C36.8959 16.1916 36.8959 15.5259 36.867 14.7733C36.838 14.0208 36.7802 13.9629 36.7223 13.5577V13.2393C36.7178 13.1187 36.6883 13.0004 36.6355 12.8919C36.6029 12.7507 36.533 12.6207 36.433 12.5157C36.3572 12.4438 36.2641 12.3927 36.1627 12.3674C36.0614 12.342 35.9552 12.3433 35.8545 12.371C35.7031 12.4277 35.5721 12.5285 35.4784 12.6604L35.3049 12.9498C35.189 13.1284 35.1012 13.3236 35.0445 13.5287C34.9012 13.8883 34.8228 14.2705 34.8131 14.6575C34.8088 14.9 34.8282 15.1424 34.8709 15.3811C34.9288 15.4969 34.9577 15.5258 34.9866 15.468C35.0156 15.4101 35.0445 14.8891 35.247 14.2813C35.3532 13.9376 35.4988 13.6073 35.6809 13.2972L35.8545 13.0367C35.9123 12.9498 35.9702 12.8919 35.9991 12.8919H36.028C36.0802 12.947 36.1109 13.0188 36.1148 13.0946C36.1423 13.1374 36.1526 13.1891 36.1438 13.2393V13.4129C36.1727 13.5287 36.1727 13.6445 36.2016 13.7892L36.2884 14.5418C36.3463 15.0627 36.3752 15.6127 36.433 16.1337C36.4909 17.2046 36.5198 18.015 36.3752 18.536C36.3449 18.6638 36.3062 18.7895 36.2595 18.9123C36.2122 18.9839 36.14 19.0355 36.057 19.057C35.9863 19.0445 35.919 19.0174 35.8592 18.9775C35.7995 18.9377 35.7486 18.8859 35.7098 18.8255C35.5538 18.6436 35.4269 18.4385 35.3338 18.2176C35.2443 17.9806 35.167 17.7391 35.1024 17.494C35.0734 17.1757 35.0156 17.2625 34.9866 17.5809C34.9907 18.0812 35.1527 18.5675 35.4495 18.9702C35.5414 19.1284 35.6842 19.2508 35.8545 19.3175C35.9557 19.3569 36.066 19.3669 36.1727 19.3465C36.2866 19.3245 36.389 19.263 36.462 19.1728C36.559 19.0438 36.628 18.8959 36.6645 18.7386C36.7163 18.6077 36.755 18.472 36.7802 18.3334C36.824 18.1437 36.8435 17.9492 36.838 17.7545C36.8546 17.6784 36.8643 17.6009 36.867 17.523Z" fill="#171736"/>
<path d="M26.041 13.7602C25.8427 14.3658 25.688 14.9848 25.5781 15.6126C25.5781 15.7573 26.3592 15.5257 26.417 15.41C26.7028 14.9803 27.022 14.5738 27.3717 14.1943L26.5906 14.339C26.7063 14.9758 26.417 15.5836 26.2724 16.1625C26.1272 16.7409 26.04 17.3324 26.012 17.9281C25.9831 18.0728 26.7642 17.8702 26.851 17.7255C27.1311 17.0783 27.47 16.4582 27.8634 15.8731L27.0245 16.0757L26.446 19.4911C26.446 19.5779 27.2559 19.52 27.2849 19.2885L27.8634 15.8441C27.8924 15.6994 27.1113 15.902 27.0245 16.0178C26.6479 16.613 26.3097 17.2318 26.012 17.8702L26.851 17.6965C26.8885 17.0618 26.9853 16.4319 27.1402 15.8152C27.3138 15.2653 27.5452 14.7153 27.4295 14.1364C27.3138 13.5576 26.7063 14.1943 26.6195 14.2812C26.2417 14.6824 25.9027 15.1185 25.6071 15.5836L26.417 15.381C26.527 14.7817 26.6817 14.1916 26.8799 13.6154C26.9088 13.4707 26.1278 13.5576 26.041 13.7602Z" fill="#171736"/>
<path d="M35.5594 13.1234C35.2183 13.712 34.9925 14.3604 34.894 15.0337C34.8362 15.381 35.5305 15.2073 35.6462 15.0626C35.9427 14.7323 36.2617 14.4228 36.6008 14.1364H35.8487C35.8487 15.1784 35.2701 16.1335 35.2701 17.1755C35.2701 17.5518 35.9644 17.3781 36.0801 17.1466C36.2234 16.8532 36.4311 16.596 36.6876 16.394L35.9933 16.3072L35.2123 18.9122C35.1255 19.2016 35.704 19.1148 35.8197 19.0569C36.1591 18.9232 36.4581 18.7038 36.6876 18.4201H35.9355L35.6751 19.4621C35.5883 19.8094 36.4562 19.6937 36.514 19.3753L36.7744 18.3043C36.8611 17.957 36.1379 18.1307 36.0222 18.2754C35.8665 18.4299 35.6789 18.5484 35.4726 18.6227L36.0512 18.7964C36.3404 17.9281 36.5719 17.0597 36.8322 16.1914C36.919 15.873 36.2537 15.9888 36.1379 16.0757C35.7903 16.3506 35.5044 16.6958 35.299 17.0887H36.109C36.109 16.0467 36.6876 15.0916 36.6876 14.0206C36.6876 13.6444 36.0801 13.847 35.9065 13.9917C35.5766 14.2783 35.2673 14.5878 34.9808 14.9179H35.733C35.8256 14.2971 36.0316 13.6986 36.3404 13.1523C36.5429 12.805 35.704 12.8339 35.5594 13.1234Z" fill="#171736"/>
<path d="M45.3972 43.9778L45.8601 46.0617L46.67 45.7433L45.1947 43.4278C44.9922 43.1094 44.3558 43.3699 44.3847 43.7462L44.7897 47.0458L45.6286 46.8143C45.3151 45.7115 44.728 44.7059 43.9219 43.8909C43.6905 43.6594 42.9962 43.7751 43.1119 44.1804C43.3998 45.1776 43.5458 46.2104 43.5458 47.2484L44.2979 46.9879C43.9 46.6196 43.593 46.1638 43.4012 45.6565C43.2019 45.1601 42.907 44.7077 42.5333 44.3251C42.273 44.1225 41.7234 44.354 41.7812 44.7014L42.3308 48.6667L43.1698 48.4351C42.7648 47.2195 42.3019 46.0038 41.7812 44.8171C41.6366 44.4987 40.9134 44.5856 40.9423 44.9619C41.0291 46.4091 41.2026 47.8563 41.4051 49.2745L42.2441 49.043L41.0002 45.2223C40.8555 44.8171 40.1034 45.0197 40.1612 45.4539C40.4119 46.7893 40.5186 48.1478 40.4794 49.5061L41.2894 49.3035L40.0745 46.93C39.9009 46.5827 39.1198 46.9011 39.3223 47.3063L40.5084 49.6797C40.6819 49.9692 41.3184 49.7666 41.3184 49.4482C41.3863 48.0318 41.2794 46.6125 41.0002 45.2223L40.1612 45.4539L41.4051 49.2745C41.5498 49.6797 42.3308 49.4482 42.2441 49.043C42.0416 47.6826 41.868 46.2933 41.7812 44.904L40.9423 45.0487C41.463 46.2354 41.9258 47.451 42.3308 48.6667C42.4466 49.0719 43.2276 48.8693 43.1698 48.4351L42.6201 44.4698L41.868 44.8461C42.7069 45.5697 42.7358 46.8143 43.6615 47.48C43.864 47.6247 44.3847 47.5089 44.3847 47.1905C44.3846 46.0955 44.2387 45.0053 43.9508 43.9488L43.1408 44.2672C43.916 45.0393 44.4833 45.9952 44.7897 47.0458C44.9054 47.451 45.6865 47.2195 45.6286 46.8143L45.2236 43.5147L44.4426 43.8041L45.889 46.1196C46.0915 46.438 46.7858 46.2064 46.699 45.8302L46.2361 43.7751C46.1493 43.3699 45.3104 43.5725 45.3972 43.9778Z" fill="#171736"/>
<path d="M18.9261 44.3828C18.6975 45.2055 18.5521 46.0491 18.4922 46.9009C18.4922 47.1035 19.2154 46.872 19.3022 46.7562C19.8821 46.0426 20.3953 45.2772 20.8354 44.4696L20.0254 44.6433C20.0543 45.4248 20.0832 46.2063 20.0832 46.9588C20.0832 47.1904 20.8354 46.9588 20.8932 46.7852C21.1825 46.1773 21.4139 45.5695 21.6453 44.9327L20.8064 45.1064L20.98 47.7114C20.98 47.9719 21.7321 47.6535 21.8189 47.5377C22.1882 46.9229 22.443 46.2463 22.571 45.5406L21.7321 45.7142C21.7321 47.0167 21.7321 48.2902 21.79 49.5638C21.79 49.7953 22.571 49.5348 22.6289 49.3901C23.0919 48.373 23.4318 47.3041 23.6414 46.2063L22.8025 46.3799C22.7208 47.6678 22.7985 48.9608 23.0339 50.2295C23.0628 50.461 23.786 50.2006 23.8728 50.0558C24.2778 48.927 24.7117 47.8271 25.1456 46.6983L24.3067 46.872C24.3646 47.7403 24.3356 48.5797 24.3356 49.448C24.3356 49.6217 25.1746 49.5059 25.1746 49.2165C25.1746 48.3771 25.2035 47.5088 25.1456 46.6694C25.1167 46.4378 24.3646 46.6694 24.3067 46.8431C23.8728 47.9429 23.4389 49.0717 23.0339 50.1716L23.8728 49.9979C23.6365 48.7293 23.5588 47.4362 23.6414 46.1484C23.6414 45.9747 22.8314 46.1195 22.8025 46.3221C22.597 47.4209 22.2569 48.4903 21.79 49.5059L22.6289 49.3322C22.571 48.0587 22.571 46.7852 22.571 45.5116C22.571 45.309 21.79 45.4827 21.7611 45.6853C21.6128 46.3896 21.3489 47.0645 20.98 47.6824L21.8189 47.4798L21.6453 44.8749C21.6164 44.6723 20.8643 44.9038 20.8064 45.0775C20.575 45.6853 20.3436 46.3221 20.0832 46.9299L20.9221 46.7562C20.9221 45.9844 20.8932 45.2029 20.8354 44.4118C20.8354 44.1802 20.0832 44.4696 20.0254 44.5854C19.5949 45.3739 19.0913 46.12 18.5211 46.8141L19.3311 46.6694C19.3931 45.858 19.5286 45.0539 19.7361 44.267C19.7939 44.0355 18.984 44.1513 18.9261 44.3828Z" fill="#171736"/>
<path d="M24.1955 48.6955C23.1541 49.8822 22.0838 51.0978 20.9556 52.2556C20.0769 53.1689 19.1185 54.0019 18.0917 54.7448C17.9585 54.8647 17.8005 54.9536 17.6289 55.0052C17.5009 55.0239 17.3704 55.0155 17.2458 54.9806C17.1213 54.9457 17.0054 54.8851 16.9057 54.8026C16.4718 54.4843 16.4718 53.9343 16.5296 53.4712C16.5875 53.0081 16.8478 52.1977 17.0214 51.5899C17.195 50.982 17.3975 50.0848 17.6 49.3322C18.0628 47.7692 18.5835 46.2352 19.1042 44.7012C19.2488 44.3539 18.5835 44.3828 18.4099 44.4117C18.2364 44.4407 17.571 44.5854 17.4553 44.9327C16.9057 46.4378 16.385 47.9719 15.9511 49.5348C15.6907 50.3742 15.4882 51.2136 15.2568 52.0819C15.0678 52.7372 14.9229 53.4044 14.8229 54.079C14.7072 55.9025 16.8478 56.1341 18.1785 55.642C19.5092 55.15 20.6663 54.0211 21.6788 53.0371C22.6913 52.053 24.427 50.1716 25.7576 48.6665C26.018 48.3771 25.5262 48.2324 25.3237 48.2324C25.1136 48.2246 24.9042 48.2619 24.7096 48.3418C24.515 48.4217 24.3397 48.5423 24.1955 48.6955Z" fill="#171736"/>
<path d="M45.424 44.6434C46.3787 46.38 47.3622 48.1746 47.8829 50.1138C48.1433 51.1269 48.3168 52.2557 48.0276 53.2977C47.9952 53.4513 47.9365 53.5982 47.854 53.7318C47.854 53.7897 47.8251 53.8186 47.8251 53.8476C47.8251 53.8765 47.8829 53.7608 47.7961 53.8476C47.7755 53.9239 47.7357 53.9937 47.6804 54.0502L47.5936 54.166C47.4779 54.3107 47.6515 54.0791 47.5936 54.166L47.4779 54.2528C47.4779 54.2239 47.7672 54.1081 47.7094 54.1081C47.6515 54.1081 47.9986 54.0502 47.8829 54.0502H48.0854C48.2092 54.0217 48.3377 54.0217 48.4615 54.0502C48.2923 54.0391 48.1261 54 47.9697 53.9344C47.544 53.8411 47.1346 53.6851 46.7547 53.4713C45.9993 53.1073 45.2983 52.6397 44.6719 52.082C43.023 50.7795 41.6345 49.1876 40.1592 47.7115C39.7831 47.3063 38.221 47.943 38.597 48.3482C40.0434 49.7954 41.4031 51.3295 42.9652 52.6319C43.6931 53.2286 44.4779 53.7521 45.3083 54.1949C46.0315 54.5422 46.9283 54.9475 47.7383 54.8896C49.7922 54.7449 50.0236 52.1978 49.7632 50.6638C49.3872 48.3482 48.2011 46.2353 47.1019 44.2092C46.8126 43.6883 45.1926 44.2671 45.424 44.6723V44.6434Z" fill="#171736"/>
<path d="M21.9944 37.9863C22.139 37.6679 22.3126 37.4363 22.139 37.0601C21.9422 36.6183 21.6071 36.2526 21.1844 36.0181C20.7591 35.8567 20.3243 35.7214 19.8826 35.6129L18.7255 35.2366C17.2545 34.7133 15.8152 34.1044 14.4152 33.4131L9.06354 30.7792L8.88997 30.6924C8.83212 30.6924 8.57176 30.5477 8.7164 30.6345C8.74533 30.6345 8.86104 30.7213 8.7164 30.6345L8.60069 30.4898C8.47015 30.3827 8.37033 30.2428 8.31141 30.0846C8.26385 30.0069 8.23631 29.9186 8.23126 29.8277C8.22621 29.7368 8.24381 29.646 8.28248 29.5636L8.3982 29.4478C8.3982 29.4478 8.48498 29.4188 8.42712 29.4478L8.62962 29.3899C9.6421 29.1294 10.7124 28.9847 11.7538 28.7821L14.502 28.29C16.4402 27.9716 18.3494 27.7111 20.2876 27.4506C20.7961 27.3833 21.308 27.3447 21.8208 27.3349C22.3518 27.3585 22.8839 27.3391 23.4118 27.277C24.4284 27.1342 25.3718 26.6673 26.1021 25.9456C27.375 24.7299 27.8957 23.0222 28.1849 21.3435C28.4742 19.6647 28.561 18.2754 28.8214 16.7414C29.0817 15.2073 29.4867 13.3549 29.8917 11.7051C30.0984 10.8532 30.3495 10.0127 30.6438 9.18699C30.6725 9.06735 30.7324 8.95748 30.8174 8.8686V8.81071C30.7885 8.83966 30.9331 8.78177 30.8463 8.81071H30.7306C30.6438 8.83966 30.6149 8.78177 30.7017 8.81071L30.8463 8.8686C30.9899 8.93875 31.1178 9.0372 31.2224 9.15804C31.463 9.51398 31.6483 9.90433 31.772 10.3158C32.0034 10.8078 32.177 11.271 32.3795 11.763C32.7942 12.8054 33.1232 13.8799 33.3631 14.9758C33.8838 17.3203 34.1441 19.7226 34.5202 22.096C34.6937 23.0222 34.7516 24.0353 35.2434 24.8746C35.436 25.2553 35.7136 25.5864 36.0547 25.8424C36.3959 26.0984 36.7913 26.2723 37.2105 26.3508C40.9133 27.0165 44.645 27.1323 48.3767 27.1033C50.3438 27.1033 52.3109 27.1033 54.278 27.1612C55.1748 27.1902 56.274 27.1323 56.7079 28.1453C56.8815 28.5505 56.6501 28.7821 56.303 29.0136C55.8549 29.3497 55.3809 29.6498 54.8855 29.9109C53.1787 30.866 51.3563 31.4739 49.5049 32.0527C47.4481 32.6769 45.4609 33.511 43.5746 34.5419C42.6779 35.0629 41.6075 35.6129 41.7522 36.8285C41.81 37.3206 43.4879 36.9443 43.43 36.3654C43.3721 35.7865 43.6614 35.526 44.1243 35.2366L45.6864 34.3683C46.5962 33.9231 47.5334 33.5364 48.4924 33.2105C50.3438 32.5737 52.3109 32.0238 54.1334 31.2134C55.1899 30.7602 56.2061 30.218 57.1708 29.5925C57.6047 29.3031 58.1833 28.9847 58.4147 28.4637C58.6461 27.9427 58.4436 27.7111 58.2122 27.3638C57.5758 26.4376 56.4765 26.3797 55.4351 26.3508C54.3937 26.3218 53.2077 26.2639 52.1084 26.2639C48.5503 26.235 45.021 26.3508 41.4918 25.9745L39.8719 25.7719C39.3222 25.6851 38.7147 25.6561 38.1651 25.5114C37.6155 25.3667 36.8923 24.5273 36.6608 23.7748C36.5105 23.2835 36.404 22.7798 36.3426 22.2697C36.2269 21.6618 36.1401 21.054 36.0534 20.4462C35.8509 19.2306 35.6773 18.0149 35.4748 16.7993C35.3201 15.6252 35.0784 14.4642 34.7516 13.326C34.4492 12.2683 34.0722 11.2333 33.6234 10.229C33.3052 9.47643 33.0448 8.49233 32.2349 8.145C31.4249 7.79767 30.2099 8.02923 29.5156 8.60811C28.8214 9.18699 28.7346 10.1132 28.5032 10.8657C28.2717 11.6183 28.0403 12.7182 27.8378 13.6444C27.4907 15.1494 27.2014 16.6256 26.97 18.1307C26.7385 19.6358 26.6228 21.6908 26.0732 23.3985C25.8504 24.192 25.4663 24.931 24.945 25.5693C24.6979 25.857 24.4046 26.1016 24.0772 26.2929C23.783 26.4436 23.4509 26.504 23.1225 26.4666H21.5604L19.7669 26.6981C18.7544 26.8428 17.7419 26.9586 16.7584 27.1323C14.8877 27.4024 13.0074 27.7208 11.1174 28.0874L9.41068 28.4058C8.82748 28.5016 8.2556 28.6568 7.70393 28.8689C7.12537 29.1294 6.46002 29.5925 6.57573 30.3161C6.66399 30.6872 6.86634 31.0213 7.15429 31.2713C7.51261 31.489 7.89028 31.6731 8.28248 31.8212L9.8446 32.5737C12.911 34.0788 15.9195 35.6707 19.2462 36.597C19.46 36.6307 19.6649 36.7071 19.8487 36.8214C20.0326 36.9357 20.1916 37.0858 20.3165 37.2627C20.4101 37.398 20.4877 37.5437 20.548 37.6968C20.5069 37.8844 20.4281 38.0616 20.3165 38.2178C20.1719 38.5651 20.8951 38.5651 21.0397 38.5362C21.1844 38.5073 21.8208 38.3336 21.9944 37.9863Z" fill="#171736"/>
<path d="M32.1511 46.5538L32.585 46.467L36.2299 48.7825C36.4344 48.9147 36.6592 49.0125 36.8953 49.0719C37.1724 49.0712 37.4435 48.9908 37.6763 48.8404C41.5237 46.9301 45.2844 45.2802 49.0161 43.1963C48.0615 41.8649 46.4704 40.215 45.3133 38.6231C44.6769 37.7259 44.214 37.4943 43.433 36.3365C43.433 36.3365 35.796 39.723 32.18 39.7519C28.564 39.7809 20.4931 38.0153 20.4931 38.0153C18.3813 39.4336 17.1664 41.3728 15.6621 43.4568C19.6735 45.5022 23.6173 47.6922 27.4937 50.0271C29.1484 49.0133 30.7073 47.8507 32.1511 46.5538Z" fill="#FFDA3C"/>
<path d="M28.0663 31.0108H28.2688L28.8474 30.924L31.422 30.7503L31.2773 30.6635L31.1327 30.5766L30.6409 30.2872L29.6284 29.7373L29.0209 29.4189L28.3267 29.1294L28.0085 29.0137L27.806 28.9268L27.401 28.8111C26.3659 28.4699 25.2791 28.3132 24.19 28.348C23.4957 28.4058 23.2643 28.5216 23.38 28.6663C23.4957 28.8111 23.9007 28.9268 24.5371 29.1005C25.1735 29.2742 25.9835 29.4768 26.8803 29.7662L27.5456 30.0267H27.9795C28.0374 30.0846 27.9217 30.1425 27.7481 30.2004H27.6613L27.5167 30.2583L27.2274 30.3161L26.7646 30.4898C26.3313 30.6296 25.9064 30.7939 25.4917 30.9819C24.9969 31.1675 24.5515 31.4646 24.19 31.8502C23.756 32.3712 24.6239 31.937 25.6942 31.5607C26.1949 31.3659 26.7069 31.2016 27.2274 31.0687C27.4061 31.011 27.5903 30.9722 27.777 30.9529L28.0663 31.0108Z" fill="#171736"/>
<path d="M35.5928 29.0426H34.9274C34.3492 29.1331 33.7851 29.2985 33.2496 29.5347L34.0017 30.1425C34.0306 29.9688 34.2042 29.7662 34.5224 29.5926C34.6823 29.4732 34.8574 29.3758 35.0431 29.3031L35.5928 28.9847L37.6756 27.9428C38.1963 27.6823 38.3698 27.5086 38.2831 27.4218C38.1963 27.3349 37.8491 27.277 37.3284 27.3639C36.6306 27.4652 35.9495 27.6599 35.3035 27.9428C34.8824 28.1 34.4759 28.2937 34.0885 28.5216C33.8616 28.6764 33.6487 28.8508 33.4521 29.0426C33.2059 29.2886 33.0353 29.6 32.9603 29.9399L32.7578 31.0977L33.7124 30.5188L34.4646 30.1425C35.1598 29.8483 35.9082 29.7005 36.6631 29.7083C37.069 29.6916 37.4756 29.711 37.8781 29.7662C38.3526 29.8742 38.8429 29.8938 39.3245 29.8241C39.9609 29.7373 39.093 29.4189 37.9938 29.1873C37.4707 29.0755 36.9376 29.0173 36.4027 29.0137C36.1325 28.9956 35.8611 29.0053 35.5928 29.0426Z" fill="#171736"/>
<path d="M33.9114 35.7866L33.3618 35.9602C32.9248 36.113 32.4652 36.1913 32.0022 36.1918C31.4196 36.2431 30.8326 36.1941 30.2665 36.0471C29.7332 35.9263 29.2107 35.7617 28.7044 35.555C28.5546 35.463 28.387 35.4038 28.2126 35.3813C28.0969 35.3524 28.0391 35.4103 28.0391 35.4682C28.0391 35.5261 28.2126 35.9602 28.6466 36.3365C29.2032 36.7823 29.8575 37.0898 30.5558 37.2338C31.4466 37.4166 32.3713 37.3361 33.2172 37.0022C33.8451 36.7271 34.4375 36.3772 34.9818 35.9602L35.7918 35.2656C36.1069 34.9855 36.3205 34.6089 36.3993 34.1946C36.4571 33.9052 36.3414 33.9341 36.1678 34.0789C35.9943 34.2236 35.7339 34.513 35.3868 34.8025C35.0899 35.062 34.7704 35.2945 34.4322 35.4971L33.9114 35.7866Z" fill="#171736"/>
<path d="M13.6305 31.0398H13.5437L13.428 30.9819H13.4569C13.4569 30.9819 13.428 30.9819 13.4569 30.953L13.5726 30.7793L13.7173 30.5478C13.7751 30.4609 13.7751 30.3452 13.6305 30.2004C13.5285 30.1218 13.4058 30.0745 13.2775 30.0642C13.1491 30.0539 13.0205 30.0811 12.9073 30.1426C12.7274 30.2056 12.5744 30.3281 12.4734 30.4899C12.3505 30.6992 12.3093 30.9466 12.3576 31.1845C12.3802 31.3118 12.4309 31.4324 12.506 31.5375C12.581 31.6427 12.6786 31.7297 12.7916 31.7924C12.9906 31.9164 13.2227 31.9769 13.4569 31.966C13.65 31.9437 13.8317 31.8629 13.9776 31.7345C14.103 31.6588 14.2035 31.5481 14.2669 31.4161C14.3597 31.2383 14.3902 31.0345 14.3537 30.8372C14.338 30.7241 14.2985 30.6156 14.238 30.5188C14.1963 30.4539 14.1357 30.4034 14.0644 30.3741C14.019 30.3533 13.9697 30.3425 13.9198 30.3425C13.8698 30.3425 13.8205 30.3533 13.7751 30.3741C13.7551 30.3803 13.7367 30.3908 13.7211 30.4048C13.7055 30.4188 13.6932 30.4361 13.6849 30.4553C13.6767 30.4746 13.6727 30.4954 13.6733 30.5164C13.6739 30.5374 13.679 30.5579 13.6883 30.5767C13.6883 30.6346 13.7173 30.6925 13.7173 30.7504C13.7173 30.8083 13.7462 30.8662 13.7173 30.924V31.0109L13.6305 31.0398Z" fill="#171736"/>
<path d="M28.9667 17.5807C29.0423 17.6428 29.1018 17.7222 29.1402 17.8123C29.2415 18.0397 29.2909 18.2869 29.2849 18.5359C29.2539 18.8476 29.1444 19.1463 28.9667 19.4042C28.8951 19.505 28.8071 19.5931 28.7063 19.6647C28.6303 19.7193 28.5395 19.7496 28.4459 19.7515H28.2145C28.1831 19.7468 28.151 19.7497 28.1208 19.7597C28.0907 19.7698 28.0633 19.7868 28.041 19.8094C28.0173 19.8603 28.0075 19.9166 28.0126 19.9725C28.0177 20.0284 28.0374 20.082 28.0699 20.1278C28.1161 20.2081 28.1785 20.278 28.2532 20.3328C28.328 20.3876 28.4133 20.4262 28.5038 20.4462C28.6422 20.4893 28.788 20.5038 28.9322 20.4889C29.0764 20.474 29.2161 20.4299 29.3427 20.3593C29.6419 20.2104 29.8927 19.9796 30.0659 19.6936C30.262 19.3826 30.3685 19.0234 30.3736 18.6557C30.3787 18.288 30.2823 17.926 30.0948 17.6096C29.9267 17.3399 29.6991 17.1122 29.4295 16.9439C28.9969 16.6791 28.4843 16.5765 27.9831 16.6545C27.8286 16.6837 27.6812 16.7427 27.5492 16.8282C27.4169 16.9278 27.3245 17.0716 27.2888 17.2334C27.231 17.436 27.3467 17.436 27.4624 17.3781C27.6501 17.3172 27.8443 17.2783 28.041 17.2623C28.2684 17.2537 28.4951 17.2932 28.7063 17.3781C28.803 17.4318 28.8909 17.5001 28.9667 17.5807Z" fill="#171736"/>
<path d="M50.3108 29.9688C50.1667 29.9507 50.0209 29.9507 49.8768 29.9688C49.5212 30.0039 49.1816 30.1338 48.8933 30.3451C48.5269 30.5985 48.2528 30.9642 48.1122 31.3871C48.0601 31.4855 48.0305 31.5942 48.0254 31.7055V31.8791C48.0188 31.948 48.0287 32.0175 48.0544 32.0817C48.0741 32.3439 48.1869 32.5903 48.3726 32.7764C48.4307 32.8385 48.5038 32.8844 48.5849 32.9098C48.6661 32.9352 48.7524 32.9391 48.8354 32.9211C48.8686 32.9054 48.897 32.8809 48.9173 32.8503C48.9377 32.8197 48.9494 32.7842 48.9511 32.7474C48.9511 32.6606 48.8933 32.6027 48.8644 32.5159C48.8463 32.4186 48.8564 32.3182 48.8933 32.2265C48.9058 32.1788 48.9154 32.1305 48.9222 32.0817L48.9801 32.0238C48.9801 31.9949 49.009 31.9949 49.009 31.937L49.2404 31.5897C49.4244 31.3329 49.6492 31.1081 49.9058 30.924C50.1297 30.7571 50.41 30.6844 50.6868 30.7214C50.8531 30.7401 51.0121 30.7998 51.1497 30.895C51.3281 31.0044 51.5237 31.0827 51.7282 31.1266C51.9018 31.1845 51.9597 31.1266 51.9018 30.9529C51.8304 30.7303 51.6882 30.5371 51.4968 30.403C51.2783 30.2215 51.0209 30.0928 50.7447 30.0267L50.3108 29.9688Z" fill="#171736"/>
<path d="M46.4981 52.4871V52.3713C46.5361 52.2495 46.5556 52.1227 46.556 51.9951C46.5566 51.7838 46.5071 51.5755 46.4113 51.3872C46.3057 51.1515 46.1351 50.9507 45.9196 50.8084C45.6886 50.6215 45.4058 50.5104 45.1096 50.49C44.7726 50.4801 44.4436 50.5933 44.1839 50.8084C43.9604 50.993 43.8048 51.247 43.7419 51.5302C43.6791 51.8133 43.7124 52.1093 43.8367 52.3713C43.8734 52.4512 43.9255 52.523 43.9901 52.5826C44.0546 52.6422 44.1303 52.6885 44.2128 52.7187C44.3285 52.7187 44.3574 52.6897 44.3864 52.6029C44.4153 52.516 44.3864 52.4582 44.4153 52.3424C44.417 52.2214 44.4467 52.1026 44.5021 51.9951C44.5423 51.8821 44.6123 51.7821 44.7046 51.7056L44.8203 51.6188H44.936C45.057 51.6164 45.1769 51.6412 45.287 51.6913C45.3972 51.7414 45.4947 51.8155 45.5724 51.9082C45.6248 51.967 45.6646 52.0357 45.6894 52.1104C45.7143 52.185 45.7237 52.264 45.7171 52.3424C45.7189 52.473 45.6891 52.6021 45.6303 52.7187C45.5874 52.7977 45.5282 52.8668 45.4567 52.9213L45.2831 53.037L45.0228 53.1239L44.6757 53.1818H44.4732C44.471 53.2537 44.4912 53.3245 44.531 53.3844C44.6229 53.506 44.7571 53.5887 44.9071 53.6159C45.0858 53.6735 45.278 53.6735 45.4567 53.6159C45.6413 53.5599 45.8098 53.4606 45.9485 53.3265C46.0856 53.2311 46.1954 53.1013 46.2667 52.9502C46.3601 52.8045 46.4377 52.6493 46.4981 52.4871Z" fill="#171736"/>
<path d="M18.3177 54.108L18.4334 53.9922C18.5196 53.8726 18.5969 53.7468 18.6648 53.616C18.884 53.1878 18.9744 52.7052 18.9252 52.2267C18.8602 51.6038 18.5847 51.0217 18.1441 50.5769C17.9025 50.3619 17.6159 50.2036 17.3052 50.1138C17.0225 50.0267 16.7201 50.0267 16.4374 50.1138C16.3417 50.1298 16.2507 50.1667 16.1707 50.2217C16.0908 50.2767 16.0238 50.3485 15.9745 50.4321C15.9515 50.4628 15.9416 50.5014 15.9471 50.5394C15.9525 50.5774 15.9728 50.6117 16.0035 50.6347C16.2589 50.6695 16.5107 50.7277 16.7556 50.8084C17.1073 50.9579 17.3873 51.238 17.5366 51.5899C17.7867 52.0193 17.9072 52.5118 17.8838 53.0082C17.8924 53.2332 17.8319 53.4554 17.7102 53.6449C17.6353 53.8102 17.5149 53.9508 17.3631 54.0501C17.1716 54.1707 16.9526 54.2404 16.7267 54.2527H15.8588C15.6563 54.2238 15.6274 54.3106 15.772 54.4843C15.8984 54.6071 16.0478 54.7036 16.2116 54.7682C16.3755 54.8328 16.5506 54.8642 16.7267 54.8606C17.1379 54.86 17.5401 54.7393 17.8838 54.5132C18 54.4396 18.1068 54.3521 18.202 54.2527L18.3177 54.108Z" fill="#171736"/>
<path d="M43.658 27.6242H43.5423V27.5663H43.5133C43.4844 27.5374 43.5133 27.4795 43.5423 27.4216C43.6028 27.3248 43.6422 27.2163 43.658 27.1032C43.6371 27.0082 43.5802 26.925 43.4993 26.871C43.4184 26.8171 43.3197 26.7965 43.224 26.8138C43.0315 26.8148 42.846 26.8869 42.7033 27.0164C42.5213 27.2022 42.4178 27.4509 42.4141 27.7111C42.439 27.8591 42.4777 28.0044 42.5298 28.1452C42.6105 28.2647 42.7079 28.3719 42.8191 28.4636C42.9363 28.5655 43.0767 28.6371 43.2279 28.6724C43.3791 28.7077 43.5367 28.7056 43.6869 28.6662L43.8315 28.6083C43.9659 28.5634 44.0791 28.4707 44.1497 28.3478C44.2267 28.2753 44.286 28.1862 44.3233 28.0873C44.3917 27.943 44.4215 27.7835 44.4101 27.6242C44.4206 27.5092 44.4023 27.3934 44.3568 27.2873C44.3114 27.1812 44.2402 27.0881 44.1497 27.0164C44.0845 26.9368 43.9914 26.8851 43.8894 26.8717C43.825 26.8648 43.76 26.8777 43.7032 26.9087C43.6463 26.9398 43.6003 26.9874 43.5712 27.0453C43.5423 27.1901 43.629 27.219 43.658 27.2769L43.7158 27.4216V27.5374L43.658 27.6242Z" fill="#171736"/>
</svg>
