<svg width="21" height="20" viewBox="0 0 21 20" fill="none" xmlns="http://www.w3.org/2000/svg">
<path d="M5.26926 0.9039H15.7885V12.9038L9.15386 19.5L8.30774 18.6539C8.2039 18.55 8.11769 18.4125 8.04909 18.2414C7.9805 18.0702 7.94621 17.909 7.94621 17.7577V17.5039L9.00774 12.9038H2.30774C1.83209 12.9038 1.41189 12.7215 1.04716 12.3567C0.682428 11.992 0.500061 11.5718 0.500061 11.0962V9.4808C0.500061 9.37695 0.513519 9.26477 0.540436 9.14427C0.567353 9.02376 0.597478 8.91158 0.630811 8.80773L3.49619 2.04622C3.63979 1.72571 3.88017 1.45519 4.21734 1.23467C4.55452 1.01416 4.90516 0.9039 5.26926 0.9039ZM14.2885 2.40387H5.26926C5.19874 2.40387 5.12663 2.42311 5.05291 2.46158C4.97918 2.50004 4.92308 2.56415 4.88461 2.6539L2.00001 9.40388V11.0962C2.00001 11.1859 2.02886 11.2596 2.08656 11.3173C2.14426 11.375 2.21799 11.4039 2.30774 11.4039H10.9039L9.65001 16.8847L14.2885 12.2654V2.40387ZM15.7885 12.9038V11.4039H19V2.40387H15.7885V0.9039H20.5V12.9038H15.7885Z" fill="#FF0400"/>
</svg>
