<svg width="30" height="30" viewBox="0 0 30 30" fill="none" xmlns="http://www.w3.org/2000/svg">
<mask id="mask0_320_2938" style="mask-type:alpha" maskUnits="userSpaceOnUse" x="0" y="0" width="30" height="30">
<rect x="0.454102" y="0.454544" width="29.0909" height="29.0909" fill="#D9D9D9"/>
</mask>
<g mask="url(#mask0_320_2938)">
<path d="M2.63574 23.8485V21.1515C2.63574 20.5253 2.79736 19.9697 3.12059 19.4849C3.44382 19 3.87817 18.6162 4.42362 18.3333C5.57514 17.7879 6.7319 17.3588 7.89392 17.0461C9.05514 16.7325 10.3327 16.5758 11.7267 16.5758C13.1206 16.5758 14.3986 16.7325 15.5606 17.0461C16.7218 17.3588 17.8782 17.7879 19.0297 18.3333C19.5751 18.6162 20.0095 19 20.3327 19.4849C20.6559 19.9697 20.8176 20.5253 20.8176 21.1515V23.8485H2.63574ZM20.9994 16.8788C21.8075 17 22.5751 17.1867 23.3024 17.4388C24.0297 17.6917 24.7267 17.9899 25.3933 18.3333C26.0196 18.6768 26.5044 19.076 26.8479 19.5309C27.1913 19.9851 27.363 20.4748 27.363 21V23.8485H23.2418V21C23.2418 20.2121 23.0446 19.4594 22.6503 18.7418C22.2568 18.0251 21.7065 17.404 20.9994 16.8788ZM11.7267 14.6364C10.5549 14.6364 9.55493 14.217 8.72665 13.3782C7.89837 12.5402 7.48423 11.5455 7.48423 10.3939C7.48423 9.22223 7.89837 8.22223 8.72665 7.39394C9.55493 6.56566 10.5549 6.15152 11.7267 6.15152C12.8984 6.15152 13.8984 6.56566 14.7267 7.39394C15.5549 8.22223 15.9691 9.22223 15.9691 10.3939C15.9691 11.5455 15.5549 12.5402 14.7267 13.3782C13.8984 14.217 12.8984 14.6364 11.7267 14.6364ZM22.1812 10.3939C22.1812 11.5455 21.7671 12.5402 20.9388 13.3782C20.1105 14.217 19.1105 14.6364 17.9388 14.6364C17.8176 14.6364 17.6507 14.621 17.4382 14.5903C17.2264 14.5604 17.0499 14.5253 16.9085 14.4849C17.3933 13.899 17.7622 13.2578 18.0151 12.5612C18.2673 11.8638 18.3933 11.1414 18.3933 10.3939C18.3933 9.62627 18.262 8.89899 17.9994 8.21213C17.7368 7.52526 17.3731 6.88889 16.9085 6.30303C17.0701 6.24243 17.2418 6.20202 17.4236 6.18182C17.6054 6.16162 17.7772 6.15152 17.9388 6.15152C19.1105 6.15152 20.1105 6.56566 20.9388 7.39394C21.7671 8.22223 22.1812 9.22223 22.1812 10.3939ZM4.45392 22.0303H18.9994V21.1515C18.9994 20.9091 18.9339 20.6869 18.803 20.4849C18.6713 20.2828 18.4741 20.1111 18.2115 19.9697C17.2014 19.4647 16.1711 19.0756 15.1206 18.8024C14.0701 18.5301 12.9388 18.3939 11.7267 18.3939C10.5145 18.3939 9.37837 18.5301 8.31817 18.8024C7.25716 19.0756 6.2317 19.4647 5.2418 19.9697C4.95897 20.1111 4.75695 20.2828 4.63574 20.4849C4.51453 20.6869 4.45392 20.9091 4.45392 21.1515V22.0303ZM11.7267 12.8182C12.3933 12.8182 12.9642 12.5806 13.4394 12.1055C13.9137 11.6311 14.1509 11.0606 14.1509 10.3939C14.1509 9.72728 13.9137 9.15637 13.4394 8.68122C12.9642 8.20687 12.3933 7.9697 11.7267 7.9697C11.06 7.9697 10.4895 8.20687 10.0151 8.68122C9.53999 9.15637 9.30241 9.72728 9.30241 10.3939C9.30241 11.0606 9.53999 11.6311 10.0151 12.1055C10.4895 12.5806 11.06 12.8182 11.7267 12.8182Z" fill="#14141F" fill-opacity="0.56"/>
</g>
</svg>
